<svg width="180" height="40" viewBox="0 0 180 40" fill="none" xmlns="http://www.w3.org/2000/svg">
<g clip-path="url(#clip0)">
<path d="M58.1379 14.2566C59.1956 12.6551 59.1847 11.9322 59.1091 10.7452C58.813 6.09057 60.569 1.37995 65.2403 0.744325C63.4151 3.4783 60.3124 6.89504 65.3811 9.5392C71.5735 12.7696 72.5033 7.73069 73.9432 4.45752C75.5743 6.35872 75.5329 8.43387 74.4961 10.7467C72.3873 15.4512 67.7435 11.61 61.5919 16.9616C62.0042 17.3421 62.4236 17.7478 62.8522 18.1799C64.619 16.671 66.4765 16.321 68.2662 15.9842C70.9793 15.4736 73.5409 14.9916 75.4483 10.7365C76.6339 8.09154 75.8132 4.98699 73.8963 2.90414C73.3121 3.97648 72.7312 5.05134 72.1433 6.1216C71.0826 8.06858 68.6018 8.8046 66.6327 7.75564L66.6323 7.75559C64.6635 6.70653 63.919 4.25329 64.9799 2.30603L66.2293 0.0124194L65.9307 0.0433643C64.2898 0.213632 62.7679 0.808152 61.5488 1.7424C58.9258 3.75245 58.2024 7.2376 58.4016 10.3658C58.4731 11.4915 58.5246 12.3055 57.5096 13.8722C57.7199 13.9954 57.9292 14.1234 58.1379 14.2566ZM17.878 14.2804C16.8046 12.6624 16.8149 11.9379 16.8909 10.7452C17.187 6.09057 15.4311 1.37995 10.7598 0.744325C12.5849 3.47825 15.6876 6.89508 10.6189 9.53924C4.42654 12.7697 3.49678 7.73069 2.05682 4.45757C0.425674 6.35877 0.467155 8.43387 1.50393 10.7467C3.61597 15.4583 8.2707 11.5982 14.4363 16.986C14.024 17.367 13.605 17.7728 13.1768 18.2046C11.4014 16.6747 9.5333 16.3229 7.73382 15.9842C5.02073 15.4737 2.45911 14.9915 0.551674 10.7365C-0.633964 8.0915 0.186855 4.98699 2.10369 2.90409C2.68796 3.97648 3.26887 5.05134 3.85673 6.1216C4.91745 8.06853 7.39819 8.8046 9.36728 7.75559H9.36766C11.3366 6.70653 12.0811 4.25334 11.0202 2.30603L9.77075 0.0124194L10.0693 0.0433643C11.7102 0.213632 13.2321 0.808152 14.4513 1.7424C17.0742 3.75245 17.7977 7.2376 17.5985 10.3659C17.5265 11.4968 17.4751 12.3132 18.5049 13.8944C18.2952 14.018 18.0864 14.1465 17.878 14.2804ZM53.8099 8.70647L53.2901 8.7951C53.1825 8.81277 53.0929 8.89257 53.0615 8.99891C53.0167 9.14518 52.9584 9.2914 52.8868 9.43323C52.8374 9.53074 52.8464 9.64597 52.9091 9.7346L53.2273 10.1689C53.3035 10.2753 53.2901 10.426 53.2005 10.5146L52.9494 10.7628L52.6985 11.0109C52.6044 11.104 52.4564 11.1173 52.3489 11.042L51.9187 10.7406C51.829 10.6786 51.708 10.6697 51.6139 10.7229C51.475 10.7983 51.3271 10.8558 51.1792 10.909C51.0761 10.9445 50.9999 11.0287 50.982 11.1351L50.8968 11.6624C50.8744 11.7909 50.7624 11.8885 50.6324 11.8885H50.2784H49.9243C49.7943 11.8885 49.6778 11.7954 49.6554 11.6669L49.5703 11.1528C49.5523 11.042 49.4717 10.9577 49.3641 10.9223C49.2162 10.878 49.0683 10.8204 48.9294 10.7495C48.8308 10.7007 48.7142 10.7096 48.6246 10.7717L48.1854 11.0863C48.0778 11.1617 47.9255 11.1483 47.8358 11.0597L47.5848 10.8115L47.3339 10.5634C47.2398 10.4702 47.2263 10.3241 47.3025 10.2177L47.6028 9.79224C47.6655 9.70356 47.67 9.58394 47.6207 9.48643C47.5445 9.34016 47.4773 9.19394 47.428 9.04327C47.3921 8.94132 47.307 8.86153 47.1949 8.84381L46.6661 8.75962C46.5361 8.73746 46.4375 8.62668 46.4375 8.49813V8.148V7.79792C46.4375 7.66937 46.5316 7.55419 46.6616 7.53203L47.1905 7.43896C47.298 7.4212 47.3877 7.34145 47.419 7.23949C47.4683 7.08883 47.5266 6.94701 47.5983 6.80518C47.6476 6.70771 47.6386 6.59244 47.5759 6.50381L47.2622 6.07393C47.186 5.96754 47.1994 5.82576 47.2846 5.72825L47.5356 5.48008L47.7865 5.2319C47.8806 5.13883 48.0285 5.12551 48.1361 5.20086L48.5708 5.50667C48.6605 5.56871 48.777 5.57754 48.8756 5.52439C49.019 5.45348 49.1624 5.39145 49.3148 5.34269C49.4179 5.30726 49.4985 5.22302 49.5165 5.11667L49.6016 4.59373C49.624 4.46523 49.7361 4.36771 49.8661 4.36771H50.2201H50.5742C50.7041 4.36771 50.8206 4.46078 50.8431 4.58934L50.9372 5.11223C50.9551 5.21863 51.0358 5.30726 51.1389 5.3383C51.2912 5.38705 51.4347 5.44469 51.5781 5.51556C51.6767 5.56431 51.7932 5.55543 51.8828 5.49345L52.3176 5.18315C52.4251 5.10784 52.5775 5.12112 52.6671 5.20975L52.9181 5.45797L53.1691 5.70614C53.2632 5.79921 53.2767 5.94543 53.2005 6.05178L52.8912 6.4817C52.8285 6.57033 52.824 6.68556 52.8733 6.78302C52.9405 6.91601 53.0033 7.0534 53.0481 7.19518C53.0839 7.29713 53.1691 7.37693 53.2811 7.39464L53.8144 7.47888C53.9444 7.50104 54.043 7.61178 54.043 7.74033V8.09041V8.44053C54.034 8.56904 53.9399 8.68427 53.8099 8.70647ZM51.3495 7.04452C50.7445 6.43294 49.754 6.42406 49.1355 7.02236C48.517 7.62061 48.5081 8.60008 49.1131 9.21165C49.7181 9.82323 50.7086 9.83211 51.3271 9.23381C51.9456 8.63551 51.9545 7.65609 51.3495 7.04452ZM29.4013 8.77592L28.8814 8.86455C28.7738 8.88227 28.6842 8.96206 28.6528 9.06841C28.608 9.21463 28.5498 9.3609 28.478 9.50272C28.4288 9.60024 28.4377 9.71546 28.5005 9.8041L28.8187 10.2384C28.8948 10.3448 28.8814 10.4954 28.7918 10.5841L28.5408 10.8323L28.2898 11.0804C28.1957 11.1735 28.0478 11.1868 27.9403 11.1115L27.51 10.8101C27.4203 10.7481 27.2993 10.7392 27.2052 10.7924C27.0663 10.8677 26.9184 10.9253 26.7705 10.9785C26.6675 11.014 26.5913 11.0982 26.5733 11.2046L26.4882 11.7319C26.4658 11.8604 26.3537 11.958 26.2237 11.958H25.8697H25.5156C25.3857 11.958 25.2691 11.8649 25.2467 11.7363L25.1616 11.2223C25.1436 11.1115 25.063 11.0272 24.9554 10.9918C24.8076 10.9475 24.6596 10.8899 24.5207 10.819C24.4221 10.7702 24.3056 10.7791 24.216 10.8411L23.7767 11.1558C23.6692 11.2312 23.5167 11.2178 23.4271 11.1292L23.1762 10.881L22.9252 10.6329C22.831 10.5397 22.8176 10.3936 22.8938 10.2872L23.1941 9.86173C23.2569 9.77306 23.2613 9.65339 23.212 9.55592C23.1358 9.40965 23.0686 9.26339 23.0193 9.11277C22.9835 9.01082 22.8983 8.93102 22.7863 8.91331L22.2574 8.82907C22.1274 8.80691 22.0288 8.69617 22.0288 8.56762V8.21749V7.86742C22.0288 7.73886 22.123 7.62364 22.2529 7.60148L22.7818 7.50841C22.8893 7.49069 22.979 7.41094 23.0103 7.30899C23.0597 7.15828 23.1179 7.0165 23.1896 6.87468C23.239 6.77716 23.2299 6.66194 23.1672 6.57331L22.8535 6.14343C22.7773 6.03704 22.7907 5.89526 22.8759 5.79775L23.1268 5.54952L23.3778 5.3014C23.472 5.20833 23.6198 5.195 23.7275 5.27036L24.1621 5.57612C24.2518 5.6382 24.3683 5.64704 24.4669 5.59389C24.6104 5.52293 24.7537 5.46094 24.9061 5.41219C25.0092 5.37675 25.0899 5.29252 25.1078 5.18617L25.193 4.66323C25.2154 4.53467 25.3274 4.43721 25.4573 4.43721H25.8114H26.1655C26.2955 4.43721 26.412 4.53028 26.4344 4.65878L26.5285 5.18173C26.5464 5.28812 26.6271 5.37675 26.7301 5.40779C26.8826 5.45655 27.0259 5.51409 27.1694 5.58505C27.268 5.63381 27.3845 5.62493 27.4741 5.5629L27.9088 5.25264C28.0165 5.17734 28.1688 5.19061 28.2584 5.27924L28.5095 5.52741L28.7604 5.77564C28.8545 5.86871 28.8679 6.01493 28.7918 6.12127L28.4825 6.55119C28.4198 6.63982 28.4153 6.75501 28.4646 6.85252C28.5318 6.98551 28.5946 7.1229 28.6394 7.26468C28.6752 7.36663 28.7604 7.44642 28.8724 7.46414L29.4058 7.54833C29.5357 7.57049 29.6343 7.68127 29.6343 7.80983V8.1599V8.51003C29.6254 8.63853 29.5313 8.75376 29.4013 8.77592ZM26.9408 7.11401C26.3358 6.50239 25.3453 6.49356 24.7269 7.09186C24.1083 7.69011 24.0994 8.66957 24.7045 9.28115C25.3095 9.89272 26.2999 9.90161 26.9184 9.30331C27.5369 8.70501 27.5459 7.72559 26.9408 7.11401ZM42.3481 1.33818L42.0821 2.48149C42.0246 2.72092 42.1113 2.9673 42.303 3.12694C42.569 3.34932 42.824 3.59579 43.0557 3.86683C43.2184 4.05113 43.4616 4.13782 43.7058 4.08193L44.8913 3.81534C45.1833 3.75189 45.483 3.90779 45.5945 4.17708L46.1986 5.64052C46.3165 5.91557 46.2134 6.22776 45.9547 6.38518L44.9499 7.00771C44.7384 7.13971 44.6267 7.37504 44.6473 7.61783C44.6778 7.97301 44.6782 8.32327 44.6544 8.66863C44.6329 8.91274 44.7491 9.14027 44.9578 9.26962L45.9892 9.91087C46.2409 10.0684 46.342 10.3796 46.2314 10.6506L46.0126 11.1698C44.1318 11.009 42.1977 10.904 40.2225 10.8587C41.3879 9.92934 41.8597 8.32762 41.2827 6.87907C40.5652 5.09286 38.5229 4.21937 36.7164 4.92297C34.9099 5.62653 34.0266 7.64617 34.7381 9.43257C34.9688 10.0117 35.3393 10.4949 35.7964 10.8595C33.8292 10.905 31.9037 11.0101 30.0305 11.1704L29.8219 10.665C29.7042 10.3901 29.8073 10.0777 30.0658 9.92036L31.0825 9.29159C31.2939 9.15954 31.4059 8.93003 31.3854 8.68739C31.3547 8.33216 31.3545 7.98184 31.384 7.63053C31.4054 7.38633 31.2891 7.1529 31.0803 7.02349L30.0611 6.38778C29.8095 6.23022 29.7085 5.91897 29.8248 5.64775L30.4344 4.20174C30.5448 3.93075 30.8399 3.78401 31.1362 3.84505L32.3106 4.11321C32.5527 4.17014 32.8019 4.08439 32.9574 3.89494C33.1879 3.62574 33.4376 3.37955 33.7116 3.15052C33.8983 2.9956 33.9855 2.74327 33.9292 2.50762L33.6602 1.35311C33.5959 1.06445 33.7536 0.768042 34.026 0.657821L35.506 0.0602305C35.784 -0.056179 36.0997 0.0457738 36.259 0.301553L36.895 1.30681C37.0284 1.51601 37.2664 1.62637 37.5122 1.61206C37.8535 1.58839 38.1897 1.58867 38.5269 1.61267C38.7739 1.63379 39.0099 1.51885 39.1407 1.31239L39.7891 0.29253C39.9485 0.0435061 40.2632 -0.056368 40.5376 0.0589076L41.9999 0.661506C42.2614 0.759349 42.4159 1.0508 42.3481 1.33818Z" fill="#353535"/>
<path fill-rule="evenodd" clip-rule="evenodd" d="M16.0723 35.579C16.0723 34.3768 17.0579 33.4022 18.2737 33.4022C19.4895 33.4022 20.4751 34.3768 20.4751 35.579C20.4751 36.7813 19.4895 37.756 18.2737 37.756C17.0579 37.756 16.0723 36.7813 16.0723 35.579ZM59.8864 35.579C59.8864 34.3768 58.9008 33.4022 57.6851 33.4022C56.4693 33.4022 55.4836 34.3768 55.4836 35.579C55.4836 36.7813 56.4693 37.756 57.6851 37.756C58.9008 37.756 59.8864 36.7813 59.8864 35.579ZM61.2665 27.5997C62.352 27.1522 65.6044 26.2716 68.7288 26.6612C75.9378 27.5602 76.0375 36.7492 73.2538 38.6966C72.9192 38.9305 72.3153 39.0423 70.9288 39.0422C69.2521 39.0421 74.2843 37.3021 73.3944 32.7022C72.5027 28.0929 67.6909 29.2019 68.01 29.2588C68.9095 29.4192 69.7589 29.8529 70.6763 30.6842C71.9787 31.8641 72.774 35.2029 70.6013 37.2307C68.6613 39.0412 66.78 38.8942 65.285 38.3509C62.8078 37.4507 60.6321 34.5489 60.693 35.1677C61.2155 40.4685 48.4157 41.2874 48.2864 38.2174C48.2321 36.9289 56.2543 29.6662 61.2665 27.5997ZM67.1749 30.0756C65.029 30.0756 63.2893 31.7959 63.2893 33.918C63.2893 36.0401 65.029 37.7603 67.1749 37.7603C69.3209 37.7603 71.0606 36.0401 71.0606 33.918C71.0606 31.7959 69.3209 30.0756 67.1749 30.0756ZM12.0355 24.7446C21.9373 27.2379 26.5231 35.1541 31.1193 37.7092C34.3174 39.4871 41.7343 39.4871 44.9324 37.7092C49.5286 35.1541 54.1143 27.2379 64.0162 24.7446C63.9166 24.7287 61.237 24.1917 52.7703 29.0467C50.2453 30.4947 48.6836 32.6312 45.044 35.1951C39.7785 38.9045 40.1001 36.702 40.392 29.2088C40.6065 23.7017 19.2911 26.1425 19.0587 26.1175C20.615 24.5268 60.8052 24.3771 59.923 24.3112C47.5008 23.3833 19.656 23.5277 12.0355 24.7446ZM5.29599 22.5972C4.0521 22.5972 3.08889 23.1941 3.08889 23.7576C3.08889 24.321 4.64984 25.2311 6.03891 25.0875C7.42803 24.944 7.82714 24.9848 8.09776 24.7672C8.36833 24.5496 6.53993 22.5972 5.29599 22.5972ZM70.091 22.5972C71.3349 22.5972 72.2981 23.1941 72.2981 23.7576C72.2981 24.321 70.7372 25.2311 69.3481 25.0875C67.9589 24.944 67.5598 24.9848 67.2892 24.7672C67.0186 24.5496 68.847 22.5972 70.091 22.5972ZM70.3057 33.996C70.3057 35.6447 68.9542 36.9812 67.2869 36.9812C66.5841 36.9812 66.9012 36.0715 68.2632 35.2986C68.5909 35.1126 66.7031 34.6526 66.915 34.3163C67.1142 34.0001 68.3421 34.3222 68.4292 33.996C68.5346 33.6016 67.3134 33.226 67.3134 32.8736C67.3134 32.1245 69.3447 33.5018 69.1255 32.9777C68.8624 32.3484 66.3773 31.0108 67.2869 31.0108C68.9542 31.0108 70.3057 32.3473 70.3057 33.996ZM59.0778 35.0196C59.2361 36.4809 58.4212 37.0348 57.6566 37.0348C55.6188 37.0348 58.9194 33.5582 59.0778 35.0196ZM19.8777 14.4703C16.7635 16.0941 13.9041 18.8433 10.1196 23.3439C28.3061 21.9 47.7455 21.9 65.9321 23.3439C62.1475 18.8433 59.2882 16.0941 56.174 14.4703C56.0694 14.4157 62.4039 19.6156 63.5011 22.3313C54.1797 20.7754 44.5753 20.5284 37.5283 20.5347C38.6829 12.187 38.8414 11.5732 36.8749 20.5245C34.5007 20.5351 32.3998 20.5718 30.658 20.5909C31.0936 17.9798 31.993 15.6163 32.3163 14.4988C31.6685 14.6453 30.7393 14.7035 30.2469 15.0859C29.6487 15.9082 29.2322 18.2289 28.4685 20.5344C26.8073 20.5241 25.8336 20.5545 24.1915 20.5423C24.3813 19.1344 25.5053 17.3181 26.8717 15.5532C25.7102 15.7165 18.6055 16.9112 14.6868 21.7318C20.519 10.4331 52.7421 13.2979 52.0248 13.1502C42.6352 11.217 24.7619 11.9234 19.8777 14.4703ZM8.78384 36.9032C10.4511 36.9032 11.8027 35.5667 11.8027 33.918C11.8027 32.2693 10.4511 30.9328 8.78384 30.9328C7.8742 30.9328 10.3593 32.2704 10.6224 32.8997C10.8416 33.4238 8.81025 32.0464 8.81025 32.7956C8.81025 33.148 10.0315 33.5236 9.92615 33.918C9.83903 34.2442 8.61116 33.9221 8.41188 34.2383C8.19999 34.5746 10.0878 35.0346 9.76009 35.2206C8.39809 35.9935 8.08103 36.9032 8.78384 36.9032ZM19.6949 34.9328C19.5365 33.4715 16.2359 36.948 18.2738 36.948C19.0383 36.948 19.8532 36.3942 19.6949 34.9328ZM14.6922 27.5997C13.6068 27.1522 10.3544 26.2716 7.22998 26.6612C0.0209556 27.5602 -0.0787765 36.7492 2.70499 38.6966C3.03957 38.9305 3.64349 39.0423 5.03001 39.0422C6.7067 39.0421 1.6745 37.3021 2.56439 32.7022C3.45607 28.0929 8.26788 29.2019 7.9488 29.2588C7.04927 29.4192 6.19982 29.8529 5.28244 30.6842C3.98015 31.8641 3.1848 35.2029 5.35751 37.2307C7.29749 39.0412 9.1788 38.8942 10.6737 38.3509C13.151 37.4507 15.3267 34.5489 15.2658 35.1677C14.7433 40.4685 27.543 41.2874 27.6724 38.2174C27.7266 36.9289 19.7045 29.6662 14.6922 27.5997ZM8.78384 30.0756C10.9298 30.0756 12.6695 31.7959 12.6695 33.918C12.6695 36.0401 10.9298 37.7603 8.78384 37.7603C6.63782 37.7603 4.89815 36.0401 4.89815 33.918C4.89815 31.7959 6.63782 30.0756 8.78384 30.0756Z" fill="#FF6857"/>
<path fill-rule="evenodd" clip-rule="evenodd" d="M93.0711 15.733V10.1003C93.0711 9.4293 92.8685 8.91439 92.4635 8.55548C92.0585 8.19666 91.5584 8.01718 90.9632 8.01718H86.2266L85.6067 11.177H89.0537C89.2686 11.177 89.3761 11.2862 89.3761 11.5046V18.4903H86.4023V21.4161H89.3782V28.0741C89.3782 28.2926 89.2707 28.4018 89.0558 28.4018H85.6088L86.2535 31.5615H90.271C91.3125 31.5615 92.0399 31.3587 92.4533 30.953C92.8666 30.5472 93.0733 29.8764 93.0733 28.9401C93.0733 24.5377 93.0733 20.1354 93.0733 15.733H93.0711ZM146.691 36.3181C146.225 36.3181 145.846 36.6935 145.846 37.1564C145.846 37.6192 146.225 37.9946 146.691 37.9946C147.158 37.9946 147.537 37.6192 147.537 37.1564C147.537 36.6935 147.158 36.3181 146.691 36.3181ZM85.5999 37.0517C85.5999 38.1035 86.2114 38.6315 87.0455 38.6315C87.3778 38.6315 87.6205 38.5468 87.8431 38.3806C87.9827 38.2802 88.0758 38.1975 88.0758 38.0847C88.0758 37.9699 87.9668 37.8808 87.8564 37.8808C87.7833 37.8808 87.7035 37.9341 87.6238 38C87.4178 38.1714 87.2616 38.2248 87.0455 38.2248C86.7264 38.2248 86.4706 38.1088 86.2978 37.8808C86.145 37.6769 86.085 37.4417 86.085 37.0527C86.085 36.6617 86.145 36.4264 86.2978 36.2226C86.4706 35.9915 86.7264 35.8786 87.0455 35.8786C87.2616 35.8786 87.4078 35.9319 87.6238 36.1013C87.7335 36.1881 87.7833 36.2226 87.8564 36.2226C87.9668 36.2226 88.0758 36.1335 88.0758 36.0187C88.0758 35.9058 87.9993 35.8419 87.8431 35.7259C87.6072 35.5503 87.3778 35.4719 87.0455 35.4719C86.2114 35.4719 85.5999 35.9967 85.5999 37.0527V37.0517ZM88.7581 37.7187C88.7581 37.9686 88.8512 38.1944 89.0086 38.3481C89.2145 38.5468 89.487 38.6315 89.939 38.6315C90.3599 38.6315 90.6092 38.5499 90.8751 38.3042C90.8751 38.3847 90.8731 38.4518 90.9184 38.5217C91.0016 38.6527 91.2343 38.6524 91.3181 38.5228C91.3547 38.4663 91.3614 38.4224 91.3614 38.3126V36.5038C91.3614 35.8305 90.9217 35.4719 90.0775 35.4719C89.7296 35.4719 89.4738 35.5314 89.2378 35.6737C89.079 35.7719 88.8014 35.9592 88.9841 36.163C89.0825 36.2584 89.2406 36.2169 89.3342 36.1379C89.5535 35.9496 89.7396 35.865 90.0742 35.865C90.6458 35.865 90.8784 36.1065 90.8784 36.5759V36.8258H89.8891C89.178 36.8258 88.7581 37.1771 88.7581 37.7197V37.7187ZM89.2345 37.7166C89.2345 37.3622 89.4738 37.1709 89.9423 37.1709H90.8784V37.5002C90.8784 37.7637 90.8219 37.9331 90.7089 38.0365C90.5062 38.2195 90.2603 38.2446 89.9889 38.2446C89.4804 38.2446 89.2345 38.0658 89.2345 37.7156V37.7166ZM94.1175 38.0429C94.2637 38.0429 94.3436 37.9456 94.41 37.8264L95.2142 36.3679V38.3126C95.2142 38.4224 95.2209 38.4663 95.2574 38.5228C95.3413 38.6523 95.5723 38.6523 95.6562 38.5228C95.6927 38.4663 95.6994 38.4224 95.6994 38.3126V35.7877C95.6994 35.6684 95.6696 35.5994 95.6164 35.5492C95.5731 35.5084 95.5133 35.4834 95.4402 35.4834C95.2907 35.4834 95.2076 35.5837 95.1245 35.7311L94.1175 37.5472L93.1106 35.7311C93.0275 35.5837 92.9444 35.4834 92.7949 35.4834C92.7218 35.4834 92.6619 35.5084 92.6188 35.5492C92.5655 35.5994 92.5356 35.6684 92.5356 35.7877V38.3126C92.5356 38.4224 92.5423 38.4663 92.5788 38.5228C92.6628 38.6523 92.8937 38.6523 92.9777 38.5228C93.0142 38.4663 93.0208 38.4224 93.0208 38.3126V36.3679L93.8251 37.8264C93.8915 37.9456 93.9713 38.0429 94.1175 38.0429ZM98.0656 38.2248C97.823 38.2248 97.6336 38.1526 97.4741 38.002C97.2448 37.7857 97.2082 37.4093 97.2082 37.0517C97.2082 36.6941 97.2448 36.3208 97.4741 36.1045C97.6336 35.9539 97.823 35.8786 98.0656 35.8786C98.3083 35.8786 98.4976 35.9539 98.6572 36.1045C98.8865 36.3208 98.9231 36.6941 98.9231 37.0517C98.9231 37.4093 98.8865 37.7857 98.6572 38.002C98.4976 38.1526 98.3083 38.2248 98.0656 38.2248ZM98.0656 35.4708C97.6668 35.4708 97.3511 35.6088 97.1251 35.8221C96.7862 36.1483 96.7231 36.5748 96.7231 37.0517C96.7231 37.5253 96.7862 37.955 97.1251 38.2812C97.3511 38.4945 97.6668 38.6325 98.0656 38.6325C98.4644 38.6325 98.7801 38.4945 99.0061 38.2812C99.3451 37.955 99.4083 37.5253 99.4083 37.0517C99.4083 36.5748 99.3451 36.1483 99.0061 35.8221C98.7801 35.6088 98.4644 35.4708 98.0656 35.4708ZM101.602 38.2248C101.359 38.2248 101.17 38.1526 101.01 38.002C100.781 37.7857 100.744 37.4093 100.744 37.0517C100.744 36.6941 100.781 36.3208 101.01 36.1045C101.17 35.9539 101.359 35.8786 101.602 35.8786C101.844 35.8786 102.034 35.9539 102.193 36.1045C102.422 36.3208 102.459 36.6941 102.459 37.0517C102.459 37.4093 102.422 37.7857 102.193 38.002C102.034 38.1526 101.844 38.2248 101.602 38.2248ZM101.602 35.4708C101.203 35.4708 100.887 35.6088 100.661 35.8221C100.322 36.1483 100.259 36.5748 100.259 37.0517C100.259 37.5253 100.322 37.955 100.661 38.2812C100.887 38.4945 101.203 38.6325 101.602 38.6325C102 38.6325 102.316 38.4945 102.542 38.2812C102.881 37.955 102.944 37.5253 102.944 37.0517C102.944 36.5748 102.881 36.1483 102.542 35.8221C102.316 35.6088 102 35.4708 101.602 35.4708ZM103.842 36.785C103.842 37.1803 103.875 37.5504 103.965 37.8045C104.151 38.3408 104.579 38.6325 105.187 38.6325C105.554 38.6325 105.883 38.507 106.106 38.2938C106.383 38.0271 106.506 37.6695 106.506 37.0548C106.506 36.183 106.205 35.5084 105.247 35.5084C104.835 35.5084 104.47 35.6747 104.274 35.9664C104.277 35.4771 104.31 35.0965 104.586 34.8414C104.885 34.5706 105.498 34.5235 105.98 34.5235C106.099 34.5235 106.149 34.5141 106.196 34.4859C106.325 34.4044 106.325 34.2224 106.196 34.1409C106.149 34.1126 106.099 34.1032 105.98 34.1032C105.387 34.1032 104.682 34.1942 104.307 34.5141C103.861 34.8916 103.842 35.3234 103.842 36.785ZM106.029 37.0736C106.029 37.5598 105.953 37.8201 105.777 37.9989C105.627 38.1494 105.41 38.231 105.184 38.231C104.958 38.231 104.742 38.1526 104.593 38.002C104.417 37.8233 104.32 37.5598 104.32 37.0736C104.32 36.5874 104.417 36.3052 104.593 36.1263C104.742 35.9758 104.958 35.8974 105.184 35.8974C105.41 35.8974 105.627 35.9789 105.777 36.1295C105.953 36.3083 106.029 36.5874 106.029 37.0736ZM107.334 37.0517C107.334 38.1035 107.946 38.6315 108.78 38.6315C109.112 38.6315 109.355 38.5468 109.578 38.3806C109.717 38.2802 109.81 38.1975 109.81 38.0847C109.81 37.9699 109.701 37.8808 109.591 37.8808C109.518 37.8808 109.438 37.9341 109.358 38C109.152 38.1714 108.996 38.2248 108.78 38.2248C108.461 38.2248 108.205 38.1088 108.032 37.8808C107.879 37.6769 107.82 37.4417 107.82 37.0527C107.82 36.6617 107.879 36.4264 108.032 36.2226C108.205 35.9915 108.461 35.8786 108.78 35.8786C108.996 35.8786 109.142 35.9319 109.358 36.1013C109.468 36.1881 109.518 36.2226 109.591 36.2226C109.701 36.2226 109.81 36.1335 109.81 36.0187C109.81 35.9058 109.734 35.8419 109.578 35.7259C109.342 35.5503 109.112 35.4719 108.78 35.4719C107.946 35.4719 107.334 35.9967 107.334 37.0527V37.0517ZM111.582 35.9162H112.718V38.3126C112.718 38.4224 112.725 38.4663 112.761 38.5228C112.845 38.6523 113.076 38.6523 113.16 38.5228C113.197 38.4663 113.203 38.4224 113.203 38.3126V35.7845C113.203 35.7155 113.203 35.6339 113.137 35.5712C113.07 35.5084 112.984 35.5084 112.911 35.5084H111.409C111.336 35.5084 111.249 35.5084 111.183 35.5712C111.116 35.6339 111.116 35.7155 111.116 35.7845V36.8384C111.116 37.9456 110.814 38.1683 110.515 38.1997C110.442 38.2059 110.415 38.2091 110.378 38.231C110.251 38.3045 110.257 38.4842 110.378 38.5604C110.418 38.5824 110.468 38.5949 110.545 38.5949C111.16 38.5949 111.582 38.2248 111.582 36.9638V35.9162ZM115.227 37.9832L114.436 35.7029C114.393 35.5806 114.337 35.4834 114.197 35.4834C114.104 35.4834 114.008 35.5398 113.978 35.6182C113.954 35.6809 113.964 35.7468 113.998 35.8409L114.998 38.5478L114.792 39.1312C114.689 39.4229 114.536 39.5108 114.297 39.5108C114.162 39.5108 114.044 39.5607 114.044 39.7146C114.044 39.8937 114.198 39.9185 114.343 39.9185C114.76 39.9185 115.038 39.7252 115.177 39.3383L116.46 35.8409C116.493 35.7468 116.503 35.6809 116.48 35.6182C116.45 35.5398 116.354 35.4834 116.261 35.4834C116.121 35.4834 116.065 35.5806 116.022 35.7029L115.227 37.9832ZM118.8 36.8018H118.597L117.5 35.6182C117.407 35.5178 117.354 35.4834 117.271 35.4834C117.163 35.4834 117.052 35.5723 117.052 35.6841C117.052 35.7405 117.072 35.797 117.168 35.8953L118.202 36.968L117.055 38.2091C116.962 38.3094 116.939 38.3628 116.939 38.4192C116.939 38.531 117.05 38.6199 117.158 38.6199C117.241 38.6199 117.294 38.5855 117.387 38.4851L118.594 37.1887H118.8V38.3126C118.8 38.4224 118.806 38.4663 118.843 38.5228C118.927 38.6523 119.158 38.6523 119.242 38.5228C119.278 38.4663 119.285 38.4224 119.285 38.3126V37.1887H119.491L120.697 38.4851C120.79 38.5855 120.844 38.6199 120.927 38.6199C121.034 38.6199 121.146 38.531 121.146 38.4192C121.146 38.3628 121.123 38.3094 121.03 38.2091L119.883 36.968L120.917 35.8953C121.013 35.797 121.033 35.7405 121.033 35.6841C121.033 35.5723 120.921 35.4834 120.814 35.4834C120.731 35.4834 120.677 35.5178 120.584 35.6182L119.488 36.8018H119.285V35.7877C119.285 35.6778 119.278 35.6339 119.242 35.5775C119.156 35.4518 118.927 35.4515 118.843 35.5806C118.806 35.637 118.8 35.6809 118.8 35.7908V36.8018ZM124.124 36.2173V38.3126C124.124 38.4224 124.13 38.4663 124.167 38.5228C124.251 38.6523 124.482 38.6523 124.566 38.5228C124.602 38.4663 124.609 38.4224 124.609 38.3126V35.7877C124.609 35.6099 124.533 35.4834 124.343 35.4834C124.223 35.4834 124.137 35.5586 124.037 35.6998L122.495 37.8829V35.7877C122.495 35.6778 122.489 35.6339 122.452 35.5775C122.366 35.4519 122.137 35.4515 122.053 35.5806C122.017 35.637 122.01 35.6809 122.01 35.7908V38.3157C122.01 38.4934 122.086 38.6199 122.276 38.6199C122.396 38.6199 122.482 38.5447 122.582 38.4036L124.124 36.2173ZM127.381 38.5949C127.992 38.5949 128.358 38.2687 128.358 37.7417C128.358 37.3653 128.138 37.1207 127.786 36.9952C128.118 36.8823 128.304 36.6502 128.304 36.3177C128.304 35.8284 127.919 35.5084 127.341 35.5084H126.104C126.031 35.5084 125.945 35.5084 125.878 35.5712C125.812 35.6339 125.812 35.7155 125.812 35.7845V38.3188C125.812 38.3878 125.812 38.4694 125.878 38.5322C125.945 38.5949 126.031 38.5949 126.104 38.5949H127.381ZM127.833 36.3553C127.833 36.6502 127.633 36.8196 127.254 36.8196H126.297V35.8974H127.254C127.627 35.8974 127.833 36.0605 127.833 36.3553ZM127.886 37.6978C127.886 38.0052 127.666 38.2059 127.294 38.2059H126.297V37.1897H127.294C127.666 37.1897 127.886 37.3904 127.886 37.6978ZM129.116 37.7187C129.116 37.9686 129.21 38.1944 129.367 38.3481C129.573 38.5468 129.845 38.6315 130.297 38.6315C130.718 38.6315 130.968 38.5499 131.233 38.3042C131.233 38.3847 131.231 38.4518 131.277 38.5217C131.36 38.6527 131.593 38.6524 131.677 38.5228C131.713 38.4663 131.72 38.4224 131.72 38.3126V36.5038C131.72 35.8305 131.28 35.4719 130.436 35.4719C130.088 35.4719 129.832 35.5314 129.596 35.6737C129.437 35.7718 129.16 35.9591 129.342 36.163C129.441 36.2584 129.599 36.2169 129.693 36.1379C129.912 35.9496 130.098 35.865 130.433 35.865C131.004 35.865 131.237 36.1065 131.237 36.5759V36.8258H130.248C129.536 36.8258 129.116 37.1771 129.116 37.7197V37.7187ZM129.593 37.7166C129.593 37.3622 129.832 37.1709 130.301 37.1709H131.237V37.5002C131.237 37.7637 131.18 37.9331 131.067 38.0365C130.865 38.2195 130.619 38.2446 130.347 38.2446C129.839 38.2446 129.593 38.0658 129.593 37.7156V37.7166ZM134.954 37.2022V38.3115C134.954 38.4214 134.961 38.4652 134.998 38.5217C135.081 38.6527 135.313 38.6527 135.397 38.5217C135.433 38.4652 135.44 38.4214 135.44 38.3115V35.7897C135.44 35.6799 135.433 35.637 135.397 35.5806C135.313 35.451 135.082 35.451 134.998 35.5806C134.961 35.637 134.954 35.6799 134.954 35.7897V36.7945H133.379V35.7897C133.379 35.6799 133.373 35.637 133.336 35.5806C133.252 35.451 133.021 35.451 132.937 35.5806C132.901 35.637 132.894 35.6799 132.894 35.7897V38.3115C132.894 38.4214 132.901 38.4652 132.937 38.5217C133.021 38.6527 133.253 38.6527 133.336 38.5217C133.373 38.4652 133.379 38.4214 133.379 38.3115V37.2022H134.954ZM138.76 36.2173V38.3126C138.76 38.4224 138.766 38.4663 138.803 38.5228C138.887 38.6523 139.118 38.6523 139.202 38.5228C139.238 38.4663 139.245 38.4224 139.245 38.3126V35.7877C139.245 35.6099 139.169 35.4834 138.979 35.4834C138.859 35.4834 138.773 35.5586 138.673 35.6998L137.131 37.8829V35.7877C137.131 35.6778 137.125 35.6339 137.088 35.5775C137.002 35.4519 136.773 35.4515 136.689 35.5806C136.653 35.637 136.646 35.6809 136.646 35.7908V38.3157C136.646 38.4934 136.722 38.6199 136.912 38.6199C137.032 38.6199 137.118 38.5447 137.218 38.4036L138.76 36.2173ZM142.672 37.1646C142.75 37.1646 142.823 37.1646 142.886 37.105C142.949 37.0453 142.953 36.9607 142.953 36.8979C142.946 36.0406 142.44 35.4708 141.611 35.4708C140.789 35.4708 140.263 36.0312 140.263 37.0486C140.263 38.1432 140.829 38.6325 141.694 38.6325C142.029 38.6325 142.31 38.5635 142.506 38.4537C142.636 38.3784 142.846 38.2405 142.846 38.1025C142.846 37.9989 142.743 37.9038 142.639 37.9038C142.566 37.9038 142.516 37.932 142.413 38.0146C142.218 38.1714 141.966 38.2373 141.714 38.2373C141.084 38.2373 140.746 37.841 140.746 37.1646H142.672ZM140.746 36.8196C140.756 36.601 140.776 36.4881 140.849 36.3198C140.969 36.0406 141.257 35.8597 141.611 35.8597C141.966 35.8597 142.25 36.0375 142.373 36.3198C142.446 36.4881 142.466 36.601 142.476 36.8196H140.746ZM152.848 35.7123C152.848 35.637 152.815 35.5806 152.755 35.543C152.709 35.5147 152.659 35.5084 152.553 35.5084H150.439C150.333 35.5084 150.283 35.5147 150.236 35.543C150.112 35.6214 150.112 35.8032 150.236 35.8817C150.283 35.91 150.333 35.9162 150.439 35.9162H151.253V38.3126C151.253 38.4224 151.26 38.4663 151.296 38.5228C151.38 38.6523 151.611 38.6523 151.695 38.5228C151.732 38.4663 151.739 38.4224 151.739 38.3126V35.9162H152.553C152.659 35.9162 152.709 35.91 152.755 35.8817C152.815 35.8441 152.848 35.7877 152.848 35.7123ZM155.791 37.1646C155.868 37.1646 155.941 37.1646 156.004 37.105C156.068 37.0453 156.071 36.9607 156.071 36.8979C156.064 36.0406 155.558 35.4708 154.729 35.4708C153.907 35.4708 153.381 36.0312 153.381 37.0486C153.381 38.1432 153.947 38.6325 154.812 38.6325C155.147 38.6325 155.428 38.5635 155.625 38.4537C155.754 38.3784 155.965 38.2405 155.965 38.1025C155.965 37.9989 155.862 37.9038 155.757 37.9038C155.684 37.9038 155.635 37.932 155.531 38.0146C155.337 38.1714 155.084 38.2373 154.832 38.2373C154.202 38.2373 153.864 37.841 153.864 37.1646H155.791ZM153.864 36.8196C153.874 36.601 153.894 36.4881 153.967 36.3198C154.087 36.0406 154.375 35.8597 154.729 35.8597C155.084 35.8597 155.369 36.0375 155.492 36.3198C155.565 36.4881 155.585 36.601 155.595 36.8196H153.864ZM157.807 37.3883L158.491 38.4443C158.568 38.5604 158.631 38.6199 158.734 38.6199C158.852 38.6199 158.977 38.5257 158.977 38.4004C158.977 38.3471 158.95 38.2906 158.894 38.2091L158.109 37.0475L158.887 35.8974C158.94 35.8158 158.97 35.7594 158.97 35.7029C158.97 35.5805 158.843 35.4834 158.727 35.4834C158.621 35.4834 158.561 35.543 158.485 35.659L157.807 36.7056L157.129 35.659C157.052 35.543 156.993 35.4834 156.886 35.4834C156.771 35.4834 156.644 35.5806 156.644 35.7029C156.644 35.7594 156.674 35.8158 156.727 35.8974L157.501 37.0475L156.72 38.2091C156.664 38.2906 156.637 38.3471 156.637 38.4004C156.637 38.5257 156.761 38.6199 156.88 38.6199C156.983 38.6199 157.046 38.5604 157.122 38.4443L157.807 37.3883ZM160.957 38.2248C160.715 38.2248 160.525 38.1526 160.366 38.002C160.136 37.7857 160.1 37.4093 160.1 37.0517C160.1 36.6941 160.136 36.3208 160.366 36.1045C160.525 35.9539 160.715 35.8786 160.957 35.8786C161.2 35.8786 161.389 35.9539 161.549 36.1045C161.778 36.3208 161.815 36.6941 161.815 37.0517C161.815 37.4093 161.778 37.7857 161.549 38.002C161.389 38.1526 161.2 38.2248 160.957 38.2248ZM160.957 35.4708C160.558 35.4708 160.243 35.6088 160.017 35.8221C159.678 36.1483 159.615 36.5748 159.615 37.0517C159.615 37.5253 159.678 37.955 160.017 38.2812C160.243 38.4945 160.558 38.6325 160.957 38.6325C161.356 38.6325 161.672 38.4945 161.898 38.2812C162.237 37.955 162.3 37.5253 162.3 37.0517C162.3 36.5748 162.237 36.1483 161.898 35.8221C161.672 35.6088 161.356 35.4708 160.957 35.4708ZM163.144 37.0517C163.144 38.1035 163.755 38.6315 164.59 38.6315C164.922 38.6315 165.165 38.5468 165.387 38.3806C165.527 38.2802 165.62 38.1975 165.62 38.0847C165.62 37.9699 165.511 37.8808 165.401 37.8808C165.327 37.8808 165.248 37.9341 165.168 38C164.962 38.1714 164.806 38.2248 164.59 38.2248C164.271 38.2248 164.015 38.1088 163.842 37.8808C163.689 37.6769 163.629 37.4417 163.629 37.0527C163.629 36.6617 163.689 36.4264 163.842 36.2226C164.015 35.9915 164.271 35.8786 164.59 35.8786C164.806 35.8786 164.952 35.9319 165.168 36.1013C165.278 36.1881 165.327 36.2226 165.401 36.2226C165.511 36.2226 165.62 36.1335 165.62 36.0187C165.62 35.9058 165.543 35.8419 165.387 35.7259C165.151 35.5503 164.922 35.4719 164.59 35.4719C163.755 35.4719 163.144 35.9967 163.144 37.0527V37.0517ZM168.162 38.0429C168.308 38.0429 168.388 37.9456 168.455 37.8264L169.259 36.3679V38.3126C169.259 38.4224 169.266 38.4663 169.302 38.5228C169.386 38.6523 169.617 38.6523 169.701 38.5228C169.737 38.4663 169.744 38.4224 169.744 38.3126V35.7877C169.744 35.6684 169.714 35.5994 169.661 35.5492C169.618 35.5084 169.558 35.4834 169.485 35.4834C169.335 35.4834 169.252 35.5837 169.169 35.7311L168.162 37.5472L167.155 35.7311C167.072 35.5837 166.989 35.4834 166.84 35.4834C166.766 35.4834 166.707 35.5084 166.663 35.5492C166.61 35.5994 166.58 35.6684 166.58 35.7877V38.3126C166.58 38.4224 166.587 38.4663 166.624 38.5228C166.707 38.6523 166.938 38.6523 167.022 38.5228C167.059 38.4663 167.065 38.4224 167.065 38.3126V36.3679L167.87 37.8264C167.936 37.9456 168.016 38.0429 168.162 38.0429ZM172.11 38.2248C171.868 38.2248 171.678 38.1526 171.519 38.002C171.289 37.7857 171.253 37.4093 171.253 37.0517C171.253 36.6941 171.289 36.3208 171.519 36.1045C171.678 35.9539 171.868 35.8786 172.11 35.8786C172.353 35.8786 172.542 35.9539 172.702 36.1045C172.931 36.3208 172.968 36.6941 172.968 37.0517C172.968 37.4093 172.931 37.7857 172.702 38.002C172.542 38.1526 172.353 38.2248 172.11 38.2248ZM172.11 35.4708C171.711 35.4708 171.396 35.6088 171.17 35.8221C170.831 36.1483 170.768 36.5748 170.768 37.0517C170.768 37.5253 170.831 37.955 171.17 38.2812C171.396 38.4945 171.711 38.6325 172.11 38.6325C172.509 38.6325 172.825 38.4945 173.051 38.2812C173.39 37.955 173.453 37.5253 173.453 37.0517C173.453 36.5748 173.39 36.1483 173.051 35.8221C172.825 35.6088 172.509 35.4708 172.11 35.4708ZM176.67 35.7123C176.67 35.637 176.637 35.5806 176.577 35.543C176.53 35.5147 176.48 35.5084 176.374 35.5084H174.26C174.154 35.5084 174.104 35.5147 174.058 35.543C173.933 35.6214 173.933 35.8033 174.058 35.8817C174.104 35.91 174.154 35.9162 174.26 35.9162H175.075V38.3126C175.075 38.4224 175.081 38.4663 175.118 38.5228C175.202 38.6523 175.433 38.6523 175.517 38.5228C175.553 38.4663 175.56 38.4224 175.56 38.3126V35.9162H176.374C176.48 35.9162 176.53 35.91 176.577 35.8817C176.637 35.8441 176.67 35.7877 176.67 35.7123ZM180 37.0517C180 36.5561 179.927 36.0542 179.594 35.7405C179.421 35.5775 179.136 35.4708 178.797 35.4708C178.431 35.4708 178.145 35.5524 177.873 35.8786C177.873 35.7789 177.886 35.6668 177.83 35.5806C177.746 35.451 177.515 35.451 177.431 35.5806C177.394 35.637 177.388 35.6809 177.388 35.7908V39.6927C177.388 39.8025 177.394 39.8463 177.431 39.9028C177.515 40.0324 177.746 40.0324 177.83 39.9028C177.866 39.8463 177.873 39.8025 177.873 39.6927V38.2373C178.145 38.5572 178.438 38.6325 178.797 38.6325C179.136 38.6325 179.421 38.5259 179.594 38.3628C179.927 38.0491 180 37.5472 180 37.0517ZM177.873 37.0517C177.873 36.4494 177.979 35.8786 178.694 35.8786C179.408 35.8786 179.515 36.4494 179.515 37.0517C179.515 37.6539 179.408 38.2248 178.694 38.2248C177.979 38.2248 177.873 37.6539 177.873 37.0517ZM167.271 31.5615V11.1766H169.677L168.784 8.01685H162.138L161.195 11.1766H163.601V31.5615H167.271ZM170.669 10.2173V29.1507C170.669 29.4784 170.71 29.7866 170.793 30.0752C170.974 30.7077 171.405 31.1208 172.008 31.3626C172.338 31.4952 172.752 31.5615 173.248 31.5615H177.414C177.91 31.5615 178.323 31.4952 178.654 31.3626C179.256 31.1209 179.688 30.7076 179.869 30.0752C179.952 29.7866 179.993 29.4784 179.993 29.1507V10.2173C179.993 9.54633 179.799 9.01195 179.41 8.61401C179.022 8.21617 178.406 8.01718 177.563 8.01718H173.099C172.256 8.01718 171.64 8.21617 171.251 8.61401C170.863 9.01195 170.669 9.54633 170.669 10.2173ZM174.289 11.3174C174.289 11.0989 174.397 10.9897 174.612 10.9897H176.025C176.24 10.9897 176.348 11.0989 176.348 11.3174V28.2379C176.348 28.3627 176.327 28.4525 176.285 28.5071C176.244 28.5617 176.149 28.5891 176 28.5891H174.636C174.488 28.5891 174.393 28.5617 174.351 28.5071C174.31 28.4525 174.289 28.3627 174.289 28.2379V11.3174ZM98.2313 18.584H98.7769L100.612 11.3048H104.332L102.174 19.1223L104.307 28.2739H100.364L98.9506 21.2756H98.2313V28.2739H94.5611V11.3048H98.2313V18.584ZM108.126 28.2739C107.084 28.2739 106.357 28.071 105.944 27.6653C105.53 27.2596 105.324 26.5887 105.324 25.6525V13.3879C105.324 12.717 105.526 12.202 105.931 11.8431C106.336 11.4843 106.837 11.3048 107.432 11.3048H112.168L112.788 14.4646H109.341C109.126 14.4646 109.019 14.5739 109.019 14.7923V24.7864C109.019 25.0049 109.126 25.1141 109.341 25.1141H112.788L112.144 28.2739H108.126ZM123.328 28.2739H119.658V14.2305H117.698V28.2739H114.028V11.3048H123.328V28.2739ZM128.387 14.2774V20.9479H130.172C130.321 20.9479 130.416 20.9206 130.457 20.866C130.499 20.8115 130.519 20.7216 130.519 20.5969V14.6051C130.519 14.3865 130.412 14.2774 130.197 14.2774H128.387ZM131.883 11.3048C132.594 11.3048 133.127 11.4921 133.483 11.8666C133.838 12.241 134.016 12.7404 134.016 13.3646V21.4862C134.016 21.8139 133.979 22.1143 133.904 22.3874C133.738 22.9999 133.285 23.3746 132.702 23.581C132.371 23.6981 131.958 23.7566 131.462 23.7566H128.387V28.2739H124.816V11.3048H131.883ZM135.429 11.3048H142.423L143.043 14.4646H139.125V18.4903H142.1V21.4161H139.125V25.1141H142.894L142.274 28.2739H135.429V11.3048ZM147.085 28.2739C146.043 28.2739 145.316 28.071 144.903 27.6653C144.489 27.2596 144.283 26.5887 144.283 25.6525V13.3879C144.283 12.717 144.485 12.202 144.89 11.8431C145.295 11.4843 145.795 11.3048 146.391 11.3048H151.127L151.747 14.4646H148.3C148.085 14.4646 147.978 14.5739 147.978 14.7923V24.7864C147.978 25.0049 148.085 25.1141 148.3 25.1141H151.747L151.102 28.2739H147.085ZM155.789 28.2739C154.748 28.2739 154.02 28.071 153.607 27.6653C153.194 27.2596 152.987 26.5887 152.987 25.6525V13.3879C152.987 12.717 153.19 12.202 153.595 11.8431C154 11.4843 154.5 11.3048 155.095 11.3048H159.831L160.451 14.4646H157.004C156.79 14.4646 156.682 14.5739 156.682 14.7923V24.7864C156.682 25.0049 156.79 25.1141 157.004 25.1141H160.451L159.807 28.2739H155.789Z" fill="#353535"/>
</g>
<defs>
<clipPath id="clip0">
<rect width="180" height="40" fill="white"/>
</clipPath>
</defs>
</svg>
