<svg width="62" height="32" viewBox="0 0 62 32" fill="none" xmlns="http://www.w3.org/2000/svg">
<path d="M47.8023 11.4053C48.6719 10.1241 48.663 9.54578 48.6008 8.59617C48.3574 4.8725 49.8012 1.10401 53.642 0.595509C52.1413 2.78268 49.5902 5.51608 53.7578 7.63141C58.8493 10.2157 59.6138 6.1846 60.7977 3.56607C62.1389 5.08703 62.1048 6.74715 61.2524 8.59738C59.5184 12.361 55.7002 9.28809 50.6422 13.5693C50.9813 13.8738 51.3261 14.1983 51.6785 14.5439C53.1312 13.3368 54.6585 13.0568 56.13 12.7874C58.3607 12.3789 60.467 11.9933 62.0353 8.58925C63.0101 6.47328 62.3353 3.98964 60.7592 2.32336C60.2788 3.18124 59.8012 4.04112 59.3178 4.89733C58.4457 6.45491 56.4059 7.04373 54.7869 6.20456L54.7866 6.20452C53.1677 5.36528 52.5556 3.40268 53.4279 1.84487L54.4552 0.00998437L54.2097 0.0347403C52.8605 0.170955 51.6092 0.64657 50.6068 1.39397C48.4501 3.00201 47.8553 5.79013 48.0191 8.29271C48.0779 9.19322 48.1202 9.84447 47.2857 11.0978C47.4586 11.1963 47.6307 11.2988 47.8023 11.4053ZM14.6997 11.4244C13.8171 10.1299 13.8256 9.55039 13.8881 8.59621C14.1316 4.8725 12.6878 1.10401 8.84691 0.595509C10.3476 2.78265 12.8987 5.51612 8.73111 7.63144C3.6396 10.2158 2.87513 6.1846 1.69117 3.56611C0.349999 5.08706 0.384105 6.74715 1.23656 8.59738C2.97313 12.3667 6.80035 9.27864 11.8699 13.5888C11.5308 13.8936 11.1863 14.2183 10.8343 14.5637C9.37446 13.3398 7.83849 13.0584 6.35892 12.7874C4.12816 12.379 2.02193 11.9933 0.453599 8.58925C-0.521259 6.47325 0.153637 3.98964 1.7297 2.32332C2.2101 3.18124 2.68774 4.04112 3.17109 4.89733C4.04324 6.45488 6.08296 7.04373 7.70199 6.20452H7.7023C9.32117 5.36528 9.93333 3.40272 9.06102 1.84487L8.03372 0.00998437L8.27919 0.0347403C9.6284 0.170955 10.8797 0.64657 11.8822 1.39397C14.0388 3.00201 14.6337 5.79013 14.4699 8.29275C14.4107 9.19745 14.3684 9.85063 15.2151 11.1156C15.0427 11.2144 14.8711 11.3173 14.6997 11.4244ZM44.2437 6.96523L43.8163 7.03613C43.7279 7.05026 43.6541 7.1141 43.6283 7.19918C43.5915 7.31619 43.5436 7.43317 43.4847 7.54663C43.4441 7.62464 43.4515 7.71682 43.5031 7.78773L43.7647 8.13518C43.8274 8.22029 43.8163 8.34082 43.7426 8.41173L43.5362 8.6103L43.3299 8.8088C43.2525 8.88326 43.1309 8.89392 43.0424 8.83364L42.6887 8.59254C42.615 8.54291 42.5155 8.53581 42.4381 8.57837C42.3239 8.63865 42.2023 8.68472 42.0807 8.72724C41.9959 8.75563 41.9333 8.82298 41.9185 8.90809L41.8485 9.33C41.8301 9.43281 41.738 9.51081 41.6311 9.51081H41.34H41.0489C40.942 9.51081 40.8462 9.43636 40.8278 9.33356L40.7578 8.92227C40.743 8.83364 40.6767 8.76625 40.5883 8.7379C40.4667 8.70245 40.345 8.65638 40.2308 8.59965C40.1498 8.56064 40.0539 8.56775 39.9802 8.61737L39.6191 8.86909C39.5307 8.92937 39.4054 8.91871 39.3317 8.84781L39.1253 8.64927L38.919 8.45073C38.8416 8.37624 38.8305 8.2593 38.8932 8.17418L39.1401 7.83384C39.1917 7.7629 39.1953 7.6672 39.1548 7.58919C39.0922 7.47217 39.0369 7.3552 38.9963 7.23467C38.9669 7.15311 38.8969 7.08927 38.8047 7.0751L38.3699 7.00775C38.263 6.99002 38.1819 6.90139 38.1819 6.79855V6.51845V6.23838C38.1819 6.13554 38.2593 6.0434 38.3662 6.02567L38.8011 5.95122C38.8895 5.937 38.9632 5.87321 38.989 5.79164C39.0295 5.67111 39.0774 5.55765 39.1364 5.44419C39.1769 5.36622 39.1695 5.274 39.118 5.2031L38.86 4.8592C38.7974 4.77408 38.8084 4.66066 38.8784 4.58265L39.0848 4.38411L39.2911 4.18557C39.3685 4.11111 39.4901 4.10046 39.5786 4.16074L39.936 4.40539C40.0097 4.45501 40.1055 4.46208 40.1866 4.41956C40.3045 4.36283 40.4224 4.31321 40.5477 4.2742C40.6325 4.24585 40.6988 4.17846 40.7136 4.09339L40.7836 3.67503C40.802 3.57223 40.8941 3.49422 41.001 3.49422H41.2921H41.5832C41.6901 3.49422 41.7858 3.56868 41.8043 3.67152L41.8817 4.08984C41.8964 4.17495 41.9628 4.24585 42.0475 4.27069C42.1728 4.30969 42.2907 4.3558 42.4087 4.41249C42.4897 4.4515 42.5855 4.44439 42.6592 4.3948L43.0167 4.14657C43.1051 4.08632 43.2304 4.09694 43.3041 4.16784L43.5105 4.36642L43.7168 4.56496C43.7942 4.63942 43.8052 4.75639 43.7426 4.84147L43.4883 5.18541C43.4368 5.25631 43.4331 5.34849 43.4736 5.42647C43.5289 5.53286 43.5805 5.64277 43.6173 5.75619C43.6468 5.83775 43.7168 5.90159 43.8089 5.91576L44.2474 5.98315C44.3543 6.00088 44.4354 6.08947 44.4354 6.19231V6.47237V6.75248C44.428 6.85528 44.3506 6.94746 44.2437 6.96523ZM42.2207 5.63566C41.7232 5.1464 40.9088 5.1393 40.4003 5.61794C39.8918 6.09654 39.8845 6.88011 40.3819 7.36937C40.8794 7.85863 41.6937 7.86574 42.2023 7.3871C42.7108 6.90846 42.7182 6.12492 42.2207 5.63566ZM24.1744 7.02078L23.7469 7.09169C23.6584 7.10586 23.5848 7.1697 23.559 7.25478C23.5221 7.37175 23.4742 7.48877 23.4153 7.60223C23.3748 7.68024 23.3821 7.77242 23.4337 7.84332L23.6954 8.19078C23.758 8.27589 23.7469 8.39638 23.6732 8.46732L23.4669 8.66586L23.2605 8.8644C23.1831 8.93886 23.0615 8.94952 22.9731 8.88923L22.6193 8.64814C22.5456 8.59851 22.4461 8.59141 22.3687 8.63396C22.2545 8.69421 22.1329 8.74032 22.0113 8.78284C21.9266 8.81122 21.8639 8.87857 21.8492 8.96369L21.7792 9.38556C21.7607 9.4884 21.6686 9.56641 21.5617 9.56641H21.2706H20.9795C20.8727 9.56641 20.7768 9.49195 20.7584 9.38911L20.6884 8.97786C20.6737 8.88923 20.6073 8.82184 20.5189 8.7935C20.3973 8.75805 20.2757 8.71194 20.1615 8.65524C20.0804 8.61624 19.9846 8.62334 19.9109 8.67293L19.5497 8.92469C19.4613 8.98497 19.336 8.97431 19.2623 8.90341L19.056 8.70483L18.8496 8.50633C18.7722 8.43183 18.7612 8.3149 18.8238 8.22978L19.0707 7.88943C19.1223 7.81849 19.126 7.72276 19.0854 7.64478C19.0228 7.52777 18.9675 7.41076 18.927 7.29027C18.8975 7.2087 18.8275 7.14487 18.7354 7.13069L18.3005 7.0633C18.1937 7.04558 18.1126 6.95699 18.1126 6.85415V6.57404V6.29398C18.1126 6.19114 18.19 6.09896 18.2968 6.08123L18.7317 6.00677C18.8201 5.9926 18.8938 5.9288 18.9196 5.84724C18.9602 5.72667 19.0081 5.61325 19.067 5.49979C19.1076 5.42178 19.1002 5.3296 19.0486 5.25869L18.7906 4.91479C18.728 4.82968 18.7391 4.71625 18.8091 4.63824L19.0154 4.43967L19.2218 4.24117C19.2992 4.16671 19.4208 4.15605 19.5092 4.21634L19.8667 4.46095C19.9403 4.51061 20.0361 4.51768 20.1172 4.47516C20.2352 4.41839 20.3531 4.3688 20.4784 4.3298C20.5631 4.30145 20.6295 4.23406 20.6442 4.14898L20.7142 3.73063C20.7326 3.62779 20.8247 3.54982 20.9316 3.54982H21.2227H21.5138C21.6207 3.54982 21.7165 3.62427 21.7349 3.72708L21.8123 4.14543C21.8271 4.23055 21.8934 4.30145 21.9781 4.32628C22.1034 4.36529 22.2213 4.41132 22.3393 4.46809C22.4203 4.50709 22.5162 4.49999 22.5899 4.45036L22.9473 4.20216C23.0358 4.14192 23.161 4.15254 23.2347 4.22344L23.4411 4.42198L23.6474 4.62056C23.7248 4.69501 23.7359 4.81199 23.6732 4.89707L23.419 5.241C23.3674 5.31191 23.3637 5.40405 23.4042 5.48206C23.4595 5.58846 23.5111 5.69836 23.5479 5.81179C23.5774 5.89335 23.6474 5.95719 23.7396 5.97136L24.1781 6.03871C24.2849 6.05644 24.366 6.14507 24.366 6.24791V6.52797V6.80807C24.3586 6.91088 24.2813 7.00306 24.1744 7.02078ZM22.1513 5.69126C21.6538 5.20196 20.8395 5.19489 20.331 5.67353C19.8224 6.15214 19.815 6.93571 20.3126 7.42497C20.81 7.91423 21.6244 7.92133 22.1329 7.44269C22.6414 6.96405 22.6488 6.18052 22.1513 5.69126ZM34.8195 1.0706L34.6009 1.98524C34.5536 2.17679 34.6249 2.37389 34.7825 2.5016C35.0012 2.6795 35.2108 2.87668 35.4014 3.09351C35.5351 3.24095 35.7351 3.31031 35.9358 3.2656L36.9106 3.05232C37.1507 3.00156 37.3971 3.12628 37.4888 3.34172L37.9855 4.51246C38.0824 4.73251 37.9977 4.98226 37.785 5.10819L36.9588 5.60622C36.7849 5.71182 36.6931 5.90008 36.71 6.09431C36.7351 6.37845 36.7354 6.65867 36.7158 6.93495C36.6982 7.13024 36.7937 7.31226 36.9653 7.41575L37.8133 7.92874C38.0203 8.05479 38.1034 8.30375 38.0125 8.52054L37.8326 8.93591C36.2861 8.80726 34.6959 8.72324 33.0718 8.68703C34.0301 7.94352 34.418 6.66215 33.9436 5.5033C33.3536 4.07434 31.6744 3.37554 30.1891 3.93843C28.7037 4.50127 27.9774 6.11699 28.5624 7.5461C28.7521 8.0094 29.0568 8.39597 29.4326 8.68767C27.8151 8.72403 26.2319 8.80812 24.6918 8.93636L24.5203 8.53207C24.4234 8.3121 24.5082 8.06223 24.7207 7.93634L25.5567 7.43332C25.7306 7.32768 25.8226 7.14407 25.8058 6.94996C25.7806 6.66577 25.7803 6.38552 25.8046 6.10448C25.8222 5.90911 25.7266 5.72236 25.5549 5.61884L24.7169 5.11027C24.51 4.98422 24.427 4.73523 24.5226 4.51824L25.0239 3.36144C25.1146 3.14465 25.3573 3.02726 25.6009 3.07609L26.5665 3.29062C26.7656 3.33616 26.9705 3.26756 27.0983 3.116C27.2879 2.90064 27.4931 2.70369 27.7184 2.52046C27.8719 2.39653 27.9436 2.19467 27.8973 2.00614L27.6762 1.08254C27.6233 0.85161 27.7529 0.614482 27.9769 0.526306L29.1938 0.0482332C29.4224 -0.0448944 29.682 0.0366679 29.8129 0.241292L30.3359 1.0455C30.4455 1.21286 30.6413 1.30115 30.8434 1.2897C31.124 1.27076 31.4004 1.27099 31.6777 1.29019C31.8808 1.30708 32.0748 1.21513 32.1824 1.04996L32.7155 0.234073C32.8466 0.0348537 33.1053 -0.0450456 33.3309 0.0471749L34.5332 0.529254C34.7483 0.607528 34.8753 0.840687 34.8195 1.0706Z" fill="#434242"/>
<path fill-rule="evenodd" clip-rule="evenodd" d="M13.2151 28.4633C13.2151 27.5016 14.0255 26.7219 15.0251 26.7219C16.0248 26.7219 16.8352 27.5016 16.8352 28.4633C16.8352 29.4252 16.0248 30.2049 15.0251 30.2049C14.0255 30.2049 13.2151 29.4252 13.2151 28.4633ZM49.24 28.4633C49.24 27.5016 48.4296 26.7219 47.43 26.7219C46.4304 26.7219 45.6199 27.5016 45.6199 28.4633C45.6199 29.4252 46.4304 30.2049 47.43 30.2049C48.4296 30.2049 49.24 29.4252 49.24 28.4633ZM50.3748 22.0799C51.2672 21.7219 53.9415 21.0174 56.5104 21.3291C62.4378 22.0483 62.5198 29.3995 60.2309 30.9574C59.9558 31.1446 59.4593 31.234 58.3193 31.2339C56.9407 31.2338 61.0782 29.8418 60.3466 26.1619C59.6134 22.4745 55.657 23.3617 55.9194 23.4072C56.659 23.5355 57.3574 23.8825 58.1117 24.5475C59.1825 25.4914 59.8364 28.1625 58.05 29.7847C56.4549 31.2331 54.908 31.1155 53.6789 30.6808C51.642 29.9607 49.8531 27.6393 49.9032 28.1343C50.3328 32.3749 39.8085 33.03 39.7022 30.5741C39.6576 29.5432 46.2536 23.7331 50.3748 22.0799ZM55.2328 24.0606C53.4683 24.0606 52.0379 25.4369 52.0379 27.1345C52.0379 28.8322 53.4683 30.2084 55.2328 30.2084C56.9973 30.2084 58.4277 28.8322 58.4277 27.1345C58.4277 25.4369 56.9973 24.0606 55.2328 24.0606ZM9.89592 19.7959C18.0374 21.7905 21.8079 28.1234 25.587 30.1675C28.2166 31.5898 34.3149 31.5898 36.9445 30.1675C40.7236 28.1234 44.494 21.7905 52.6356 19.7959C52.5537 19.7831 50.3505 19.3535 43.3889 23.2375C41.3128 24.3959 40.0288 26.1051 37.0362 28.1563C32.7068 31.1237 32.9713 29.3617 33.2112 23.3672C33.3876 18.9615 15.8616 20.9141 15.6706 20.8941C16.9502 19.6216 49.9954 19.5018 49.2701 19.4491C39.0563 18.7068 16.1617 18.8223 9.89592 19.7959ZM4.35454 18.0779C3.33179 18.0779 2.53982 18.5554 2.53982 19.0062C2.53982 19.457 3.82326 20.185 4.96538 20.0702C6.10755 19.9553 6.43571 19.988 6.65822 19.8139C6.88068 19.6398 5.37734 18.0779 4.35454 18.0779ZM57.6304 18.0779C58.6532 18.0779 59.4452 18.5554 59.4452 19.0062C59.4452 19.457 58.1617 20.185 57.0196 20.0702C55.8774 19.9553 55.5493 19.988 55.3268 19.8139C55.1043 19.6398 56.6076 18.0779 57.6304 18.0779ZM57.807 27.1969C57.807 28.5159 56.6957 29.5851 55.3249 29.5851C54.747 29.5851 55.0077 28.8574 56.1276 28.239C56.3971 28.0902 54.8448 27.7222 55.0191 27.4532C55.1829 27.2003 56.1925 27.4579 56.2641 27.1969C56.3507 26.8815 55.3466 26.5809 55.3466 26.299C55.3466 25.6997 57.0168 26.8016 56.8366 26.3823C56.6203 25.8789 54.5769 24.8088 55.3249 24.8088C56.6957 24.8088 57.807 25.878 57.807 27.1969ZM48.5751 28.0158C48.7053 29.1849 48.0353 29.628 47.4066 29.628C45.7311 29.628 48.4449 26.8467 48.5751 28.0158ZM16.3439 11.5764C13.7833 12.8754 11.4323 15.0748 8.32059 18.6752C23.274 17.5201 39.2575 17.5201 54.2109 18.6752C51.0992 15.0748 48.7482 12.8754 46.1876 11.5764C46.1016 11.5327 51.31 15.6927 52.2121 17.8652C44.5478 16.6205 36.6509 16.4229 30.8566 16.4279C31.806 9.74972 31.9363 9.25872 30.3195 16.4197C28.3673 16.4282 26.6399 16.4576 25.2078 16.4729C25.5659 14.384 26.3054 12.4932 26.5712 11.5992C26.0386 11.7164 25.2746 11.763 24.8697 12.0688C24.3779 12.7267 24.0354 14.5833 23.4075 16.4277C22.0416 16.4194 21.241 16.4438 19.8909 16.434C20.0469 15.3077 20.9711 13.8546 22.0945 12.4427C21.1395 12.5733 15.2979 13.5291 12.0759 17.3856C16.8713 8.3466 43.3657 10.6385 42.776 10.5203C35.0556 8.97374 20.3599 9.5389 16.3439 11.5764ZM7.22233 29.5227C8.59317 29.5227 9.70449 28.4535 9.70449 27.1345C9.70449 25.8156 8.59317 24.7464 7.22233 24.7464C6.4744 24.7464 8.51769 25.8165 8.73406 26.3199C8.91423 26.7392 7.24404 25.6373 7.24404 26.2366C7.24404 26.5185 8.24815 26.8191 8.16156 27.1345C8.08993 27.3955 7.08035 27.1379 6.9165 27.3907C6.74228 27.6598 8.29449 28.0278 8.02502 28.1766C6.90516 28.7949 6.64447 29.5227 7.22233 29.5227ZM16.1936 27.9464C16.0634 26.7773 13.3496 29.5586 15.0251 29.5586C15.6538 29.5586 16.3238 29.1155 16.1936 27.9464ZM12.0803 22.0799C11.1879 21.7219 8.51366 21.0174 5.94471 21.3291C0.0172898 22.0483 -0.0647121 29.3995 2.22416 30.9574C2.49926 31.1446 2.99582 31.234 4.13585 31.2339C5.51446 31.2338 1.37687 29.8418 2.10856 26.1619C2.84172 22.4745 6.7981 23.3617 6.53574 23.4072C5.79613 23.5355 5.09769 23.8825 4.3434 24.5475C3.27263 25.4914 2.61867 28.1625 4.40512 29.7847C6.00022 31.2331 7.54707 31.1155 8.77625 30.6808C10.8131 29.9607 12.602 27.6393 12.5519 28.1343C12.1223 32.3749 22.6466 33.03 22.7529 30.5741C22.7975 29.5432 16.2015 23.7331 12.0803 22.0799ZM7.22233 24.0606C8.98679 24.0606 10.4172 25.4369 10.4172 27.1345C10.4172 28.8322 8.98679 30.2084 7.22233 30.2084C5.45782 30.2084 4.02743 28.8322 4.02743 27.1345C4.02743 25.4369 5.45782 24.0606 7.22233 24.0606Z" fill="#FF6857"/>
</svg>
