<svg width="24" height="24" viewBox="0 0 24 24" fill="none" xmlns="http://www.w3.org/2000/svg">
<path fill-rule="evenodd" clip-rule="evenodd" d="M0.294067 20.8679C-0.0980225 21.2597 -0.0980225 21.8952 0.294067 22.287L1.71301 23.706C2.1051 24.0978 2.74036 24.0978 3.13196 23.706L12.0001 14.8378L20.8683 23.706C21.2599 24.0978 21.8951 24.0978 22.2872 23.706L23.7062 22.287C24.0983 21.8952 24.0983 21.2597 23.7062 20.8679L14.838 11.9999L23.7062 3.13202C24.0983 2.74017 24.0983 2.10468 23.7062 1.71283L22.2872 0.293884C21.8951 -0.0979614 21.2599 -0.0979614 20.8683 0.293884L12.0001 9.16205L3.13196 0.293884C2.74036 -0.0979614 2.1051 -0.0979614 1.71301 0.293884L0.294067 1.71283C-0.0980225 2.10468 -0.0980225 2.74017 0.294067 3.13202L9.16223 11.9999L0.294067 20.8679Z" fill="#524BE0"/>
</svg>
