<svg width="60" height="60" viewBox="0 0 60 60" fill="none" xmlns="http://www.w3.org/2000/svg">
<path d="M38.7891 50.0027V57.2764C38.7891 58.2945 38.0159 59.0948 37.0312 59.0948H22.9688C21.9841 59.0948 21.2109 58.2945 21.2109 57.2764V50.0027H38.7891Z" fill="#949494"/>
<path d="M30 50.0027H38.7891V57.2764C38.7891 58.2945 38.0159 59.0948 37.0312 59.0948H30V50.0027Z" fill="#646464"/>
<path d="M59.7184 30L56.9412 47.2751C56.5196 49.8933 54.2225 51.8211 51.6211 51.8211H8.26169C5.66022 51.8211 3.48035 49.8933 3.05875 47.2751L0.281494 30L3.83191 26.3632H56.168L59.7184 30Z" fill="#646464"/>
<path d="M59.7185 30L56.9412 47.2751C56.5196 49.8933 54.2226 51.8211 51.6211 51.8211H30V26.3632H56.1681L59.7185 30Z" fill="#353535"/>
<path d="M56 29.1133L53.5702 44.5566C53.2014 46.8973 51.1918 48.6207 48.9158 48.6207H10.9817C8.70572 48.6207 6.7986 46.8973 6.42975 44.5566L4 29.1133L7.10618 25.8621H52.8938L56 29.1133Z" fill="#E5E4FF"/>
<path d="M56 29.1133L54.7851 44.5566C54.6007 46.8973 53.5959 48.6207 52.4579 48.6207H33.4908C32.3529 48.6207 31.3993 46.8973 31.2149 44.5566L30 29.1133L31.5531 25.8621H54.4469L56 29.1133Z" fill="#BAB6FF"/>
<g clip-path="url(#clip0)">
<path d="M25.0345 29.1011L12 48.6207H16.5988L26.9954 29.1011H25.0345Z" fill="#FF8D3B"/>
<path d="M33.0046 29.1011L43.4012 48.6207H48L34.9655 29.1011H33.0046Z" fill="#FF6857"/>
<path d="M33.0047 29.1011H26.9954L16.5989 48.6207H43.4013L33.0047 29.1011Z" fill="#949494"/>
<path d="M33.0046 29.1011H30V48.6207H43.4012L33.0046 29.1011Z" fill="#646464"/>
<path d="M29 31.0345H31V32.069H29V31.0345Z" fill="#E5E4FF"/>
<path d="M29.3794 29.1011H30.6208V29.7111H29.3794V29.1011Z" fill="#A7A9AC"/>
<path d="M29 33.1035H31V35.1725H29V33.1035Z" fill="#E5E4FF"/>
<path d="M29 36.2069H31V39.3104H29V36.2069Z" fill="#E5E4FF"/>
<path d="M29 40.3448H31V43.4483H29V40.3448Z" fill="#E5E4FF"/>
<path d="M29 45.5173H31V48.6208H29V45.5173Z" fill="#E5E4FF"/>
<path d="M30 31.0345H31V32.069H30V31.0345Z" fill="#BAB6FF"/>
<path d="M30 33.1035H31V35.1725H30V33.1035Z" fill="#BAB6FF"/>
<path d="M30 36.2069H31V39.3104H30V36.2069Z" fill="#BAB6FF"/>
<path d="M30 40.3448H31V43.4483H30V40.3448Z" fill="#BAB6FF"/>
<path d="M30 45.5173H31V48.6208H30V45.5173Z" fill="#BAB6FF"/>
</g>
<path d="M24.7266 8.17883H35.2734V22.7262H24.7266V8.17883Z" fill="#646464"/>
<path d="M30 8.17883H35.2734V22.7262H30V8.17883Z" fill="#353535"/>
<path d="M42.0584 1.7779C41.7073 1.23237 41.1447 0.905151 40.5468 0.905151H19.4531C18.8557 0.905151 18.2927 1.23237 17.9416 1.7779C17.6248 2.28697 17.6248 2.97835 17.8711 3.5234L21.3867 10.7971C21.703 11.4156 22.3008 11.8157 22.9687 11.8157H37.0312C37.6991 11.8157 38.2969 11.4156 38.6133 10.7971L42.1289 3.5234C42.3752 2.97835 42.3752 2.28697 42.0584 1.7779Z" fill="#949494"/>
<path d="M37.0313 11.8157H30V0.905151H40.5469C41.1443 0.905151 41.7073 1.23237 42.0584 1.7779C42.3752 2.28697 42.3752 2.97835 42.1289 3.5234L38.6133 10.7971C38.297 11.4156 37.6991 11.8157 37.0313 11.8157Z" fill="#575F64"/>
<path d="M54.7266 19.0895H5.27344C2.35519 19.0895 0 21.5259 0 24.5448V28.1816C0 28.2541 0.0352478 28.2905 0.0352478 28.327C0.0352478 28.3999 0 28.4364 0.0352478 28.4724L0.281525 30H59.7189L59.9648 28.4724C60 28.4364 59.9648 28.3999 59.9648 28.327C59.9648 28.2905 60 28.2541 60 28.1816V24.5448C60 21.5259 57.6448 19.0895 54.7266 19.0895Z" fill="#949494"/>
<path d="M60 24.5448V28.1816C60 28.2541 59.9648 28.2905 59.9648 28.327C59.9648 28.3999 60 28.4364 59.9648 28.4724L59.7189 30H30V19.0895H54.7266C57.6448 19.0895 60 21.5259 60 24.5448Z" fill="#646464"/>
<defs>
<clipPath id="clip0">
<rect width="36" height="19.6552" fill="white" transform="translate(12 28.9656)"/>
</clipPath>
</defs>
</svg>
