<svg width="60" height="60" viewBox="0 0 60 60" fill="none" xmlns="http://www.w3.org/2000/svg">
<path d="M5.75267 25.4151C4.81379 25.1679 4.25441 24.2066 4.50114 23.2677C5.68217 18.7771 8.05293 14.6586 11.3557 11.3558C12.0423 10.6692 13.1547 10.6692 13.8414 11.3558C14.528 12.0425 14.528 13.1548 13.8414 13.8415C10.9799 16.7048 8.92497 20.274 7.90004 24.1636C7.65468 25.096 6.7007 25.6628 5.75267 25.4151Z" fill="#949494"/>
<path d="M13.4069 23.9195C12.5334 23.4974 12.1695 22.445 12.5934 21.5712C13.5359 19.628 14.7907 17.8651 16.3256 16.327C17.0122 15.6404 18.1259 15.6422 18.8126 16.3252C19.4992 17.0118 19.4992 18.1242 18.8144 18.8127C17.5565 20.0711 16.5279 21.5162 15.7556 23.106C15.3308 23.9818 14.2766 24.3425 13.4069 23.9195Z" fill="#949494"/>
<path d="M46.1587 13.8414C43.2954 10.9799 39.7262 8.925 35.8366 7.90007C34.8977 7.65333 34.3378 6.69157 34.585 5.7527C34.8341 4.81383 35.8004 4.26268 36.7324 4.50117C41.2231 5.6822 45.3416 8.05296 48.6443 11.3557C49.331 12.0424 49.331 13.1547 48.6443 13.8414C47.9577 14.528 46.8453 14.528 46.1587 13.8414Z" fill="#353535"/>
<path d="M46.1588 48.6442C45.4721 47.9576 45.4721 46.8452 46.1588 46.1586C49.0203 43.2952 51.0752 39.7261 52.1001 35.8364C52.3487 34.8976 53.3168 34.3446 54.2475 34.5849C55.1863 34.8321 55.7457 35.7934 55.499 36.7323C54.318 41.223 51.9472 45.3415 48.6444 48.6442C47.9578 49.3309 46.8454 49.3309 46.1588 48.6442Z" fill="#353535"/>
<path d="M41.1873 18.8146C39.9289 17.5562 38.4838 16.5281 36.894 15.7554C36.0201 15.3333 35.6562 14.2809 36.0805 13.407C36.5044 12.5355 37.5531 12.166 38.4288 12.5936C40.372 13.5361 42.1349 14.7909 43.673 16.3257C44.3596 17.0124 44.3596 18.1248 43.6748 18.8128C42.9886 19.499 41.8758 19.4994 41.1873 18.8146Z" fill="#353535"/>
<path d="M41.1873 43.6743C40.5007 42.9877 40.5007 41.8753 41.1855 41.1873C42.4439 39.9289 43.472 38.4833 44.2447 36.8939C44.6686 36.0201 45.7174 35.658 46.5931 36.08C47.4665 36.5025 47.8304 37.5549 47.4065 38.4284C46.464 40.3716 45.2092 42.1349 43.6744 43.6729C42.9886 44.3587 41.8758 44.3596 41.1873 43.6743Z" fill="#353535"/>
<path d="M36.9256 21.0352L34.992 23.9534H25.0077L23.0742 21.0352C19.5938 15.797 19.5938 9.04678 23.0742 3.80859C24.6209 1.48819 27.2229 0 30.0001 0C32.7774 0 35.3793 1.48819 36.9256 3.80859C40.4065 9.04678 40.4065 15.797 36.9256 21.0352Z" fill="#E5E4FF"/>
<path d="M34.9919 23.9534H30V0C32.7773 0 35.3792 1.48819 36.9255 3.80859C40.4063 9.04678 40.4063 15.797 36.9255 21.0352L34.9919 23.9534Z" fill="#BAB6FF"/>
<path d="M56.1749 23.0718C50.9527 19.5905 44.203 19.5905 38.9813 23.0718L36.0562 25.0219V34.9782L38.9813 36.9283C41.5923 38.6692 44.5861 39.5394 47.5781 39.5394C50.57 39.5394 53.5638 38.6692 56.1749 36.9283C58.4976 35.3797 59.9999 32.791 59.9999 30C59.9999 27.2091 58.4976 24.6204 56.1749 23.0718Z" fill="#BAB6FF"/>
<path d="M21.0187 23.0718C15.7965 19.5905 9.04678 19.5905 3.82507 23.0718C1.50238 24.6204 0 27.2091 0 30C0 32.791 1.50238 35.3797 3.82507 36.9283C6.43616 38.6692 9.42993 39.5394 12.4219 39.5394C15.4138 39.5394 18.4076 38.6687 21.0187 36.9283L23.9438 34.9782V25.0219L21.0187 23.0718Z" fill="#E5E4FF"/>
<path d="M23.2677 55.4987C18.7771 54.3177 14.6586 51.947 11.3558 48.6442C10.6692 47.9576 10.6692 46.8452 11.3558 46.1585C12.0424 45.4719 13.1548 45.4719 13.8415 46.1585C16.7048 49.02 20.274 51.0749 24.1636 52.0999C25.1024 52.3466 25.6623 53.3083 25.4151 54.2472C25.1693 55.1792 24.2158 55.7464 23.2677 55.4987Z" fill="#949494"/>
<path d="M21.5711 47.4065C19.6279 46.4639 17.8651 45.2092 16.327 43.6743C15.6403 42.9877 15.6403 41.8753 16.3251 41.1873C17.0118 40.5007 18.126 40.502 18.8126 41.1855C20.071 42.4434 21.5162 43.472 23.106 44.2443C23.9799 44.6668 24.3438 45.7192 23.9195 46.5926C23.4951 47.4687 22.4409 47.8295 21.5711 47.4065Z" fill="#949494"/>
<path d="M36.9255 56.1914C35.3792 58.5118 32.7773 60 30 60C27.2227 60 24.6208 58.5118 23.0745 56.1914C19.5937 50.9532 19.5937 44.2031 23.0745 38.9649L25.0081 36.0466H34.9924L36.926 38.9649C40.4063 44.2031 40.4063 50.9532 36.9255 56.1914Z" fill="#E5E4FF"/>
<path d="M36.9255 38.9649C40.4063 44.2031 40.4063 50.9532 36.9255 56.1914C35.3792 58.5118 32.7773 60 30 60V36.0466H34.9919L36.9255 38.9649Z" fill="#BAB6FF"/>
<path d="M31.7578 30C31.7578 30.9709 30.9709 31.7578 30 31.7578C29.0291 31.7578 28.2422 30.9709 28.2422 30C28.2422 29.0291 29.0291 28.2422 30 28.2422C30.9709 28.2422 31.7578 29.0291 31.7578 30Z" fill="black"/>
<path d="M30 21.2109C25.1486 21.2109 21.2109 25.1486 21.2109 30C21.2109 34.8514 25.1486 38.7891 30 38.7891C34.8514 38.7891 38.7891 34.8514 38.7891 30C38.7891 25.1486 34.8514 21.2109 30 21.2109Z" fill="#949494"/>
<path d="M38.7891 30C38.7891 34.8514 34.8514 38.7891 30 38.7891V21.2109C34.8514 21.2109 38.7891 25.1486 38.7891 30Z" fill="#353535"/>
<path d="M35.2734 30C35.2734 32.9182 32.9182 35.2734 30 35.2734C27.0818 35.2734 24.7266 32.9182 24.7266 30C24.7266 27.0818 27.0818 24.7266 30 24.7266C32.9182 24.7266 35.2734 27.0818 35.2734 30Z" fill="#E5E4FF"/>
<path d="M35.2734 30C35.2734 32.9182 32.9182 35.2734 30 35.2734V24.7266C32.9182 24.7266 35.2734 27.0818 35.2734 30Z" fill="#BAB6FF"/>
<path d="M31.7578 30C31.7578 30.9846 30.9846 31.7578 30 31.7578C29.0154 31.7578 28.2422 30.9846 28.2422 30C28.2422 29.0154 29.0154 28.2422 30 28.2422C30.9846 28.2422 31.7578 29.0154 31.7578 30Z" fill="#949494"/>
<path d="M31.7578 30C31.7578 30.9846 30.9846 31.7578 30 31.7578V28.2422C30.9846 28.2422 31.7578 29.0154 31.7578 30Z" fill="#353535"/>
</svg>
