<svg width="60" height="60" viewBox="0 0 60 60" fill="none" xmlns="http://www.w3.org/2000/svg">
<path d="M32 52.217V49.7784C32 49.348 32.3668 49 32.8202 49C33.2737 49 33.6405 49.348 33.6405 49.7784V52.217C33.6405 53.075 34.3767 53.7735 35.2813 53.7735L56.7187 53.7735C58.5285 53.7735 60 55.1697 60 56.8868C60 58.6038 58.5285 60 56.7187 60H41.0782C40.6246 60 40.2578 59.652 40.2578 59.2216C40.2578 58.7915 40.6246 58.4433 41.0782 58.4433H56.7187C57.6233 58.4433 58.3595 57.7448 58.3595 56.8868C58.3595 56.0287 57.6233 55.3302 56.7187 55.3302L35.2813 55.3302C33.4715 55.3302 32 53.9339 32 52.217Z" fill="#FF6857"/>
<path d="M28 52.217V49.7784C28 49.348 27.6332 49 27.1798 49C26.7263 49 26.3595 49.348 26.3595 49.7784V52.217C26.3595 53.075 25.6233 53.7735 24.7187 53.7735L3.28129 53.7735C1.47155 53.7735 0 55.1697 0 56.8868C0 58.6038 1.47155 60 3.28129 60H18.9218C19.3754 60 19.7422 59.652 19.7422 59.2216C19.7422 58.7915 19.3754 58.4433 18.9218 58.4433H3.28129C2.37674 58.4433 1.64054 57.7448 1.64054 56.8868C1.64054 56.0287 2.37674 55.3302 3.28129 55.3302L24.7187 55.3302C26.5285 55.3302 28 53.9339 28 52.217Z" fill="#FF8D3B"/>
<path d="M36.9231 50H23.0769C21.8528 50 20.6789 49.5317 19.8134 48.6983C18.9478 47.8648 18.4615 46.7343 18.4615 45.5556V24.4444L15 13.3333V4.44444C15 3.2657 15.4863 2.13524 16.3518 1.30175C17.2174 0.468252 18.3913 0 19.6154 0H40.3846C41.6087 0 42.7826 0.468252 43.6482 1.30175C44.5137 2.13524 45 3.2657 45 4.44444V13.3333L41.5385 24.4444V45.5556C41.5385 46.7343 41.0522 47.8648 40.1866 48.6983C39.3211 49.5317 38.1472 50 36.9231 50Z" fill="#646464"/>
<path d="M43.6482 1.30175C42.7826 0.468252 41.6087 0 40.3846 0H30L30 50H36.9231C38.1472 50 39.3211 49.5317 40.1866 48.6983C41.0522 47.8648 41.5385 46.7343 41.5385 45.5556V24.4444L45 13.3333V4.44444C45 3.2657 44.5137 2.13524 43.6482 1.30175Z" fill="#353535"/>
<path d="M38.5556 18H21.4444L19 11.5379V4H41V11.5379L38.5556 18Z" fill="#BAB6FF"/>
<path d="M38.5556 18L30 18V11.5V4H41V11.5379L38.5556 18Z" fill="#8F8AFF"/>
<path d="M37 13.4274C37 15.227 36.2 16.8432 34.9 18H25.1C23.8 16.8432 23 15.227 23 13.4274C23 9.88325 26.1401 7 30 7C33.8599 7 37 9.88325 37 13.4274Z" fill="#E5E4FF"/>
<path d="M37 13.4274C37 15.227 36.2 16.8432 34.9 18H30V7C33.8599 7 37 9.88325 37 13.4274Z" fill="#BAB6FF"/>
<path d="M32 12V16C32 17.1198 31.1203 18 30 18C28.8797 18 28 17.1198 28 16V12C28 10.8797 28.8797 10 30 10C31.1203 10 32 10.8797 32 12Z" fill="#FF8D3B"/>
<path d="M32 12V16C32 17.1198 31.1203 18 30 18V10C31.1203 10 32 10.8797 32 12Z" fill="#E71700"/>
<path d="M30 44C33.3137 44 36 41.3137 36 38C36 34.6863 33.3137 32 30 32C26.6863 32 24 34.6863 24 38C24 41.3137 26.6863 44 30 44Z" fill="#949494"/>
<path d="M30 44C33.3137 44 36 41.3137 36 38C36 34.6863 33.3137 32 30 32V44Z" fill="#646464"/>
<path d="M25.3574 28.8451C26.6392 28.8451 27.6782 27.8419 27.6782 26.6044C27.6782 25.3669 26.6392 24.3636 25.3574 24.3636C24.0757 24.3636 23.0366 25.3669 23.0366 26.6044C23.0366 27.8419 24.0757 28.8451 25.3574 28.8451Z" fill="#949494"/>
<path d="M34.6406 28.8451C35.9224 28.8451 36.9614 27.8419 36.9614 26.6044C36.9614 25.3669 35.9224 24.3636 34.6406 24.3636C33.3589 24.3636 32.3198 25.3669 32.3198 26.6044C32.3198 27.8419 33.3589 28.8451 34.6406 28.8451Z" fill="#646464"/>
</svg>
