<svg width="60" height="60" viewBox="0 0 60 60" fill="none" xmlns="http://www.w3.org/2000/svg">
<path d="M31.7602 3.52063C16.2228 3.52063 3.52075 16.105 3.52075 31.6429C3.52075 47.1808 16.2228 60 31.7602 60C47.2981 60 60.0001 47.1808 60.0001 31.6429C60.0001 16.105 47.2981 3.52063 31.7602 3.52063ZM31.7602 42.1888C25.9251 42.1888 21.2142 37.4785 21.2142 31.6429C21.2142 25.8073 25.9251 21.0969 31.7602 21.0969C37.5958 21.0969 42.3062 25.8073 42.3062 31.6429C42.3062 37.4785 37.5958 42.1888 31.7602 42.1888Z" fill="#E5E4FF"/>
<path d="M59.9999 31.6429C59.9999 47.1808 47.2979 60 31.76 60V42.1888C37.5956 42.1888 42.306 37.4785 42.306 31.6429C42.306 25.8073 37.5956 21.0969 31.76 21.0969V3.52063C47.2979 3.52063 59.9999 16.105 59.9999 31.6429Z" fill="#BAB6FF"/>
<path d="M31.7601 10.551C20.1247 10.551 10.551 20.0075 10.551 31.6429C10.551 43.2788 20.1247 52.8521 31.7601 52.8521C43.396 52.8521 52.8521 43.2788 52.8521 31.6429C52.8521 20.0075 43.396 10.551 31.7601 10.551ZM31.7601 38.6737C27.8934 38.6737 24.7298 35.5097 24.7298 31.6429C24.7298 27.7762 27.8934 24.6126 31.7601 24.6126C35.6269 24.6126 38.7909 27.7762 38.7909 31.6429C38.7909 35.5097 35.6269 38.6737 31.7601 38.6737Z" fill="#BAB6FF"/>
<path d="M52.8519 31.6429C52.8519 43.2788 43.3959 52.8521 31.76 52.8521V38.6737C35.6267 38.6737 38.7908 35.5097 38.7908 31.6429C38.7908 27.7762 35.6267 24.6126 31.76 24.6126V10.551C43.3959 10.551 52.8519 20.0075 52.8519 31.6429Z" fill="#8F8AFF"/>
<path d="M9.29026 31.6438H1.76371C0.792335 31.6438 0.00589753 30.8578 0.00589753 29.8864C0.00589753 24.9769 1.20249 20.1745 3.47849 15.9127L1.54078 13.9746C-0.512291 11.9233 -0.512291 8.58302 1.54078 6.53178L6.53178 1.54078C8.58485 -0.512291 11.9215 -0.512291 13.9746 1.54078L15.9127 3.47849C20.1745 1.20249 25.0941 0.00589753 30.0036 0.00589753C30.975 0.00589753 31.761 0.792335 31.761 1.76371V9.28156C31.761 11.5045 30.3533 13.5008 28.2595 14.2474L25.8563 15.1043C20.8511 16.8891 16.8511 20.7856 15.0851 25.794L14.2629 28.1254C13.5195 30.2297 11.5219 31.6438 9.29026 31.6438Z" fill="#FF6857"/>
<path d="M39.4332 41.4185C38.9479 40.5781 37.8731 40.2897 37.0322 40.7753C36.1917 41.2606 35.9038 42.3354 36.389 43.1763C36.8743 44.0168 37.9496 44.3047 38.79 43.8195C39.6305 43.3343 39.9189 42.259 39.4332 41.4185Z" fill="#353535"/>
<path d="M27.1299 20.1082C26.6447 19.2678 25.5699 18.9799 24.729 19.4651C23.8885 19.9503 23.6006 21.0256 24.0858 21.8661C24.571 22.707 25.6459 22.9949 26.4868 22.5092C27.3272 22.024 27.6152 20.9492 27.1299 20.1082Z" fill="#646464"/>
<path d="M43.2934 36.2737C42.4525 35.7884 41.3777 36.0764 40.8925 36.9173C40.4072 37.7577 40.6952 38.8326 41.5356 39.3183C42.3765 39.8035 43.4514 39.5156 43.9366 38.6746C44.4218 37.8342 44.1339 36.7594 43.2934 36.2737Z" fill="#353535"/>
<path d="M21.9831 23.9699C21.1427 23.4842 20.0674 23.7722 19.5822 24.6131C19.0969 25.4535 19.3849 26.5288 20.2253 27.014C21.0662 27.4993 22.141 27.2113 22.6263 26.3709C23.112 25.53 22.8236 24.4551 21.9831 23.9699Z" fill="#646464"/>
<path d="M45.8218 31.6429C45.8218 32.6138 45.0349 33.4007 44.064 33.4007C43.093 33.4007 42.3062 32.6138 42.3062 31.6429C42.3062 30.6724 43.093 29.8855 44.064 29.8855C45.0349 29.8855 45.8218 30.6724 45.8218 31.6429Z" fill="#353535"/>
<path d="M21.2141 31.6429C21.2141 32.6138 20.4272 33.4007 19.4568 33.4007C18.4859 33.4007 17.699 32.6138 17.699 31.6429C17.699 30.6724 18.4859 29.8855 19.4568 29.8855C20.4272 29.8855 21.2141 30.6724 21.2141 31.6429Z" fill="#646464"/>
<path d="M43.9365 24.6117C43.4513 23.7712 42.376 23.4833 41.5356 23.9685C40.6951 24.4537 40.4067 25.5286 40.8924 26.3695C41.3776 27.2099 42.4525 27.4979 43.2934 27.0126C44.1338 26.5274 44.4218 25.4526 43.9365 24.6117Z" fill="#353535"/>
<path d="M22.6263 36.915C22.141 36.0746 21.0662 35.7866 20.2253 36.2718C19.3849 36.7571 19.0969 37.8319 19.5822 38.6728C20.0674 39.5133 21.1427 39.8017 21.9831 39.316C22.824 38.8308 23.112 37.7559 22.6263 36.915Z" fill="#646464"/>
<path d="M26.4863 40.7766C25.6458 40.2914 24.5706 40.5793 24.0853 41.4202C23.6001 42.2607 23.888 43.3355 24.7285 43.8212C25.5694 44.3064 26.6442 44.0185 27.1295 43.1776C27.6151 42.3371 27.3267 41.2623 26.4863 40.7766Z" fill="#646464"/>
<path d="M38.7905 19.4664C37.9495 18.9812 36.8747 19.2691 36.3895 20.11C35.9038 20.9505 36.1922 22.0253 37.0326 22.511C37.8736 22.9962 38.9484 22.7083 39.4336 21.8674C39.9188 21.0269 39.6309 19.9521 38.7905 19.4664Z" fill="#353535"/>
<path d="M33.5179 43.9467C33.5179 44.9308 32.7447 45.7045 31.76 45.7045C30.7758 45.7045 30.0027 44.9308 30.0027 43.9467C30.0027 42.9625 30.7758 42.1888 31.76 42.1888C32.7447 42.1888 33.5179 42.9625 33.5179 43.9467Z" fill="#646464"/>
<path d="M33.5179 19.3396C33.5179 20.3238 32.7447 21.097 31.76 21.097C30.7758 21.097 30.0027 20.3238 30.0027 19.3396C30.0027 18.3549 30.7758 17.5818 31.76 17.5818C32.7447 17.5818 33.5179 18.3549 33.5179 19.3396Z" fill="#646464"/>
<path d="M33.5178 43.9467C33.5178 44.9308 32.7447 45.7045 31.76 45.7045V42.1888C32.7447 42.1888 33.5178 42.9625 33.5178 43.9467Z" fill="#353535"/>
<path d="M31.76 21.097V17.5818C32.7447 17.5818 33.5178 18.3549 33.5178 19.3396C33.5178 20.3238 32.7447 21.097 31.76 21.097Z" fill="#353535"/>
</svg>
