<svg width="60" height="60" viewBox="0 0 60 60" fill="none" xmlns="http://www.w3.org/2000/svg">
<g clip-path="url(#clip0)">
<path d="M22.1818 59.7106C19.2732 59.7106 16.9075 57.3444 16.9075 54.4362C16.9075 51.5276 19.2732 49.1619 22.1818 49.1619C25.09 49.1619 27.4557 51.5276 27.4557 54.4362C27.4557 57.3444 25.09 59.7106 22.1818 59.7106Z" fill="#E5E4FF"/>
<path d="M22.1819 56.1939C21.2119 56.1939 20.4236 55.4061 20.4236 54.4361C20.4236 53.4661 21.2119 52.6779 22.1819 52.6779C23.1519 52.6779 23.9397 53.4661 23.9397 54.4361C23.9397 55.4061 23.1519 56.1939 22.1819 56.1939Z" fill="#BAB6FF"/>
<path d="M47.0292 59.7106C44.1211 59.7106 41.7549 57.3444 41.7549 54.4362C41.7549 51.5276 44.1211 49.1619 47.0292 49.1619C49.9374 49.1619 52.3036 51.5276 52.3036 54.4362C52.3036 57.3444 49.9374 59.7106 47.0292 59.7106Z" fill="#BAB6FF"/>
<path d="M47.0293 56.1939C46.0593 56.1939 45.271 55.4061 45.271 54.4361C45.271 53.4661 46.0593 52.6779 47.0293 52.6779C47.9993 52.6779 48.7871 53.4661 48.7871 54.4361C48.7871 55.4061 47.9993 56.1939 47.0293 56.1939Z" fill="#8F8AFF"/>
<path d="M52.5846 47.4036C52.5846 48.3883 51.811 49.1619 50.8268 49.1619H17.1889C14.2702 49.1619 11.9146 46.8058 11.9146 43.8875C11.9146 41.2156 13.8834 39 16.4853 38.6837C16.6964 38.6132 16.9426 38.6132 17.1889 38.6132C17.6105 38.6132 18.0326 38.7894 18.3141 39.0705L17.2589 42.1297C17.2242 42.1297 17.2242 42.1297 17.1889 42.1297C16.2043 42.1297 15.4306 42.9029 15.4306 43.8875C15.4306 44.8722 16.2043 45.6458 17.1889 45.6458H50.8268C51.811 45.6458 52.5846 46.419 52.5846 47.4036Z" fill="#BAB6FF"/>
<path d="M11.5 14.5C11.6117 14.6405 14.5939 16.1627 16.5 17C17.9214 20.498 15.6047 12.2003 15.5704 12.0456L14.0236 5.01297C13.8464 4.20593 13.1323 3.63281 12.3065 3.63281H1.75827C0.786439 3.63281 0 4.41925 0 5.39108C0 6.36246 0.786439 7.1489 1.75827 7.1489H10L11.5 14.5Z" fill="#BAB6FF"/>
<path d="M52.5847 47.4036C52.5847 48.3882 51.811 49.1619 50.8268 49.1619H34V45.6458H50.8268C51.811 45.6458 52.5847 46.4189 52.5847 47.4036Z" fill="#8F8AFF"/>
<path d="M58.9842 14.7036C58.6326 14.2463 58.1401 14 57.5775 14H11L16.4854 38.6835L17.259 42.1296H50.5453C51.3189 42.1296 52.0221 41.6018 52.2331 40.8634L59.2653 16.2504C59.4063 15.723 59.3005 15.1252 58.9842 14.7036Z" fill="#FF8D3B"/>
<path d="M59.2653 16.2504L52.2331 40.8634C52.0221 41.6018 51.3189 42.1296 50.5453 42.1296H34V14H57.5775C58.1401 14 58.6326 14.2463 58.9842 14.7036C59.3005 15.1252 59.4063 15.723 59.2653 16.2504Z" fill="#FF6857"/>
<path d="M47.1797 10.7188H44.139C43.9587 10.1772 43.7453 9.65234 43.4829 9.16016L45.5993 7.04379C45.9274 6.71567 45.9274 6.20703 45.5993 5.87891L42.1211 2.4007C41.793 2.07257 41.2843 2.07257 40.9562 2.4007L38.8398 4.51706C38.3477 4.25473 37.8226 4.04132 37.2812 3.86102V0.820312C37.2812 0.360809 36.9204 0 36.4609 0H31.5391C31.0796 0 30.7188 0.360809 30.7188 0.820312V3.86102C30.1772 4.04132 29.6523 4.25473 29.1602 4.51706L27.0438 2.4007C26.7157 2.07257 26.207 2.07257 25.8789 2.4007L22.4007 5.87891C22.0726 6.20703 22.0726 6.71567 22.4007 7.04379L24.5171 9.16016C24.2547 9.65234 24.0413 10.1774 23.861 10.7188H20.8203C20.3608 10.7188 20 11.0796 20 11.5391V16.4609C20 16.9202 20.3608 17.2812 20.8203 17.2812H23.861C24.0413 17.8226 24.2547 18.3477 24.5171 18.8398L22.4007 20.9562C22.0726 21.2843 22.0726 21.793 22.4007 22.1211L25.8789 25.5993C26.207 25.9274 26.7157 25.9274 27.0438 25.5993L29.1602 23.4827C29.6523 23.7453 30.1774 23.9587 30.7188 24.1392V27.1797C30.7188 27.639 31.0796 28 31.5391 28H36.4609C36.9204 28 37.2812 27.639 37.2812 27.1797V24.139C37.8228 23.9587 38.3477 23.7453 38.8398 23.4827L40.9562 25.5993C41.2843 25.9272 41.793 25.9272 42.1211 25.5993L45.5993 22.1211C45.9274 21.793 45.9274 21.2843 45.5993 20.9562L43.4829 18.8398C43.7453 18.3477 43.9587 17.8226 44.139 17.2812H47.1797C47.6392 17.2812 48 16.9202 48 16.4609V11.5391C48 11.0796 47.6392 10.7188 47.1797 10.7188ZM34 18.1016C31.736 18.1016 29.8984 16.264 29.8984 14C29.8984 11.736 31.736 9.89844 34 9.89844C36.264 9.89844 38.1016 11.736 38.1016 14C38.1016 16.264 36.264 18.1016 34 18.1016Z" fill="#646464"/>
<path d="M48 11.5391V16.4609C48 16.9202 47.6392 17.2812 47.1797 17.2812H44.139C43.9587 17.8226 43.7453 18.3477 43.4829 18.8398L45.5993 20.9562C45.9274 21.2843 45.9274 21.793 45.5993 22.1211L42.1211 25.5993C41.793 25.9274 41.2843 25.9274 40.9562 25.5993L38.8398 23.4827C38.3477 23.7453 37.8226 23.9587 37.2812 24.139V27.1797C37.2812 27.639 36.9204 28 36.4609 28H34V18.1016C36.264 18.1016 38.1016 16.264 38.1016 14C38.1016 11.736 36.264 9.89844 34 9.89844V0H36.4609C36.9204 0 37.2812 0.360809 37.2812 0.820312V3.86102C37.8228 4.04132 38.3477 4.25473 38.8398 4.51706L40.9562 2.4007C41.2843 2.07257 41.793 2.07257 42.1211 2.4007L45.5993 5.87891C45.9274 6.20703 45.9274 6.71567 45.5993 7.04379L43.4829 9.16016C43.7453 9.65234 43.9587 10.1774 44.139 10.7188H47.1797C47.6392 10.7188 48 11.0796 48 11.5391Z" fill="#353535"/>
</g>
<defs>
<clipPath id="clip0">
<rect width="60" height="60" fill="white"/>
</clipPath>
</defs>
</svg>
