<svg width="60" height="60" viewBox="0 0 60 60" fill="none" xmlns="http://www.w3.org/2000/svg">
<g clip-path="url(#clip0)">
<path d="M54.7255 44.6309H47.6846C44.7771 44.6309 42.4116 42.2655 42.4116 39.358V27.0544C42.4116 24.147 44.7771 21.7815 47.6846 21.7815H54.7255C57.6331 21.7815 59.9985 24.147 59.9985 27.0544V39.358C59.9984 42.2655 57.6331 44.6309 54.7255 44.6309Z" fill="#808080"/>
<path fill-rule="evenodd" clip-rule="evenodd" d="M4.10645 20.3244C12.735 20.3244 21.3689 20.3244 29.9975 20.3244C38.626 20.3244 47.2649 20.3244 55.8988 20.3244C54.2673 17.2312 52.6375 14.1393 51.0096 11.0429C50.0499 9.21754 49.0889 7.38864 48.1269 5.55939C46.863 3.15632 44.5749 1.75769 41.9071 1.75769C37.9341 1.75769 33.9632 1.75769 29.9922 1.75769C26.0266 1.75769 22.058 1.75769 18.0908 1.75769C15.4247 1.75769 13.1379 3.15444 11.8733 5.55529C10.91 7.38407 9.94726 9.21309 8.98524 11.0429C7.36069 14.1329 5.73275 17.2312 4.10645 20.3244Z" fill="#E5E4FF"/>
<path fill-rule="evenodd" clip-rule="evenodd" d="M29.9999 20.3244C38.6276 20.3244 47.2657 20.3244 55.8986 20.3244C54.2672 17.2312 52.6373 14.1393 51.0094 11.0429C50.0497 9.21754 49.0887 7.38864 48.1267 5.55939C46.8628 3.15632 44.5747 1.75769 41.907 1.75769C37.9365 1.75769 33.9682 1.75769 29.9998 1.75769V20.3244H29.9999Z" fill="#BAB6FF"/>
<path d="M55.8988 22.082H4.10649C3.49096 22.082 2.92019 21.76 2.60205 21.2331C2.2838 20.7063 2.26435 20.0513 2.55073 19.5065C2.55073 19.5065 9.35474 6.56532 10.3183 4.73607C11.8804 1.77055 14.786 0 18.091 0H41.9073C45.2146 0 48.1213 1.77242 49.6827 4.74111C49.6827 4.74111 55.8224 16.4117 57.4535 19.5043C57.7408 20.0491 57.7221 20.7046 57.404 21.232C57.0858 21.7596 56.5147 22.082 55.8988 22.082ZM7.016 18.5667H52.9848C51.8069 16.3323 46.5713 6.37749 46.5713 6.37749C45.6146 4.55855 43.9146 3.51532 41.9072 3.51532H18.0909C16.0849 3.51532 14.3855 4.55737 13.4284 6.37432C12.4653 8.20276 7.016 18.5667 7.016 18.5667Z" fill="#FF6857"/>
<path d="M57.4536 19.5044C55.8225 16.4118 49.6827 4.74123 49.6827 4.74123C48.1213 1.77254 45.2146 0.00012207 41.9073 0.00012207H30V3.51544H41.9072C43.9147 3.51544 45.6147 4.55867 46.5713 6.37761C46.5713 6.37761 51.8069 16.3324 52.9849 18.5669H30V22.0822H55.8987C56.5146 22.0822 57.0857 21.7597 57.4039 21.2323C57.722 20.7046 57.7409 20.0493 57.4536 19.5044Z" fill="#E71700"/>
<path d="M12.3139 44.6309H5.27297C2.36546 44.6309 0 42.2655 0 39.358V27.0544C0 24.147 2.36546 21.7815 5.27297 21.7815H12.3139C15.2214 21.7815 17.5869 24.147 17.5869 27.0544V39.358C17.5869 42.2655 15.2214 44.6309 12.3139 44.6309Z" fill="#353535"/>
<path d="M51.2076 37.0144H8.7894C6.44597 37.0144 4.23976 36.0981 2.57701 34.434C0.914385 32.7701 -0.000417576 30.5632 0.00122291 28.2199L0.00532411 22.4838C0.00790201 18.8089 2.12834 15.6813 5.53925 14.3216C11.1019 12.1043 20.2485 10.7804 30.0064 10.7804C32.4216 10.7804 46.3247 11.3492 54.0984 14.0521C57.6863 15.2996 60.0028 18.5583 60.0002 22.3541L59.996 28.2324C59.9924 33.0748 56.05 37.0144 51.2076 37.0144Z" fill="#FF6857"/>
<path d="M34.5725 20.3752H25.4326C22.5251 20.3752 20.1597 22.7407 20.1597 25.6482V37.0144H39.8454V25.6482C39.8454 22.7407 37.48 20.3752 34.5725 20.3752Z" fill="#E71700"/>
<path d="M13.1883 28.8102C13.49 28.5049 13.6575 28.0911 13.6538 27.6611C13.6358 25.6209 12.8468 23.605 11.4887 22.1301C9.99503 20.5079 7.9115 19.6145 5.62151 19.6145H0.46747C0.166325 20.5134 0.00602668 21.4777 0.00532361 22.4837L0.00122241 28.2199C0.000988056 28.5796 0.0248922 28.9356 0.0671932 29.2875H12.0473C12.4759 29.2875 12.8866 29.1157 13.1883 28.8102Z" fill="#FF8D3B"/>
<path d="M59.9958 28.2323L60 22.354C60.0004 21.8572 59.96 21.3698 59.8832 20.8947C59.8061 20.4558 59.6989 20.028 59.5604 19.6145H54.4063C52.1165 19.6145 50.0328 20.5079 48.5392 22.1301C47.1812 23.605 46.392 25.621 46.3741 27.6611C46.3703 28.0911 46.5379 28.5049 46.8395 28.8102C47.1412 29.1157 47.5519 29.2875 47.9805 29.2875H59.9294C59.9714 28.9412 59.9956 28.5896 59.9958 28.2323Z" fill="#CCCCCC"/>
<path d="M58 12H28V56H58V12Z" fill="#E5E4FF"/>
<path d="M58 12H43V56H58V12Z" fill="#BAB6FF"/>
<path d="M58.2292 60H27.7708C26.7929 60 26 58.9916 26 57.7477V12.2523C26 11.0084 26.7929 10 27.7708 10H58.2292C59.2071 10 60 11.0084 60 12.2523V57.7477C60 58.9916 59.2073 60 58.2292 60ZM29.5417 55.4955H56.4583V14.5045H29.5417V55.4955Z" fill="#646464"/>
<path d="M58.2292 10H43V14.5045H56.4583V55.4955H43V60H58.2292C59.2071 60 60 58.9916 60 57.7477V12.2523C60 11.0084 59.2073 10 58.2292 10Z" fill="#353535"/>
<path d="M51.2091 15.7123H35.0387C34.068 15.7123 33.281 14.9253 33.281 13.9546V9.15036C33.281 8.17966 34.068 7.3927 35.0387 7.3927H51.2091C52.1798 7.3927 52.9668 8.17966 52.9668 9.15036V13.9546C52.9668 14.9253 52.1799 15.7123 51.2091 15.7123Z" fill="#949494"/>
<path d="M51.209 7.3927H43.1238V15.7123H51.209C52.1797 15.7123 52.9667 14.9253 52.9667 13.9546V9.15036C52.9667 8.17966 52.1798 7.3927 51.209 7.3927Z" fill="#646464"/>
<g clip-path="url(#clip1)">
<path d="M51.8147 26.6161L43.1851 24.0272C43.0643 23.9909 42.9355 23.9909 42.8147 24.0272L34.1851 26.6161C33.9125 26.6978 33.7258 26.9488 33.7258 27.2334V36.7259C33.7258 37.9605 34.2256 39.2245 35.2114 40.4824C35.9642 41.4432 37.0059 42.408 38.3072 43.35C40.4934 44.9324 42.646 45.9032 42.7366 45.9437C42.8203 45.9812 42.9101 46 43 46C43.0898 46 43.1796 45.9813 43.2634 45.9437C43.3539 45.9032 45.5065 44.9324 47.6927 43.35C48.994 42.408 50.0355 41.4432 50.7884 40.4824C51.7742 39.2245 52.274 37.9606 52.274 36.7259V27.2334C52.274 26.9488 52.0873 26.6978 51.8147 26.6161Z" fill="#FF8D3B"/>
<path d="M51.8148 26.6161L43.1852 24.0272C43.1248 24.0091 43.0624 24 43 24V46H43C43.0898 46 43.1797 45.9813 43.2634 45.9437C43.354 45.9032 45.5066 44.9324 47.6927 43.35C48.9941 42.408 50.0356 41.4432 50.7885 40.4824C51.7743 39.2245 52.2741 37.9606 52.2741 36.7259V27.2334C52.2741 26.9488 52.0874 26.6978 51.8148 26.6161Z" fill="#E71700"/>
</g>
</g>
<defs>
<clipPath id="clip0">
<rect width="60" height="60" fill="white"/>
</clipPath>
<clipPath id="clip1">
<rect width="22" height="22" fill="white" transform="translate(32 24)"/>
</clipPath>
</defs>
</svg>
