<svg width="60" height="60" viewBox="0 0 60 60" fill="none" xmlns="http://www.w3.org/2000/svg">
<path d="M57.6954 9.02344H1.13281V17.5391H57.6954V9.02344Z" fill="#BAB6FF"/>
<path d="M57.6953 9.02344H30V17.5391H57.6953V9.02344Z" fill="#8F8AFF"/>
<path d="M1.75781 52.9438C0.787031 52.9438 0 52.1568 0 51.186V8.78906C0 7.81828 0.787031 7.03125 1.75781 7.03125C2.72859 7.03125 3.51563 7.81828 3.51563 8.78906V51.186C3.51563 52.1568 2.72859 52.9438 1.75781 52.9438Z" fill="#646464"/>
<path d="M58.2422 52.9438C57.2714 52.9438 56.4844 52.1568 56.4844 51.186V8.78906C56.4844 7.81828 57.2714 7.03125 58.2422 7.03125C59.213 7.03125 60 7.81828 60 8.78906V51.186C60 52.1568 59.2131 52.9438 58.2422 52.9438Z" fill="#353535"/>
<path d="M58.2422 10.5469H1.75781C0.787031 10.5469 0 9.75984 0 8.78906V8.67211C0 8.20582 0.185273 7.75887 0.514922 7.42922L7.42922 0.514922C7.75887 0.185273 8.20605 0 8.67223 0H51.3279C51.7942 0 52.2412 0.185273 52.5708 0.514922L59.4852 7.42922C59.8148 7.75887 60 8.20594 60 8.67223V8.78906C60 9.75984 59.2131 10.5469 58.2422 10.5469ZM1.75781 8.67223H1.75898H1.75781Z" fill="#949494"/>
<path fill-rule="evenodd" clip-rule="evenodd" d="M9.81641 40.9462C16.5373 40.9462 23.2624 40.9462 29.9833 40.9462C36.7043 40.9462 43.4333 40.9462 50.1583 40.9462C48.8875 38.5369 44.8541 30.8704 44.1046 29.4456C43.1203 27.5737 41.3379 26.4844 39.26 26.4844C36.1653 26.4844 33.0723 26.4844 29.9792 26.4844C26.8903 26.4844 23.7991 26.4844 20.7091 26.4844C18.6324 26.4844 16.8512 27.5723 15.8661 29.4424C15.1159 30.8668 11.0831 38.537 9.81641 40.9462Z" fill="#E5E4FF"/>
<path fill-rule="evenodd" clip-rule="evenodd" d="M30 40.9462C36.7154 40.9462 43.4388 40.9462 50.1582 40.9462C48.8875 38.5369 44.854 30.8704 44.1046 29.4456C43.1202 27.5737 41.3379 26.4844 39.26 26.4844C36.1723 26.4844 33.0861 26.4844 30 26.4844V40.9462Z" fill="#BAB6FF"/>
<path d="M50.1583 42.7041H9.81636C9.20078 42.7041 8.62996 42.382 8.31179 41.855C7.99351 41.3282 7.97406 40.6731 8.26046 40.1283C8.26046 40.1283 13.5603 30.048 14.3107 28.6232C15.5961 26.1832 17.988 24.7266 20.7091 24.7266H39.26C41.983 24.7266 44.3757 26.1847 45.6603 28.6273C45.6603 28.6273 50.4426 37.7175 51.713 40.1262C52.0004 40.671 51.9816 41.3266 51.6634 41.8541C51.3454 42.3816 50.7743 42.7041 50.1583 42.7041ZM12.7262 39.1884H47.2442C46.4269 37.6378 42.5488 30.2637 42.5488 30.2637C41.8731 28.9789 40.6744 28.2422 39.2601 28.2422H20.7091C19.2749 28.2422 18.1073 28.9594 17.4212 30.2616C16.6712 31.6856 12.7262 39.1884 12.7262 39.1884Z" fill="#FF6857"/>
<path d="M51.7132 40.1262C50.4427 37.7175 45.6605 28.6273 45.6605 28.6273C44.3757 26.1848 41.9831 24.7266 39.26 24.7266H30V28.2422H39.26C40.6744 28.2422 41.8732 28.9791 42.5488 30.2637C42.5488 30.2637 46.427 37.6378 47.2441 39.1884H30V42.7041H50.1584C50.7744 42.7041 51.3455 42.3816 51.6636 41.8541C51.9818 41.3266 52.0005 40.6711 51.7132 40.1262Z" fill="#E71700"/>
<path d="M15.7611 60.0001H10.9968C8.81027 60.0001 7.03125 58.0296 7.03125 55.6075V45.8173C7.03125 43.3953 8.81016 41.4248 10.9968 41.4248H15.761C17.9476 41.4248 19.7265 43.3953 19.7265 45.8173V55.6075C19.7266 58.0296 17.9477 60.0001 15.7611 60.0001Z" fill="#646464"/>
<path d="M48.9641 60.0001H44.1999C42.0133 60.0001 40.2344 58.0296 40.2344 55.6075V45.8173C40.2344 43.3953 42.0133 41.4248 44.1999 41.4248H48.9641C51.1507 41.4248 52.9296 43.3953 52.9296 45.8173V55.6075C52.9296 58.0296 51.1507 60.0001 48.9641 60.0001Z" fill="#353535"/>
<path d="M45.9274 52.9687H14.0694C12.2262 52.9687 10.482 52.2385 9.15798 50.9128C7.78372 49.5366 7.02845 47.6974 7.03126 45.7343L7.0343 43.6137C7.03864 40.6008 8.72907 38.0321 11.4461 36.9102C15.6782 35.1625 22.6158 34.119 30.0042 34.119C31.832 34.119 42.3573 34.5664 48.2605 36.6927C51.1248 37.7245 52.9729 40.4027 52.9685 43.5158L52.9655 45.7471C52.9598 49.7291 49.8026 52.9687 45.9274 52.9687Z" fill="#FF8D3B"/>
<path d="M48.2606 36.6927C42.3574 34.5663 31.8321 34.119 30.0043 34.119C30.0029 34.119 30.0014 34.119 30 34.119V52.9687H45.9274C49.8026 52.9687 52.96 49.7291 52.9656 45.7469L52.9686 43.5157C52.973 40.4027 51.1249 37.7244 48.2606 36.6927Z" fill="#FF6857"/>
<path fill-rule="evenodd" clip-rule="evenodd" d="M15.8203 45.9432C16.7885 45.9432 17.5781 45.1536 17.5781 44.1854C17.5781 43.2172 16.7885 42.4276 15.8203 42.4276C14.8521 42.4276 14.0625 43.2172 14.0625 44.1854C14.0625 45.1536 14.8521 45.9432 15.8203 45.9432Z" fill="white"/>
<path fill-rule="evenodd" clip-rule="evenodd" d="M44.1797 45.9375C45.1479 45.9375 45.9375 45.1479 45.9375 44.1797C45.9375 43.2115 45.1479 42.4219 44.1797 42.4219C43.2115 42.4219 42.4219 43.2115 42.4219 44.1797C42.4219 45.1479 43.2115 45.9375 44.1797 45.9375Z" fill="white"/>
<path d="M37.1492 45.9375H22.8528C21.882 45.9375 21.095 45.1505 21.095 44.1797C21.095 43.2089 21.882 42.4219 22.8528 42.4219H37.1493C38.1201 42.4219 38.9071 43.2089 38.9071 44.1797C38.9071 45.1505 38.1201 45.9375 37.1492 45.9375Z" fill="#FF6857"/>
<path d="M59.4852 7.42922L52.5708 0.514922C52.2413 0.185273 51.7941 0 51.3279 0H30V10.5469H58.2422C59.213 10.5469 60 9.75984 60 8.78906V8.67211C60 8.20594 59.8148 7.75887 59.4852 7.42922Z" fill="#353535"/>
<path d="M37.1491 42.4219H30V45.9375H37.1491C38.1199 45.9375 38.907 45.1505 38.907 44.1797C38.907 43.2089 38.12 42.4219 37.1491 42.4219Z" fill="#E71700"/>
</svg>
