<svg width="60" height="60" viewBox="0 0 60 60" fill="none" xmlns="http://www.w3.org/2000/svg">
<path d="M38.7891 17.5781V8.78906C38.7891 7.81769 39.5755 7.03125 40.5469 7.03125H51.0938C52.0651 7.03125 52.8516 7.81769 52.8516 8.78906V14.0625L49.3359 17.5781H38.7891Z" fill="#353535"/>
<path d="M7 23.6145V50.8434C7 55.8311 10.9633 60 15.8462 60H44.1538C49.0367 60 53 55.8311 53 50.8434V23.6145L49.4615 20H10.5385L7 23.6145Z" fill="#FF8D3B"/>
<path d="M7 23.6145V50.8434C7 55.8311 10.9633 60 15.8462 60H30V20H10.5385L7 23.6145Z" fill="#FF6857"/>
<path d="M31.135 29H30V55H31.135V52.1556L33.1306 54.1515L34.9304 52.3515L31.135 48.5556V44.2192L34.8777 46.4087L36.2374 51.6017L38.6997 50.9568L37.9847 48.2264L40.4396 49.6626L41.7247 47.4652L39.2699 46.0291L42 45.3141L41.3552 42.8515L36.1628 44.2113L32.3829 42L36.1628 39.7887L41.3552 41.1485L42 38.6859L39.2699 37.9709L41.7247 36.5348L40.4396 34.3374L37.9847 35.7736L38.6997 33.0432L36.2374 32.3983L34.8777 37.5913L31.135 39.7808V35.4444L34.9304 31.6485L33.1306 29.8485L31.135 31.8444V29Z" fill="#E5E4FF"/>
<path d="M30 55H28.7315V52.1556L26.7604 54.1515L24.9827 52.3515L28.7315 48.5556V44.2191L25.0349 46.4087L23.6918 51.6017L21.2598 50.9568L21.9659 48.2264L19.5412 49.6626L18.2719 47.4652L20.6966 46.0291L18 45.3141L18.6369 42.8515L23.7655 44.2113L27.499 42L23.7655 39.7887L18.6369 41.1485L18 38.6859L20.6966 37.9709L18.2719 36.5348L19.5412 34.3374L21.9659 35.7736L21.2598 33.0432L23.6918 32.3983L25.0349 37.5913L28.7315 39.7809V35.4444L24.9827 31.6485L26.7604 29.8485L28.7315 31.8444V29H30V55Z" fill="#BAB6FF"/>
<path d="M15.8462 0H30C30.7077 0 31.3799 0.411607 31.6278 1.06295L36.8645 13.7143H53V24H7V8.57143C7 3.84018 10.9633 0 15.8462 0ZM14.0769 15.4286C14.0769 16.3884 14.8551 17.1429 15.8462 17.1429H28.0538C28.6201 17.1429 29.1863 16.8683 29.5047 16.3884C29.8231 15.9085 29.8936 15.3254 29.6816 14.7772L26.8509 7.92009C26.5675 7.26875 25.9308 6.85714 25.2231 6.85714H15.8462C14.8551 6.85714 14.0769 7.61116 14.0769 8.57143V15.4286Z" fill="#FF6857"/>
<path d="M15.8462 0H30V24H7V8.57143C7 3.84018 10.9633 0 15.8462 0ZM14.0769 15.4286C14.0769 16.3884 14.8551 17.1429 15.8462 17.1429H28.0538C28.6201 17.1429 29.1863 16.8683 29.5047 16.3884C29.8231 15.9085 29.8936 15.3254 29.6816 14.7772L26.8509 7.92009C26.5675 7.26875 25.9308 6.85714 25.2231 6.85714H15.8462C14.8551 6.85714 14.0769 7.61116 14.0769 8.57143V15.4286Z" fill="#E71700"/>
</svg>
