<svg width="60" height="60" viewBox="0 0 60 60" fill="none" xmlns="http://www.w3.org/2000/svg">
<path d="M12.8571 33.2143H4.82143C2.15876 33.2143 0 31.0555 0 28.3928C0 25.7302 2.15876 23.5714 4.82143 23.5714H12.8571V33.2143Z" fill="#FF6857"/>
<path d="M17.6785 50.3572H8.03561C7.1475 50.3572 6.42847 51.0683 6.42847 51.9467V58.4106C6.42847 59.2889 7.1475 60 8.03561 60H17.6785C18.5666 60 19.2856 59.2889 19.2856 58.4106V51.9467C19.2856 51.0683 18.5666 50.3572 17.6785 50.3572Z" fill="#949494"/>
<path d="M46.0714 18.8393V37.5H4.28564L12.8327 20.1964C13.5126 18.3984 15.2933 17.1428 17.3003 17.1428H44.4526C45.3594 17.1428 46.0714 17.889 46.0714 18.8393Z" fill="#FF6857"/>
<path d="M46.0714 18.8393V37.5H30V17.1428H44.4749C45.3692 17.1428 46.0714 17.889 46.0714 18.8393Z" fill="#E71700"/>
<path d="M42.8571 20.3572V37.5H7.5L15.4651 21.4201C15.7271 20.7688 16.317 20.3572 17.0054 20.3572H42.8571Z" fill="#949494"/>
<path d="M30 20.3572H42.8571V37.5H30V20.3572Z" fill="#646464"/>
<path d="M39.6429 30V53.5714H8.2133C3.67973 53.5714 0 49.7998 0 45.1531V38.4184C0 33.7716 3.67973 30 8.2133 30H39.6429Z" fill="#FF8D3B"/>
<path d="M30 30H39.6429V53.5714H30V30Z" fill="#FF6857"/>
<path d="M11.2499 47.1429C8.59141 47.1429 6.42847 44.9799 6.42847 42.3214C6.42847 39.6629 8.59141 37.5 11.2499 37.5C13.9084 37.5 16.0713 39.6629 16.0713 42.3214C16.0713 44.9799 13.9084 47.1429 11.2499 47.1429Z" fill="#E5E4FF"/>
<path d="M39.6428 39.1071C39.6428 40.0074 38.9048 40.7143 37.965 40.7143H20.9634C20.0236 40.7143 19.2856 40.0074 19.2856 39.1071C19.2856 38.2069 20.0236 37.5 20.9634 37.5H37.965C38.9048 37.5 39.6428 38.2069 39.6428 39.1071Z" fill="#FF6857"/>
<path d="M36.4285 45.5357C36.4285 46.436 35.7086 47.1429 34.7917 47.1429H20.9225C20.0056 47.1429 19.2856 46.436 19.2856 45.5357C19.2856 44.6355 20.0056 43.9286 20.9225 43.9286H34.7917C35.7086 43.9286 36.4285 44.6355 36.4285 45.5357Z" fill="#FF6857"/>
<path d="M36.4286 45.5357C36.4286 46.436 35.7869 47.1429 34.9697 47.1429H30V43.9286H34.9697C35.7869 43.9286 36.4286 44.6355 36.4286 45.5357Z" fill="#E71700"/>
<path d="M39.6429 39.1071C39.6429 40.0074 38.9437 40.7143 38.0534 40.7143H30V37.5H38.0534C38.9437 37.5 39.6429 38.2069 39.6429 39.1071Z" fill="#E71700"/>
<path d="M46.4287 3.21423H49.2858H52.143C52.9326 3.21423 53.5715 3.85319 53.5715 4.6428V10.3571C53.5715 11.1467 52.9326 11.7857 52.143 11.7857H49.2858H46.4287C45.6391 11.7857 45.0001 11.1467 45.0001 10.3571V4.6428C45.0001 3.85319 45.6391 3.21423 46.4287 3.21423Z" fill="#353535"/>
<path d="M44.9999 10.3571V4.6428C44.9999 3.85319 45.6389 3.21423 46.4285 3.21423H49.2856V11.7857H46.4285C45.6389 11.7857 44.9999 11.1467 44.9999 10.3571Z" fill="#646464"/>
<path d="M43.2856 9.64282H49.2856H55.2856C56.1147 9.64282 56.7856 10.2818 56.7856 11.0714V16.7857C56.7856 17.5753 56.1147 18.2143 55.2856 18.2143H49.2856H43.2856C42.4565 18.2143 41.7856 17.5753 41.7856 16.7857V11.0714C41.7856 10.2818 42.4565 9.64282 43.2856 9.64282Z" fill="#646464"/>
<path d="M41.7856 16.7857V11.0714C41.7856 10.2818 42.4565 9.64282 43.2856 9.64282H49.2856V18.2143H43.2856C42.4565 18.2143 41.7856 17.5753 41.7856 16.7857Z" fill="#949494"/>
<path d="M38.5714 31.2651V25.1657C38.5714 19.7956 41.7415 15.218 41.9549 15C42.0509 15 45.5075 15 49.2857 15.0003C53.1122 15.0005 56.9388 15.0015 56.9388 15.0015C57.1671 15.2375 60 19.8074 60 25.1657V57.9669C60 59.0906 59.3154 60 58.4694 60H49.2857H40.102C39.256 60 38.5714 59.0906 38.5714 57.9669V47.6657V43.3929V35.8929V31.2651Z" fill="#8F8AFF"/>
<path d="M38.5714 57.9669V47.6657V43.9286V35.3571V31.2651V25.1657C38.5714 19.7956 41.4192 15.218 41.6326 15C41.7286 15 45.5075 15 49.2856 15.0003V60H40.102C39.2559 60 38.5714 59.0906 38.5714 57.9669Z" fill="#BAB6FF"/>
<path d="M30.9757 13.9286C32.9481 13.9286 34.5571 12.4083 34.5937 10.5264C35.1445 10.308 35.7476 10.0098 36.4132 9.68076C38.0542 8.86961 40.0963 7.86011 41.9525 7.86011C42.4521 7.86011 42.8572 7.47196 42.8572 6.99318C42.8572 6.51441 42.4521 6.12626 41.9525 6.12626C40.0963 6.12626 38.0542 5.11676 36.4132 4.3056C35.7476 3.97652 35.1445 3.67841 34.5937 3.45995C34.5578 1.57849 32.9554 0 30.9757 0C29.1268 0 27.6523 1.36465 27.3974 3.00221C25.7469 3.67217 24.6429 5.23235 24.6429 6.99318C24.6429 8.75431 25.7473 10.3147 27.3981 10.9845C27.6624 12.649 29.166 13.9286 30.9757 13.9286Z" fill="#E5E4FF"/>
</svg>
