<svg width="60" height="60" viewBox="0 0 60 60" fill="none" xmlns="http://www.w3.org/2000/svg">
<path d="M49.3359 1.75781C49.3359 2.742 48.5628 3.51562 47.5781 3.51562H15.9375C14.9529 3.51562 14.1797 2.742 14.1797 1.75781C14.1797 0.773163 14.9529 0 15.9375 0H47.5781C48.5628 0 49.3359 0.773163 49.3359 1.75781Z" fill="#949494"/>
<path d="M47.5781 3.51562H37.0312V0H47.5781C48.5628 0 49.3359 0.773163 49.3359 1.75781C49.3359 2.742 48.5628 3.51562 47.5781 3.51562Z" fill="#353535"/>
<path d="M21.1354 49.8166C20.4763 49.8166 19.8446 49.4458 19.5443 48.8109L4.81068 17.5626C4.39686 16.6855 4.77086 15.6368 5.64793 15.2211C6.52867 14.8059 7.5742 15.1817 7.98939 16.0588L22.7234 47.3067C23.1368 48.1842 22.7628 49.2329 21.8857 49.6481C21.6436 49.7635 21.3858 49.8166 21.1354 49.8166Z" fill="#949494"/>
<path d="M54.6094 42.3047C53.638 42.3047 52.8516 41.5182 52.8516 40.5469V8.78906C52.8516 7.81769 53.638 7.03125 54.6094 7.03125C55.5807 7.03125 56.3672 7.81769 56.3672 8.78906V40.5469C56.3672 41.5182 55.5807 42.3047 54.6094 42.3047Z" fill="#353535"/>
<path d="M37.0312 21.0938C26.3786 21.0938 17.6953 29.8943 17.6953 40.5469C17.6953 43.4299 18.3279 46.2071 19.5589 48.8086C22.7225 55.5235 29.5779 60 37.0312 60C47.6839 60 56.3672 51.199 56.3672 40.5469C56.3672 29.8943 47.6839 21.0938 37.0312 21.0938Z" fill="#E5E4FF"/>
<path d="M56.3672 40.5469C56.3672 51.199 47.6839 60 37.0312 60V21.0938C47.6839 21.0938 56.3672 29.8943 56.3672 40.5469Z" fill="#BAB6FF"/>
<path d="M37.0312 24.7266C28.3127 24.7266 21.2109 31.8279 21.2109 40.5469C21.2109 49.406 28.4532 56.3672 37.0312 56.3672C45.7498 56.3672 52.8516 49.2654 52.8516 40.5469C52.8516 31.8279 45.7498 24.7266 37.0312 24.7266Z" fill="#BAB6FF"/>
<path d="M52.8516 40.5469C52.8516 49.2654 45.7498 56.3672 37.0312 56.3672V24.7266C45.7498 24.7266 52.8516 31.8279 52.8516 40.5469Z" fill="#8F8AFF"/>
<path d="M43.2454 49.2467L40.7579 46.7592C40.0713 46.0725 40.0713 44.9602 40.7579 44.2735C41.4445 43.5869 42.5569 43.5869 43.2436 44.2735L45.731 46.761C46.4177 47.4477 46.4177 48.56 45.731 49.2467C45.0444 49.9333 43.932 49.9333 43.2454 49.2467Z" fill="#BAB6FF"/>
<path d="M30.8189 36.8203L28.3314 34.3328C27.6447 33.6462 27.6447 32.5338 28.3314 31.8471C29.018 31.1605 30.1304 31.1605 30.817 31.8471L33.3045 34.3346C33.9912 35.0213 33.9912 36.1336 33.3045 36.8203C32.6179 37.5069 31.5055 37.5069 30.8189 36.8203Z" fill="#E5E4FF"/>
<path d="M30 42.3047H26.4844C25.513 42.3047 24.7266 41.5182 24.7266 40.5469C24.7266 39.5755 25.513 38.7891 26.4844 38.7891H30C30.9714 38.7891 31.7578 39.5755 31.7578 40.5469C31.7578 41.5182 30.9714 42.3047 30 42.3047Z" fill="#E5E4FF"/>
<path d="M28.3314 49.2467C27.6447 48.56 27.6447 47.4477 28.3314 46.761L30.8189 44.2735C31.5055 43.5869 32.6179 43.5869 33.3045 44.2735C33.9912 44.9602 33.9912 46.0725 33.3045 46.7592L30.817 49.2467C30.1304 49.9333 29.018 49.9333 28.3314 49.2467Z" fill="#E5E4FF"/>
<path d="M40.7579 36.8203C40.0713 36.1336 40.0713 35.0213 40.7579 34.3346L43.2454 31.8471C43.932 31.1605 45.0444 31.1605 45.731 31.8471C46.4177 32.5338 46.4177 33.6462 45.731 34.3328L43.2436 36.8203C42.5569 37.5069 41.4445 37.5069 40.7579 36.8203Z" fill="#BAB6FF"/>
<path d="M47.5781 42.3047H44.0625C43.0911 42.3047 42.3047 41.5182 42.3047 40.5469C42.3047 39.5755 43.0911 38.7891 44.0625 38.7891H47.5781C48.5495 38.7891 49.3359 39.5755 49.3359 40.5469C49.3359 41.5182 48.5495 42.3047 47.5781 42.3047Z" fill="#BAB6FF"/>
<path d="M38.7891 47.5781V51.0938C38.7891 52.0779 38.0159 52.8516 37.0312 52.8516C36.0466 52.8516 35.2734 52.0779 35.2734 51.0938V47.5781C35.2734 46.5935 36.0466 45.8203 37.0312 45.8203C38.0159 45.8203 38.7891 46.5935 38.7891 47.5781Z" fill="#E5E4FF"/>
<path d="M38.7891 30V33.5156C38.7891 34.4998 38.0159 35.2734 37.0312 35.2734C36.0466 35.2734 35.2734 34.4998 35.2734 33.5156V30C35.2734 29.0154 36.0466 28.2422 37.0312 28.2422C38.0159 28.2422 38.7891 29.0154 38.7891 30Z" fill="#E5E4FF"/>
<path d="M38.7891 30V33.5156C38.7891 34.4998 38.0159 35.2734 37.0312 35.2734V28.2422C38.0159 28.2422 38.7891 29.0154 38.7891 30Z" fill="#BAB6FF"/>
<path d="M38.7891 47.5781V51.0938C38.7891 52.0779 38.0159 52.8516 37.0312 52.8516V45.8203C38.0159 45.8203 38.7891 46.5935 38.7891 47.5781Z" fill="#BAB6FF"/>
<path d="M37.0312 31.7578C32.1799 31.7578 28.2422 35.6955 28.2422 40.5469C28.2422 45.3983 32.1799 49.3359 37.0312 49.3359C41.8826 49.3359 45.8203 45.3983 45.8203 40.5469C45.8203 35.6955 41.8826 31.7578 37.0312 31.7578Z" fill="#E5E4FF"/>
<path d="M45.8203 40.5469C45.8203 45.3983 41.8826 49.3359 37.0312 49.3359V31.7578C41.8826 31.7578 45.8203 35.6955 45.8203 40.5469Z" fill="#BAB6FF"/>
<path d="M42.3047 40.5469C42.3047 43.4651 39.9495 45.8203 37.0312 45.8203C34.113 45.8203 31.7578 43.4651 31.7578 40.5469C31.7578 37.6286 34.113 35.2734 37.0312 35.2734C39.9495 35.2734 42.3047 37.6286 42.3047 40.5469Z" fill="#BAB6FF"/>
<path d="M42.3047 40.5469C42.3047 43.4651 39.9495 45.8203 37.0312 45.8203V35.2734C39.9495 35.2734 42.3047 37.6286 42.3047 40.5469Z" fill="#8F8AFF"/>
<path d="M38.7891 40.5469C38.7891 41.5315 38.0159 42.3047 37.0312 42.3047C36.0466 42.3047 35.2734 41.5315 35.2734 40.5469C35.2734 39.5622 36.0466 38.7891 37.0312 38.7891C38.0159 38.7891 38.7891 39.5622 38.7891 40.5469Z" fill="#E5E4FF"/>
<path d="M38.7891 40.5469C38.7891 41.5315 38.0159 42.3047 37.0312 42.3047V38.7891C38.0159 38.7891 38.7891 39.5622 38.7891 40.5469Z" fill="#BAB6FF"/>
<path d="M47.5781 17.5781C42.7322 17.5781 38.7891 13.6349 38.7891 8.78906C38.7891 3.94318 42.7322 0 47.5781 0C52.424 0 56.3672 3.94318 56.3672 8.78906C56.3672 13.6349 52.424 17.5781 47.5781 17.5781Z" fill="#BAB6FF"/>
<path d="M47.5781 3.51562C44.6704 3.51562 42.3047 5.88135 42.3047 8.78906C42.3047 11.6968 44.6704 14.0625 47.5781 14.0625C50.4858 14.0625 52.8516 11.6968 52.8516 8.78906C52.8516 5.88135 50.4858 3.51562 47.5781 3.51562Z" fill="#8F8AFF"/>
<path d="M49.3359 8.78906C49.3359 9.75998 48.549 10.5469 47.5781 10.5469C46.6072 10.5469 45.8203 9.75998 45.8203 8.78906C45.8203 7.81815 46.6072 7.03125 47.5781 7.03125C48.549 7.03125 49.3359 7.81815 49.3359 8.78906Z" fill="#BAB6FF"/>
<path d="M15.9375 24.7266C11.2033 24.7266 6.83624 21.844 4.81064 17.5626C4.02924 15.9114 3.63281 14.1431 3.63281 12.3047C3.63281 5.52063 9.15344 0 15.9375 0C22.7216 0 28.2422 5.52063 28.2422 12.3047C28.2422 19.0887 22.7216 24.7266 15.9375 24.7266Z" fill="#E5E4FF"/>
<path d="M15.9375 3.51562C11.0916 3.51562 7.14844 7.4588 7.14844 12.3047C7.14844 13.618 7.43179 14.8814 7.98798 16.0588C9.4368 19.118 12.556 21.0938 15.9375 21.0938C20.7834 21.0938 24.7266 17.1506 24.7266 12.3047C24.7266 7.4588 20.7834 3.51562 15.9375 3.51562Z" fill="#BAB6FF"/>
<path d="M15.9375 17.5781C13.0298 17.5781 10.6641 15.2124 10.6641 12.3047C10.6641 9.39697 13.0298 7.03125 15.9375 7.03125C18.8452 7.03125 21.2109 9.39697 21.2109 12.3047C21.2109 15.2124 18.8452 17.5781 15.9375 17.5781Z" fill="#E5E4FF"/>
<path d="M15.9375 14.0625C14.9675 14.0625 14.1797 13.2747 14.1797 12.3047C14.1797 11.3347 14.9675 10.5469 15.9375 10.5469C16.9075 10.5469 17.6953 11.3347 17.6953 12.3047C17.6953 13.2747 16.9075 14.0625 15.9375 14.0625Z" fill="#BAB6FF"/>
</svg>
