<svg width="60" height="60" viewBox="0 0 60 60" fill="none" xmlns="http://www.w3.org/2000/svg">
<path fill-rule="evenodd" clip-rule="evenodd" d="M46.7579 12.5845L36.1922 1.78931H14.3677L3.56934 12.8608L46.7579 12.5845Z" fill="#EDF3F6"/>
<path fill-rule="evenodd" clip-rule="evenodd" d="M29.9946 12.6918L46.758 12.5845L36.1923 1.78931H29.9946V12.6918Z" fill="#E1EDF0"/>
<path d="M50.5075 10.6163H47.3128L37.4375 0.526521C37.1075 0.189423 36.6595 0 36.1922 0H14.3677C13.8993 0 13.4502 0.190258 13.1202 0.528668L2.49117 11.4266C0.996914 12.3746 0 14.0606 0 15.9798V22.4297C0 25.3872 2.36578 27.7932 5.27379 27.7932H58.2422C59.213 27.7932 60 26.9921 60 26.004V20.2787C60 14.9509 55.7416 10.6163 50.5075 10.6163ZM42.3503 10.6163H25.4882V3.57853H35.4621L42.3503 10.6163ZM15.0995 3.57853H21.9725V10.6163H8.23535L15.0995 3.57853Z" fill="#FF6857"/>
<path d="M50.5074 10.6163H47.3127L37.4374 0.526521C37.1074 0.189423 36.6594 0 36.1921 0H29.9944V3.57853H35.462L42.3501 10.6163H29.9944V27.7932H58.2421C59.2129 27.7932 59.9999 26.9921 59.9999 26.004V20.2787C59.9999 14.9509 55.7415 10.6163 50.5074 10.6163Z" fill="#E71700"/>
<path d="M45.9622 56.0639C45.664 56.0639 45.3617 55.9866 45.0849 55.8239L13.1475 37.055C12.3068 36.5609 12.0187 35.4666 12.5041 34.6108C12.9894 33.7551 14.0645 33.4617 14.9053 33.9559L46.8427 52.7249C47.6836 53.2189 47.9716 54.3132 47.4861 55.169C47.1606 55.743 46.5697 56.0639 45.9622 56.0639Z" fill="#BAB6FF"/>
<path d="M11.9626 33.4676C8.20957 33.4676 5.15625 30.3597 5.15625 26.5395C5.15625 22.7194 8.20957 19.6115 11.9626 19.6115C15.7157 19.6115 18.769 22.7194 18.769 26.5395C18.7689 30.3597 15.7155 33.4676 11.9626 33.4676Z" fill="#646464"/>
<path d="M47.0602 33.4676C43.3072 33.4676 40.2539 30.3597 40.2539 26.5395C40.2539 22.7194 43.3072 19.6115 47.0602 19.6115C50.8132 19.6115 53.8665 22.7194 53.8665 26.5395C53.8665 30.3597 50.8132 33.4676 47.0602 33.4676Z" fill="#353535"/>
<path d="M13.7597 56.3479C13.1521 56.3479 12.5613 56.0271 12.2358 55.4531C11.7504 54.5973 12.0384 53.503 12.8791 53.0089L44.8165 34.24C45.6573 33.746 46.7323 34.039 47.2177 34.8949C47.7032 35.7507 47.4151 36.845 46.5743 37.339L14.6368 56.1079C14.3602 56.2707 14.0578 56.3479 13.7597 56.3479Z" fill="#E5E4FF"/>
<path d="M56.0107 37.0179H3.97949C3.00871 37.0179 2.22168 36.2167 2.22168 35.2286C2.22168 34.2404 3.00871 33.4393 3.97949 33.4393H56.0107C56.9815 33.4393 57.7686 34.2404 57.7686 35.2286C57.7686 36.2167 56.9815 37.0179 56.0107 37.0179Z" fill="#646464"/>
<path d="M56.0156 60H3.97461C3.00383 60 2.2168 59.1989 2.2168 58.2107V54.6322C2.2168 53.6441 3.00383 52.843 3.97461 52.843H56.0156C56.9864 52.843 57.7734 53.6441 57.7734 54.6322V58.2107C57.7734 59.1989 56.9864 60 56.0156 60Z" fill="#646464"/>
<path d="M11.9626 30.118C10.0241 30.118 8.44702 28.5127 8.44702 26.5395C8.44702 24.5663 10.0241 22.9609 11.9626 22.9609C13.9012 22.9609 15.4783 24.5663 15.4783 26.5395C15.4783 28.5127 13.9012 30.118 11.9626 30.118Z" fill="#949494"/>
<path d="M47.0603 30.118C45.1218 30.118 43.5447 28.5127 43.5447 26.5395C43.5447 24.5663 45.1218 22.9609 47.0603 22.9609C48.9988 22.9609 50.5759 24.5663 50.5759 26.5395C50.5759 28.5127 48.9988 30.118 47.0603 30.118Z" fill="#646464"/>
<path d="M47.4863 34.6108C47.0008 33.7549 45.9259 33.4618 45.0851 33.9559L29.9946 42.8242V46.9564L46.8429 37.055C47.6836 36.5608 47.9717 35.4665 47.4863 34.6108Z" fill="#8F8AFF"/>
<path d="M46.8429 52.7249L29.9946 42.8235V46.9557L45.0851 55.824C45.3619 55.9867 45.6641 56.064 45.9624 56.064C46.5699 56.064 47.1607 55.7431 47.4863 55.1691C47.9717 54.3133 47.6836 53.2189 46.8429 52.7249Z" fill="#BAB6FF"/>
<path d="M56.011 33.4393H29.9946V37.0179H56.011C56.9817 37.0179 57.7688 36.2167 57.7688 35.2286C57.7688 34.2404 56.9817 33.4393 56.011 33.4393Z" fill="#353535"/>
<path d="M56.0158 52.843H29.9946V60H56.0158C56.9866 60 57.7736 59.1989 57.7736 58.2107V54.6322C57.7736 53.6441 56.9866 52.843 56.0158 52.843Z" fill="#353535"/>
</svg>
