<svg width="60" height="60" viewBox="0 0 60 60" fill="none" xmlns="http://www.w3.org/2000/svg">
<path d="M48.4615 0H11.5385C8.67541 0 6.34619 2.32922 6.34619 5.19234V54.8078C6.34619 57.6708 8.67541 60 11.5385 60H48.4616C51.3246 60 53.654 57.6708 53.654 54.8077V5.19234C53.6538 2.32922 51.3246 0 48.4615 0Z" fill="#FF6857"/>
<path d="M48.4615 0H30V60H48.4615C51.3245 60 53.6538 57.6708 53.6538 54.8077V5.19234C53.6538 2.32922 51.3246 0 48.4615 0Z" fill="#E71700"/>
<path d="M45 6.9231H15C14.0441 6.9231 13.2693 7.69806 13.2693 8.65384V48.4615C13.2693 49.4174 14.0442 50.1922 15 50.1922H45C45.9559 50.1922 46.7308 49.4173 46.7308 48.4615V8.65384C46.7308 7.69806 45.9559 6.9231 45 6.9231Z" fill="#E5E4FF"/>
<path d="M26.4828 10H17.5172C17.2316 10 17 10.0896 17 10.2V14.8C17 14.9105 17.2316 15 17.5172 15H26.4828C26.7684 15 27 14.9104 27 14.8V10.2C27 10.0896 26.7684 10 26.4828 10Z" fill="#BAB6FF"/>
<path d="M26.4828 17H17.5172C17.2316 17 17 17.0896 17 17.2V21.8C17 21.9105 17.2316 22 17.5172 22H26.4828C26.7684 22 27 21.9104 27 21.8V17.2C27 17.0896 26.7684 17 26.4828 17Z" fill="#BAB6FF"/>
<path d="M26.4828 24H17.5172C17.2316 24 17 24.0896 17 24.2V28.8C17 28.9105 17.2316 29 17.5172 29H26.4828C26.7684 29 27 28.9104 27 28.8V24.2C27 24.0896 26.7684 24 26.4828 24Z" fill="#BAB6FF"/>
<path d="M26.4828 31H17.5172C17.2316 31 17 31.0896 17 31.2V35.8C17 35.9105 17.2316 36 17.5172 36H26.4828C26.7684 36 27 35.9104 27 35.8V31.2C27 31.0896 26.7684 31 26.4828 31Z" fill="#BAB6FF"/>
<path d="M45 6.9231H30V50.1924H45C45.9559 50.1924 46.7307 49.4174 46.7307 48.4616V8.65384C46.7307 7.69806 45.9559 6.9231 45 6.9231Z" fill="#BAB6FF"/>
<path d="M43.9004 40.6447C43.7529 41.6623 43.418 42.6574 42.8965 43.5744H35.3008L32.9912 46.5969C32.3654 47.4137 31.1142 47.351 30.5762 46.469L29.9023 45.3625L27.8457 41.9865L26.5225 43.594C26.2441 43.9319 25.8291 44.1272 25.3916 44.1272H17.2471C16.6357 43.2248 16.2197 42.2278 16 41.1975H24.7002L26.8936 38.5334C27.5317 37.7589 28.7488 37.8386 29.2754 38.7024C30.0868 40.0346 29.5441 39.1436 31.9639 43.1164L33.4131 41.2199C33.6904 40.8576 34.1211 40.6447 34.5772 40.6447H43.9004Z" fill="#949494"/>
<path d="M43.9004 40.6446C43.7529 41.6622 43.418 42.6573 42.8965 43.5743H35.3008L32.9912 46.5968C32.3654 47.4136 31.1142 47.3509 30.5762 46.4689L29.9023 45.3624V39.7316L31.9639 43.1163L33.4131 41.2198C33.6904 40.8575 34.1211 40.6446 34.5772 40.6446H43.9004Z" fill="#646464"/>
<path d="M31.7215 53.2524C31.7169 53.1971 31.7077 53.1405 31.6961 53.0851C31.6855 53.0297 31.6718 52.9743 31.6555 52.9201C31.6383 52.867 31.6198 52.8127 31.5979 52.7608C31.5761 52.7089 31.5518 52.6581 31.5252 52.6084C31.4988 52.5578 31.4699 52.5093 31.4387 52.462C31.4075 52.4158 31.3741 52.3696 31.3383 52.3258C31.3015 52.2818 31.2634 52.2393 31.224 52.1999C31.1836 52.1595 31.1409 52.1205 31.0971 52.0845C31.0533 52.0488 31.0071 52.0152 30.9609 51.9842C30.9136 51.9529 30.8652 51.9241 30.8143 51.8977C30.7658 51.8711 30.7139 51.847 30.6621 51.8249C30.6102 51.8031 30.5558 51.7845 30.5027 51.7673C30.4485 51.7511 30.3933 51.7373 30.3377 51.7259C30.2824 51.7155 30.2258 51.7063 30.1692 51.7004C30.0573 51.6899 29.9419 51.6889 29.8288 51.7004C29.7735 51.7062 29.7169 51.7155 29.6615 51.7259C29.6061 51.7374 29.5507 51.7513 29.4965 51.7673C29.4434 51.7846 29.3891 51.8031 29.3372 51.8249C29.2853 51.8468 29.2334 51.8711 29.1849 51.8977C29.1342 51.9241 29.0857 51.953 29.0384 51.9842C28.9922 52.0154 28.946 52.0488 28.9022 52.0845C28.8583 52.1204 28.8157 52.1595 28.7752 52.1999C28.7359 52.2393 28.6966 52.2818 28.6609 52.3258C28.6252 52.3696 28.5916 52.4157 28.5606 52.462C28.5293 52.5093 28.5005 52.5577 28.4741 52.6084C28.4476 52.6581 28.4234 52.7089 28.4013 52.7608C28.3795 52.8127 28.3609 52.867 28.3437 52.9201C28.3275 52.9743 28.3137 53.0296 28.3023 53.0851C28.2919 53.1405 28.2827 53.1971 28.2768 53.2524C28.271 53.3089 28.2688 53.3667 28.2688 53.4231C28.2688 53.4796 28.2711 53.5374 28.2768 53.5938C28.2826 53.6492 28.2919 53.7058 28.3023 53.7611C28.3138 53.8165 28.3277 53.8719 28.3437 53.9261C28.361 53.9792 28.3795 54.0336 28.4013 54.0855C28.4233 54.1373 28.4475 54.1881 28.4741 54.2377C28.5005 54.2885 28.5294 54.337 28.5606 54.3843C28.5918 54.4304 28.6252 54.4767 28.6609 54.5205C28.6968 54.5643 28.7359 54.607 28.7752 54.6474C28.8157 54.6868 28.8583 54.726 28.9022 54.7617C28.946 54.7975 28.9921 54.831 29.0384 54.8621C29.0857 54.8934 29.1341 54.9222 29.1849 54.9486C29.2334 54.9751 29.2853 54.9993 29.3372 55.0212C29.3891 55.0431 29.4434 55.0618 29.4965 55.0789C29.5507 55.0952 29.606 55.1089 29.6615 55.1204C29.7169 55.1308 29.7735 55.1399 29.8288 55.1458C29.8853 55.1515 29.9431 55.1539 29.9995 55.1539C30.056 55.1539 30.1125 55.1514 30.1691 55.1458C30.2257 55.1402 30.2822 55.1308 30.3376 55.1204C30.3931 55.1088 30.4484 55.0949 30.5026 55.0789C30.5557 55.0617 30.6101 55.0431 30.662 55.0212C30.7138 54.9994 30.7647 54.9752 30.8142 54.9486C30.865 54.9222 30.9135 54.8933 30.9608 54.8621C31.0069 54.8309 31.0532 54.7975 31.097 54.7617C31.1408 54.7259 31.1835 54.6868 31.2239 54.6474C31.2633 54.607 31.3014 54.5643 31.3382 54.5205C31.374 54.4767 31.4075 54.4305 31.4386 54.3843C31.4699 54.337 31.4987 54.2886 31.5251 54.2377C31.5516 54.1892 31.5758 54.1373 31.5977 54.0855C31.6197 54.0336 31.6383 53.9792 31.6554 53.9261C31.6717 53.8719 31.6854 53.8167 31.6959 53.7611C31.7074 53.7058 31.7167 53.6492 31.7214 53.5938C31.7271 53.5374 31.7306 53.4796 31.7306 53.4231C31.7306 53.3667 31.7273 53.3089 31.7215 53.2524Z" fill="#FF8D3B"/>
<path d="M31.6962 53.0849C31.6856 53.0296 31.6719 52.9742 31.6556 52.9199C31.6384 52.8668 31.6199 52.8126 31.598 52.7606C31.5762 52.7087 31.5519 52.658 31.5253 52.6083C31.4989 52.5577 31.47 52.5092 31.4388 52.4618C31.4077 52.4156 31.3742 52.3695 31.3384 52.3256C31.3016 52.2817 31.2635 52.2392 31.2241 52.1998C31.1837 52.1594 31.141 52.1203 31.0972 52.0844C31.0534 52.0486 31.0072 52.0151 30.961 51.984C30.9137 51.9528 30.8653 51.9239 30.8144 51.8976C30.7659 51.8711 30.714 51.8468 30.6622 51.8248C30.6103 51.803 30.5559 51.7844 30.5028 51.7671C30.4486 51.751 30.3934 51.7371 30.3378 51.7258C30.2825 51.7153 30.2259 51.7062 30.1693 51.7002C30.1134 51.6951 30.0567 51.6921 29.9998 51.692V55.1538C30.0562 55.1538 30.1127 55.1514 30.1693 55.1458C30.2259 55.1401 30.2824 55.1308 30.3378 55.1203C30.3933 55.1087 30.4486 55.0949 30.5028 55.0788C30.5559 55.0616 30.6103 55.0431 30.6622 55.0212C30.714 54.9994 30.7649 54.9751 30.8144 54.9485C30.8652 54.9222 30.9137 54.8932 30.961 54.8621C31.0071 54.8309 31.0534 54.7975 31.0972 54.7616C31.141 54.7259 31.1837 54.6867 31.2241 54.6474C31.2635 54.6069 31.3016 54.5643 31.3384 54.5204C31.3742 54.4766 31.4078 54.4305 31.4388 54.3843C31.4701 54.3369 31.4989 54.2885 31.5253 54.2377C31.5518 54.1892 31.576 54.1372 31.598 54.0854C31.6199 54.0335 31.6385 53.9792 31.6556 53.9261C31.6719 53.8718 31.6856 53.8166 31.6962 53.7611C31.7077 53.7058 31.7169 53.6492 31.7216 53.5937C31.7273 53.5374 31.7309 53.4796 31.7309 53.4231C31.7309 53.3666 31.7273 53.3089 31.7216 53.2524C31.7169 53.1969 31.7077 53.1405 31.6962 53.0849Z" fill="#FF6857"/>
<path d="M42.4828 10H33.5172C33.2316 10 33 10.0896 33 10.2V14.8C33 14.9105 33.2316 15 33.5172 15H42.4828C42.7684 15 43 14.9104 43 14.8V10.2C43 10.0896 42.7684 10 42.4828 10Z" fill="#8F8AFF"/>
<path d="M42.4828 17H33.5172C33.2316 17 33 17.0896 33 17.2V21.8C33 21.9105 33.2316 22 33.5172 22H42.4828C42.7684 22 43 21.9104 43 21.8V17.2C43 17.0896 42.7684 17 42.4828 17Z" fill="#8F8AFF"/>
<path d="M42.4828 24H33.5172C33.2316 24 33 24.0896 33 24.2V28.8C33 28.9105 33.2316 29 33.5172 29H42.4828C42.7684 29 43 28.9104 43 28.8V24.2C43 24.0896 42.7684 24 42.4828 24Z" fill="#8F8AFF"/>
<path d="M42.4828 31H33.5172C33.2316 31 33 31.0896 33 31.2V35.8C33 35.9105 33.2316 36 33.5172 36H42.4828C42.7684 36 43 35.9104 43 35.8V31.2C43 31.0896 42.7684 31 42.4828 31Z" fill="#8F8AFF"/>
</svg>
