<svg width="60" height="60" viewBox="0 0 60 60" fill="none" xmlns="http://www.w3.org/2000/svg">
<path d="M21 8.25H31.5V15.75H21V8.25Z" fill="#BAB6FF"/>
<path d="M26.25 8.25H31.5V15.75H26.25V8.25Z" fill="#8F8AFF"/>
<path d="M1.5 27H12.75V39.75H1.5V27Z" fill="#646464"/>
<path d="M42.75 27.75H56.25V46.5H42.75V27.75Z" fill="#353535"/>
<path d="M44.0192 21H38.7115L35.25 24.5833V49.6667L38.7115 53.25H44.0192C44.9757 53.25 45.75 52.4484 45.75 51.4583V22.7917C45.75 21.8016 44.9757 21 44.0192 21Z" fill="#646464"/>
<path d="M39 15.3068V53.25H23.0353C22.5743 53.25 22.1128 53.0693 21.7936 52.7079L15.1947 46.0227H14.166L10.5 42.9874V24.3409L14.166 20.7273V15.3068C14.166 14.2947 14.9462 13.5 15.9398 13.5H37.2261C38.2198 13.5 39 14.2947 39 15.3068Z" fill="#646464"/>
<path d="M39 15.3068V53.25H26.25V13.5H37.1786C38.1989 13.5 39 14.2947 39 15.3068Z" fill="#353535"/>
<path d="M29.3697 29.0062C28.7697 28.1841 28.0738 27.1927 27.2338 25.9836C27.0178 25.6451 26.6338 25.5 26.2497 25.5C25.8659 25.5 25.4819 25.6451 25.2659 25.9836C24.4256 27.1927 23.73 28.1841 23.13 29.0062C21.0897 31.8598 20.25 33.1252 20.25 35.2048C20.25 38.5416 22.9378 41.25 26.25 41.25C29.5619 41.25 32.25 38.5416 32.25 35.2048C32.2497 33.1252 31.4097 31.8598 29.3697 29.0062Z" fill="#FF8D3B"/>
<path d="M29.37 29.0062C31.41 31.8598 32.25 33.1252 32.25 35.2048C32.25 38.5416 29.5619 41.25 26.25 41.25V25.5C26.6341 25.5 27.0181 25.6451 27.2341 25.9836C28.0741 27.1927 28.77 28.1841 29.37 29.0062Z" fill="#FF6857"/>
<path d="M1.875 46.5C0.838867 46.5 0 45.6611 0 44.625V22.125C0 21.0889 0.838867 20.25 1.875 20.25C2.91113 20.25 3.75 21.0889 3.75 22.125V44.625C3.75 45.6611 2.91113 46.5 1.875 46.5Z" fill="#949494"/>
<path d="M39 8.625C39 9.67481 38.2224 10.5 37.2321 10.5H16.0179C15.0276 10.5 14.25 9.67481 14.25 8.625C14.25 7.57471 15.0276 6.75 16.0179 6.75H37.2321C38.2224 6.75 39 7.57471 39 8.625Z" fill="#E5E4FF"/>
<path d="M37.1786 10.5H26.25V6.75H37.1786C38.1989 6.75 39 7.57471 39 8.625C39 9.67481 38.1989 10.5 37.1786 10.5Z" fill="#BAB6FF"/>
<path d="M8.59426 20.625C7.57512 20.625 6.75 21.4399 6.75 22.4464V44.3036C6.75 45.3101 7.57512 46.125 8.59426 46.125H14.25V20.625H8.59426Z" fill="#949494"/>
<path d="M58.3125 50.25H54.9375C54.005 50.25 53.25 49.4351 53.25 48.4286V26.5714C53.25 25.5649 54.005 24.75 54.9375 24.75H58.3125C59.245 24.75 60 25.5649 60 26.5714V48.4286C60 49.4351 59.245 50.25 58.3125 50.25Z" fill="#646464"/>
</svg>
