<svg width="54" height="60" viewBox="0 0 54 60" fill="none" xmlns="http://www.w3.org/2000/svg">
<path d="M15.3 12V2C15.3 0.880207 16.4091 0 17.82 0H37.98C39.3916 0 40.5 0.880207 40.5 2V12L35.2585 16H19.6851L15.3 12Z" fill="#646464"/>
<path d="M17.8199 0H27.8999V16H19.685L15.2999 12V2C15.2999 0.880207 16.409 0 17.8199 0Z" fill="#353535"/>
<path d="M7.78562 21H46.2156C47.6086 21 48.8095 22.2582 48.5693 23.5163L43.8137 51.5165L39.01 56H13.8866L10.1875 51.5165L5.43191 23.5163C5.19172 22.3017 6.3445 21 7.78562 21Z" fill="#FF8D3B"/>
<path d="M5.43304 23.5163L10.3867 51.5165L14.2398 56H27.8999V21H7.88476C6.38363 21 5.18285 22.3017 5.43304 23.5163Z" fill="#FF6857"/>
<path d="M25.2 25.3094L22.5 21L19.8 25.3094L22.1516 47H25.2V25.3094Z" fill="#E71700"/>
<path d="M29.7 47H32.2405L34.2 25.3094L31.9503 21L29.7 25.3094V47Z" fill="#FF6857"/>
<path d="M44.1001 25.3094L41.9225 21L39.7208 25.3094L37.8001 47H40.2586L44.1001 25.3094Z" fill="#FF6857"/>
<path d="M18 47L15.5305 25.3094L13.8095 21L9.9 25.3094L14.839 47H18Z" fill="#E71700"/>
<path d="M0.246281 21.8798L3.83016 15.5964C5.05738 13.3869 7.60963 12 10.408 12H43.5922C46.3899 12 48.9428 13.3869 50.17 15.5964L53.7532 21.8798C54.0971 22.5298 54.0971 23.3536 53.6548 23.9601C53.1646 24.6101 52.379 25 51.5442 25H2.45528C1.62115 25 0.834965 24.6101 0.344715 23.9601C-0.0969582 23.3536 -0.0969582 22.5298 0.246281 21.8798Z" fill="#949494"/>
<path d="M0.356113 23.9601C0.863371 24.6101 1.67511 25 2.53705 25H27.8999V12H10.7549C7.86325 12 5.22591 13.3869 3.95777 15.5964L0.254398 21.8798C-0.100285 22.5298 -0.100285 23.3536 0.356113 23.9601Z" fill="#646464"/>
<path d="M9.9001 51V57.7869C9.9001 59.026 10.9752 60 12.343 60H41.6572C43.0256 60 44.1001 59.026 44.1001 57.7869V51H9.9001Z" fill="#949494"/>
<path d="M27.8999 51H9.8999V57.7869C9.8999 59.026 11.0316 60 12.4713 60H27.8999V51Z" fill="#646464"/>
</svg>
