<svg width="60" height="60" viewBox="0 0 60 60" fill="none" xmlns="http://www.w3.org/2000/svg">
<path d="M24.7183 7.14612H35.2615V17.6893H24.7183V7.14612Z" fill="#646464"/>
<path d="M29.99 7.14612H35.2616V17.6893H29.99V7.14612Z" fill="#353535"/>
<path d="M8.99494 22.652C6.94096 20.5962 3.59653 20.5994 1.53889 22.652C-0.513268 24.7092 -0.513267 28.0522 1.54072 30.1062L18.0591 46.6251L21.3834 35.04L8.99494 22.652Z" fill="#646464"/>
<path d="M58.4555 22.7706C56.4015 20.7216 53.0584 20.7198 51.0008 22.7724L38.6128 35.1604L41.9371 46.7455L58.4555 30.2285C59.4507 29.2333 60 27.9085 60 26.4995C60 25.0923 59.4507 23.7676 58.4555 22.7706Z" fill="#353535"/>
<path d="M29.99 28.2325C23.2073 28.2325 17.6895 33.7504 17.6895 40.5331V58.2225C17.6895 59.2067 18.4626 59.9798 19.4468 59.9798H40.5332C41.5174 59.9798 42.2906 59.2067 42.2906 58.2225V40.5331C42.2906 33.7504 36.7727 28.2325 29.99 28.2325Z" fill="#949494"/>
<path d="M42.2906 40.5331V58.2225C42.2906 59.2067 41.5174 59.9798 40.5332 59.9798H29.99V28.2325C36.7727 28.2325 42.2906 33.7504 42.2906 40.5331Z" fill="#646464"/>
<path d="M29.9899 0C25.1399 0 21.2036 4.0535 21.2036 8.90305C21.2036 9.88724 21.9768 10.6604 22.961 10.6604H37.0189C38.0031 10.6604 38.7762 9.88724 38.7762 8.90305C38.7762 4.0535 34.8399 0 29.9899 0Z" fill="#949494"/>
<path d="M29.9899 35.2616C27.073 35.2616 24.7183 37.6163 24.7183 40.5332C24.7183 43.4501 27.073 45.8048 29.9899 45.8048C32.9072 45.8048 35.2615 43.4501 35.2615 40.5332C35.2615 37.6163 32.9072 35.2616 29.9899 35.2616Z" fill="#646464"/>
<path d="M21.0799 14.1752C20.6135 14.1752 20.1671 14.3601 19.838 14.6897L1.44872 33.079C0.762535 33.7652 0.762535 34.8771 1.44872 35.5637C2.13491 36.2499 3.24728 36.2499 3.93346 35.5637L21.2035 18.2937L24.7182 16.1518L21.2035 14.1752H21.0799Z" fill="#E5E4FF"/>
<path d="M58.6926 33.079L40.3033 14.6897C39.9737 14.3601 39.5278 14.1747 39.0609 14.1747H38.7762L35.2615 16.0053L38.7762 18.1321L56.2074 35.5637C56.894 36.2499 58.0059 36.2499 58.6926 35.5637C59.3788 34.877 59.3788 33.7651 58.6926 33.079Z" fill="#BAB6FF"/>
<path d="M51.2379 40.5332L35.7765 25.0718C35.0898 24.3856 35.0898 23.2732 35.7765 22.587C36.4626 21.9008 37.575 21.9008 38.2612 22.587L53.7226 38.0484C54.4093 38.7346 54.4093 39.847 53.7226 40.5332C53.0364 41.2198 51.9241 41.2198 51.2379 40.5332Z" fill="#BAB6FF"/>
<path d="M6.41821 40.5332C5.73202 39.847 5.73202 38.7346 6.41821 38.0484L21.7185 22.7482C22.4051 22.062 23.517 22.062 24.2032 22.7482C24.8899 23.4348 24.8899 24.5467 24.2032 25.2334L8.90295 40.5332C8.21676 41.2198 7.10485 41.2198 6.41821 40.5332Z" fill="#E5E4FF"/>
<path d="M37.019 10.6604H29.99V0C34.84 0 38.7763 4.0535 38.7763 8.90305C38.7763 9.88724 38.0031 10.6604 37.019 10.6604Z" fill="#646464"/>
<path d="M35.2616 40.5332C35.2616 43.4501 32.9073 45.8048 29.99 45.8048V35.2616C32.9073 35.2616 35.2616 37.6163 35.2616 40.5332Z" fill="#353535"/>
<path d="M38.7762 14.1752V22.961C38.7762 23.9452 38.0031 24.7184 37.0189 24.7184H22.961C21.9768 24.7184 21.2036 23.9452 21.2036 22.961V14.1752H38.7762Z" fill="#949494"/>
<path d="M37.019 24.7184H29.99V14.1752H38.7763V22.961C38.7763 23.9452 38.0031 24.7184 37.019 24.7184Z" fill="#646464"/>
<path d="M56.1197 47.5062C55.5197 46.6841 54.8238 45.6927 53.9838 44.4836C53.7678 44.1451 53.3838 44 52.9997 44C52.6159 44 52.2319 44.1451 52.0159 44.4836C51.1756 45.6927 50.48 46.6841 49.88 47.5062C47.8397 50.3598 47 51.6252 47 53.7048C47 57.0416 49.6878 59.75 53 59.75C56.3119 59.75 59 57.0416 59 53.7048C58.9997 51.6252 58.1597 50.3598 56.1197 47.5062Z" fill="#BAB6FF"/>
<path d="M55.0798 4.44879C54.6798 3.87464 54.2158 3.18218 53.6558 2.33776C53.5119 2.10137 53.2558 2 52.9998 2C52.744 2 52.4879 2.10137 52.344 2.33776C51.7838 3.18218 51.32 3.87464 50.92 4.44879C49.5598 6.44174 49 7.32551 49 8.77794C49 11.1084 50.7919 13 53 13C55.2079 13 57 11.1084 57 8.77794C56.9998 7.32551 56.4398 6.44174 55.0798 4.44879Z" fill="#BAB6FF"/>
<path d="M56.12 47.5062C58.16 50.3598 59 51.6252 59 53.7048C59 57.0416 56.3119 59.75 53 59.75V44C53.3841 44 53.7681 44.1451 53.9841 44.4836C54.8241 45.6927 55.52 46.6841 56.12 47.5062Z" fill="#8F8AFF"/>
<path d="M55.08 4.44879C56.44 6.44174 57 7.32551 57 8.77794C57 11.1084 55.2079 13 53 13V2C53.256 2 53.5121 2.10137 53.656 2.33776C54.216 3.18218 54.68 3.87464 55.08 4.44879Z" fill="#8F8AFF"/>
</svg>
