<svg width="60" height="60" viewBox="0 0 60 60" fill="none" xmlns="http://www.w3.org/2000/svg">
<path d="M1.75781 22H58.2422C59.2268 22 60 22.7574 60 23.7221V58.2779C60 59.2421 59.2268 60 58.2422 60H1.75781C0.773163 60 0 59.2421 0 58.2779V23.7221C0 22.7574 0.773163 22 1.75781 22Z" fill="#E5E4FF"/>
<path d="M0 23.7221V58.2779C0 59.2421 0.773163 60 1.75781 60H30V22H1.75781C0.773163 22 0 22.7574 0 23.7221Z" fill="#BAB6FF"/>
<path d="M28.2422 15.9375V30C28.2422 30.9842 29.0154 31.7578 30 31.7578C30.9846 31.7578 31.7578 30.9842 31.7578 30V15.9375C31.7578 14.9529 30.9846 14.1797 30 14.1797C29.0154 14.1797 28.2422 14.9529 28.2422 15.9375Z" fill="#646464"/>
<path d="M28.2422 15.9375V30C28.2422 30.9842 29.0154 31.7578 30 31.7578V14.1797C29.0154 14.1797 28.2422 14.9529 28.2422 15.9375Z" fill="#353535"/>
<path d="M10.7692 27C13.9618 27 16.5385 29.6797 16.5385 33V35H24.2308V33C24.2308 29.6797 26.8074 27 30 27C33.1926 27 35.7692 29.6797 35.7692 33V35H43.4615V33C43.4615 29.6797 46.0382 27 49.2308 27C52.4234 27 55 29.6797 55 33V49C55 52.3198 52.4234 55 49.2308 55C46.0382 55 43.4615 52.3198 43.4615 49V47H35.7692V49C35.7692 52.3198 33.1926 55 30 55C26.8074 55 24.2308 52.3198 24.2308 49V47H16.5385V49C16.5385 52.3198 13.9618 55 10.7692 55C7.57662 55 5 52.3198 5 49V33C5 29.6797 7.57662 27 10.7692 27Z" fill="#949494"/>
<path d="M5 33V49C5 52.3198 7.57662 55 10.7692 55C13.9618 55 16.5385 52.3198 16.5385 49V47H24.2308V49C24.2308 52.3198 26.8074 55 30 55V27C26.8074 27 24.2308 29.6797 24.2308 33V35H16.5385V33C16.5385 29.6797 13.9618 27 10.7692 27C7.57662 27 5 29.6797 5 33Z" fill="#646464"/>
<path d="M32.0798 38.2262C31.6798 37.7042 31.2158 37.0747 30.6558 36.3071C30.5119 36.0922 30.2558 36 29.9998 36C29.744 36 29.4879 36.0922 29.344 36.3071C28.7838 37.0747 28.32 37.7042 27.92 38.2262C26.5598 40.0379 26 40.8414 26 42.1618C26 44.2804 27.7919 46 30 46C32.2079 46 34 44.2804 34 42.1618C33.9998 40.8414 33.4398 40.0379 32.0798 38.2262Z" fill="#FF8D3B"/>
<path d="M32.08 38.2262C33.44 40.0379 34 40.8414 34 42.1618C34 44.2804 32.2079 46 30 46V36C30.256 36 30.5121 36.0922 30.656 36.3071C31.216 37.0747 31.68 37.7042 32.08 38.2262Z" fill="#FF6857"/>
<path d="M30 0C34.4158 0 38 3.66639 38 8.05298C38 12.4396 34.4158 16 30 16C25.5842 16 22 12.4396 22 8.05298C22 3.66639 25.5842 0 30 0Z" fill="#FF8D3B"/>
<path d="M30 16V0C25.5842 0 22 3.66639 22 8.05298C22 12.4396 25.5842 16 30 16Z" fill="#FF6857"/>
</svg>
