<svg width="60" height="60" viewBox="0 0 60 60" fill="none" xmlns="http://www.w3.org/2000/svg">
<path d="M45.9375 10.6641H56.4844V28.2422H45.9375V10.6641Z" fill="#BAB6FF"/>
<path d="M51.2109 10.6641H56.4844V28.2422H51.2109V10.6641Z" fill="#8F8AFF"/>
<path d="M31.875 28.2422H49.4531V38.7891H31.875V28.2422Z" fill="#BAB6FF"/>
<path d="M34.189 24.8176L23.4077 21.302V45.7292L34.189 42.2136C34.9063 41.9751 35.3906 41.304 35.3906 40.5468V26.4843C35.3906 25.7272 34.9063 25.0561 34.189 24.8176Z" fill="#E5E4FF"/>
<path d="M24.6094 17.6953L21.0938 19.4531L24.6094 21.2109V31.7578L21.0938 33.5156L24.6094 35.2734V45.8203L21.0938 47.7187L24.6094 49.3359V54.7266C24.6094 57.6448 22.2542 60 19.3359 60H17.5781L15.8203 56.4844L14.0625 60H10.5469L8.9296 56.4844L7.03125 60H5.27344C2.35519 60 0 57.6448 0 54.7266V49.3359L3.51562 47.5781L0 45.8203V35.2734L3.51562 33.5156L0 31.7578V21.2109L3.51562 19.4531L0 17.6953V12.4219C0 9.50363 2.35519 7.14844 5.27344 7.14844H7.03125L8.50754 10.6641L10.5469 7.14844H14.0625L15.8203 10.6641L17.5781 7.14844H19.3359C22.2542 7.14844 24.6094 9.50363 24.6094 12.4219V17.6953Z" fill="#949494"/>
<path d="M24.6094 17.6953L21.0938 19.4531L24.6094 21.2109V31.7578L21.0938 33.5156L24.6094 35.2734V45.8203L21.0938 47.7187L24.6094 49.3359V54.7266C24.6094 57.6448 22.2542 60 19.3359 60H17.5781L15.8203 56.4844L14.0625 60H12.3047V7.14844H14.0625L15.8203 10.6641L17.5781 7.14844H19.3359C22.2542 7.14844 24.6094 9.50363 24.6094 12.4219V17.6953Z" fill="#646464"/>
<path d="M58.2422 0H44.1797C43.195 0 42.4219 0.773163 42.4219 1.75781V12.4219C42.4219 13.4065 43.195 14.1797 44.1797 14.1797H58.2422C59.2268 14.1797 60 13.4065 60 12.4219V1.75781C60 0.773163 59.2268 0 58.2422 0Z" fill="#949494"/>
<path d="M60 19.4531C60 20.4378 59.2268 21.2109 58.2422 21.2109H44.1797C43.195 21.2109 42.4219 20.4378 42.4219 19.4531C42.4219 18.4685 43.195 17.6953 44.1797 17.6953H58.2422C59.2268 17.6953 60 18.4685 60 19.4531Z" fill="#E5E4FF"/>
<path d="M24.6094 21.2109V17.6953H17.5781V7.14844H14.0625V24.7266H10.5469V7.14844H7.03125V17.6953H0V21.2109H7.03125V31.7578H0V35.2734H7.03125V45.8203H0V49.3359H7.03125V60H10.5469V42.3047H14.0625V60H17.5781V49.3359H24.6094V45.8203H17.5781V35.2734H24.6094V31.7578H17.5781V21.2109H24.6094ZM14.0625 38.7891H10.5469V28.2422H14.0625V38.7891Z" fill="#646464"/>
<path d="M17.5781 21.2109V31.7578H24.6094V35.2734H17.5781V45.8203H24.6094V49.3359H17.5781V60H14.0625V42.3047H12.3047V38.7891H14.0625V28.2422H12.3047V24.7266H14.0625V7.14844H17.5781V17.6953H24.6094V21.2109H17.5781Z" fill="#353535"/>
<path d="M60 19.4531C60 20.4378 59.2268 21.2109 58.2422 21.2109H51.2109V17.6953H58.2422C59.2268 17.6953 60 18.4685 60 19.4531Z" fill="#BAB6FF"/>
<path d="M60 1.75781V12.4219C60 13.4065 59.2268 14.1797 58.2422 14.1797H51.2109V0H58.2422C59.2268 0 60 0.773163 60 1.75781Z" fill="#646464"/>
<path d="M51.2109 24.7266C46.3596 24.7266 42.4219 28.6642 42.4219 33.5156C42.4219 38.367 46.3596 42.3047 51.2109 42.3047C56.0623 42.3047 60 38.367 60 33.5156C60 28.6642 56.0623 24.7266 51.2109 24.7266Z" fill="#E5E4FF"/>
<path d="M60 33.5156C60 38.367 56.0623 42.3047 51.2109 42.3047V24.7266C56.0623 24.7266 60 28.6642 60 33.5156Z" fill="#BAB6FF"/>
<path d="M56.4844 33.5156C56.4844 36.4339 54.1292 38.7891 51.2109 38.7891C48.2927 38.7891 45.9375 36.4339 45.9375 33.5156C45.9375 30.5974 48.2927 28.2422 51.2109 28.2422C54.1292 28.2422 56.4844 30.5974 56.4844 33.5156Z" fill="#BAB6FF"/>
<path d="M56.4844 33.5156C56.4844 36.4339 54.1292 38.7891 51.2109 38.7891V28.2422C54.1292 28.2422 56.4844 30.5974 56.4844 33.5156Z" fill="#8F8AFF"/>
<path d="M52.9688 33.5156C52.9688 34.5003 52.1956 35.2734 51.2109 35.2734C50.2263 35.2734 49.4531 34.5003 49.4531 33.5156C49.4531 32.531 50.2263 31.7578 51.2109 31.7578C52.1956 31.7578 52.9688 32.531 52.9688 33.5156Z" fill="#E5E4FF"/>
<path d="M52.9688 33.5156C52.9688 34.5003 52.1956 35.2734 51.2109 35.2734V31.7578C52.1956 31.7578 52.9688 32.531 52.9688 33.5156Z" fill="#BAB6FF"/>
</svg>
