<svg width="60" height="60" viewBox="0 0 60 60" fill="none" xmlns="http://www.w3.org/2000/svg">
<path d="M19.3359 14.0625H12.3047C11.3333 14.0625 10.5469 13.2761 10.5469 12.3047C10.5469 11.3333 11.3333 10.5469 12.3047 10.5469H19.3359C20.3073 10.5469 21.2109 11.3333 21.2109 12.3047C21.2109 13.2761 20.3073 14.0625 19.3359 14.0625Z" fill="#646464"/>
<path d="M47.6953 14.0625H40.6641C39.6927 14.0625 38.7891 13.2761 38.7891 12.3047C38.7891 11.3333 39.6927 10.5469 40.6641 10.5469H47.6953C48.6667 10.5469 49.4531 11.3333 49.4531 12.3047C49.4531 13.2761 48.6667 14.0625 47.6953 14.0625Z" fill="#353535"/>
<path d="M19.3359 49.4531H12.3047C11.3333 49.4531 10.5469 48.6667 10.5469 47.6953C10.5469 46.7239 11.3333 45.9375 12.3047 45.9375H19.3359C20.3073 45.9375 21.2109 46.7239 21.2109 47.6953C21.2109 48.6667 20.3073 49.4531 19.3359 49.4531Z" fill="#646464"/>
<path d="M47.6953 49.4531H40.6641C39.6927 49.4531 38.7891 48.6667 38.7891 47.6953C38.7891 46.7239 39.6927 45.9375 40.6641 45.9375H47.6953C48.6667 45.9375 49.4531 46.7239 49.4531 47.6953C49.4531 48.6667 48.6667 49.4531 47.6953 49.4531Z" fill="#353535"/>
<path d="M31.7578 33.6328V40.6641C31.7578 41.6483 30.9846 42.4219 30 42.4219C29.0154 42.4219 28.2422 41.6483 28.2422 40.6641V33.6328C28.2422 32.6482 29.0154 31.875 30 31.875C30.9846 31.875 31.7578 32.6482 31.7578 33.6328Z" fill="#646464"/>
<path d="M31.7578 19.3359V26.3672C31.7578 27.3514 30.9846 28.125 30 28.125C29.0154 28.125 28.2422 27.3514 28.2422 26.3672V19.3359C28.2422 18.3513 29.0154 17.5781 30 17.5781C30.9846 17.5781 31.7578 18.3513 31.7578 19.3359Z" fill="#646464"/>
<path d="M31.7578 19.3359V26.3672C31.7578 27.3514 30.9846 28.125 30 28.125V17.5781C30.9846 17.5781 31.7578 18.3513 31.7578 19.3359Z" fill="#353535"/>
<path d="M31.7578 33.6328V40.6641C31.7578 41.6483 30.9846 42.4219 30 42.4219V31.875C30.9846 31.875 31.7578 32.6482 31.7578 33.6328Z" fill="#353535"/>
<path d="M40.6641 7.03125H35.2734V5.27344C35.2734 4.28879 34.5003 3.51562 33.5156 3.51562H26.4844C25.4997 3.51562 24.7266 4.28879 24.7266 5.27344V7.03125H19.3359C18.3513 7.03125 17.5781 7.80441 17.5781 8.78906V15.8203C17.5781 16.8045 18.3513 17.5781 19.3359 17.5781H24.7266V19.3359C24.7266 20.3201 25.4997 21.0938 26.4844 21.0938H33.5156C34.5003 21.0938 35.2734 20.3201 35.2734 19.3359V17.5781H40.6641C41.6487 17.5781 42.4219 16.8045 42.4219 15.8203V8.78906C42.4219 7.80441 41.6487 7.03125 40.6641 7.03125Z" fill="#949494"/>
<path d="M40.6641 42.4219H36.996C35.3439 40.242 32.7425 38.9062 30 38.9062C27.2575 38.9062 24.6561 40.242 23.004 42.4219H19.3359C18.3513 42.4219 17.5781 43.195 17.5781 44.1797V51.2109C17.5781 52.1951 18.3513 52.9688 19.3359 52.9688H23.004C24.6561 55.1486 27.2575 56.4844 30 56.4844C32.7425 56.4844 35.3439 55.1486 36.996 52.9688H40.6641C41.6487 52.9688 42.4219 52.1951 42.4219 51.2109V44.1797C42.4219 43.195 41.6487 42.4219 40.6641 42.4219Z" fill="#949494"/>
<path d="M30 24.6094C27.0818 24.6094 24.7266 27.0818 24.7266 30C24.7266 32.9178 27.0818 35.3906 30 35.3906C32.9182 35.3906 35.2734 32.9178 35.2734 30C35.2734 27.0818 32.9182 24.6094 30 24.6094Z" fill="#949494"/>
<path d="M30 35.3906V24.6094C32.9182 24.6094 35.2734 27.0818 35.2734 30C35.2734 32.9178 32.9182 35.3906 30 35.3906Z" fill="#646464"/>
<path d="M42.4219 8.78906V15.8203C42.4219 16.8045 41.6487 17.5781 40.6641 17.5781H35.2734V19.3359C35.2734 20.3201 34.5003 21.0938 33.5156 21.0938H30V3.51562H33.5156C34.5003 3.51562 35.2734 4.28879 35.2734 5.27344V7.03125H40.6641C41.6487 7.03125 42.4219 7.80441 42.4219 8.78906Z" fill="#646464"/>
<path d="M42.4219 44.1797V51.2109C42.4219 52.1951 41.6487 52.9688 40.6641 52.9688H36.996C35.3439 55.1486 32.7425 56.4844 30 56.4844V38.9062C32.7425 38.9062 35.3439 40.242 36.996 42.4219H40.6641C41.6487 42.4219 42.4219 43.195 42.4219 44.1797Z" fill="#646464"/>
<path d="M7.03125 0C3.15353 0 0 3.15353 0 7.03125V11.3177L6.50711 10.8673L13.0142 3.38608C11.7783 1.36414 9.57001 0 7.03125 0Z" fill="#949494"/>
<path d="M7.03125 24.6094C10.909 24.6094 14.0625 21.4558 14.0625 17.5781V13.894L7.69409 14.2598L1.32568 21.6568C2.60284 23.4375 4.67743 24.6094 7.03125 24.6094Z" fill="#949494"/>
<path d="M13.0142 3.38562L0 11.3177C0 11.7883 0 17.9393 0 17.5781C0 18.7926 0.438538 20.419 1.32568 21.6568L14.0625 13.894C14.0625 13.4926 14.0625 6.61972 14.0625 7.03125C14.0625 5.85846 13.7169 4.53506 13.0142 3.38562Z" fill="#646464"/>
<path d="M52.9688 0C56.8465 0 60.0001 3.15353 60.0001 7.03125V11.3177L53.493 10.8673L46.9858 3.38608C48.2218 1.36414 50.4301 0 52.9688 0Z" fill="#646464"/>
<path d="M52.9688 24.6094C49.091 24.6094 45.9375 21.4558 45.9375 17.5781V13.894L52.3059 14.2598L58.6743 21.6568C57.3972 23.4375 55.3226 24.6094 52.9688 24.6094Z" fill="#646464"/>
<path d="M46.9858 3.38562L60 11.3177C60 11.7883 60 17.9393 60 17.5781C60 18.7926 59.5615 20.419 58.6743 21.6568L45.9375 13.894C45.9375 13.4926 45.9375 6.61972 45.9375 7.03125C45.9375 5.85846 46.2831 4.53506 46.9858 3.38562Z" fill="#353535"/>
<path d="M7.03125 35.3906C3.15353 35.3906 0 38.5442 0 42.4219V46.7084L6.50711 46.2579L13.0142 38.7767C11.7783 36.7548 9.57001 35.3906 7.03125 35.3906Z" fill="#949494"/>
<path d="M7.03125 60C10.909 60 14.0625 56.8465 14.0625 52.9688V49.2847L7.69409 49.6504L1.32568 57.0474C2.60284 58.8281 4.67743 60 7.03125 60Z" fill="#949494"/>
<path d="M13.0142 38.7762L0 46.7084C0 47.179 0 53.3299 0 52.9688C0 54.1832 0.438538 55.8096 1.32568 57.0474L14.0625 49.2847C14.0625 48.8832 14.0625 42.0103 14.0625 42.4219C14.0625 41.2491 13.7169 39.9257 13.0142 38.7762Z" fill="#646464"/>
<path d="M52.9688 35.3906C56.8465 35.3906 60.0001 38.5442 60.0001 42.4219V46.7084L53.493 46.2579L46.9858 38.7767C48.2218 36.7548 50.4301 35.3906 52.9688 35.3906Z" fill="#646464"/>
<path d="M52.9688 60C49.091 60 45.9375 56.8465 45.9375 52.9688V49.2847L52.3059 49.6504L58.6743 57.0474C57.3972 58.8281 55.3226 60 52.9688 60Z" fill="#646464"/>
<path d="M46.9858 38.7762L60 46.7084C60 47.179 60 53.3299 60 52.9688C60 54.1832 59.5615 55.8096 58.6743 57.0474L45.9375 49.2847C45.9375 48.8832 45.9375 42.0103 45.9375 42.4219C45.9375 41.2491 46.2831 39.9257 46.9858 38.7762Z" fill="#353535"/>
</svg>
