<svg width="76" height="40" viewBox="0 0 76 40" fill="none" xmlns="http://www.w3.org/2000/svg">
<g clip-path="url(#clip0)">
<path d="M58.1379 14.2566C59.1956 12.6551 59.1847 11.9322 59.1091 10.7452C58.813 6.09057 60.569 1.37995 65.2403 0.744325C63.4151 3.4783 60.3124 6.89504 65.3811 9.5392C71.5735 12.7696 72.5033 7.73069 73.9432 4.45752C75.5743 6.35872 75.5329 8.43387 74.4961 10.7467C72.3873 15.4512 67.7435 11.61 61.5919 16.9616C62.0042 17.3421 62.4236 17.7478 62.8522 18.1799C64.619 16.671 66.4765 16.321 68.2662 15.9842C70.9793 15.4736 73.5409 14.9916 75.4483 10.7365C76.6339 8.09154 75.8132 4.98699 73.8963 2.90414C73.3121 3.97648 72.7312 5.05134 72.1433 6.1216C71.0826 8.06858 68.6018 8.8046 66.6327 7.75564L66.6323 7.75559C64.6635 6.70653 63.919 4.25329 64.9799 2.30603L66.2293 0.0124194L65.9307 0.0433643C64.2898 0.213632 62.7679 0.808152 61.5488 1.7424C58.9258 3.75245 58.2024 7.2376 58.4016 10.3658C58.4731 11.4915 58.5246 12.3055 57.5096 13.8722C57.7199 13.9954 57.9292 14.1234 58.1379 14.2566ZM17.878 14.2804C16.8046 12.6624 16.8149 11.9379 16.8909 10.7452C17.187 6.09057 15.4311 1.37995 10.7598 0.744325C12.5849 3.47825 15.6876 6.89508 10.6189 9.53924C4.42654 12.7697 3.49678 7.73069 2.05682 4.45757C0.425674 6.35877 0.467155 8.43387 1.50393 10.7467C3.61597 15.4583 8.2707 11.5982 14.4363 16.986C14.024 17.367 13.605 17.7728 13.1768 18.2046C11.4014 16.6747 9.5333 16.3229 7.73382 15.9842C5.02073 15.4737 2.45911 14.9915 0.551674 10.7365C-0.633964 8.0915 0.186855 4.98699 2.10369 2.90409C2.68796 3.97648 3.26887 5.05134 3.85673 6.1216C4.91745 8.06853 7.39819 8.8046 9.36728 7.75559H9.36766C11.3366 6.70653 12.0811 4.25334 11.0202 2.30603L9.77075 0.0124194L10.0693 0.0433643C11.7102 0.213632 13.2321 0.808152 14.4513 1.7424C17.0742 3.75245 17.7977 7.2376 17.5985 10.3659C17.5265 11.4968 17.4751 12.3132 18.5049 13.8944C18.2952 14.018 18.0864 14.1465 17.878 14.2804ZM53.8099 8.70647L53.2901 8.7951C53.1825 8.81277 53.0929 8.89257 53.0615 8.99891C53.0167 9.14518 52.9584 9.2914 52.8868 9.43323C52.8374 9.53074 52.8464 9.64597 52.9091 9.7346L53.2273 10.1689C53.3035 10.2753 53.2901 10.426 53.2005 10.5146L52.9494 10.7628L52.6985 11.0109C52.6044 11.104 52.4564 11.1173 52.3489 11.042L51.9187 10.7406C51.829 10.6786 51.708 10.6697 51.6139 10.7229C51.475 10.7983 51.3271 10.8558 51.1792 10.909C51.0761 10.9445 50.9999 11.0287 50.982 11.1351L50.8968 11.6624C50.8744 11.7909 50.7624 11.8885 50.6324 11.8885H50.2784H49.9243C49.7943 11.8885 49.6778 11.7954 49.6554 11.6669L49.5703 11.1528C49.5523 11.042 49.4717 10.9577 49.3641 10.9223C49.2162 10.878 49.0683 10.8204 48.9294 10.7495C48.8308 10.7007 48.7142 10.7096 48.6246 10.7717L48.1854 11.0863C48.0778 11.1617 47.9255 11.1483 47.8358 11.0597L47.5848 10.8115L47.3339 10.5634C47.2398 10.4702 47.2263 10.3241 47.3025 10.2177L47.6028 9.79224C47.6655 9.70356 47.67 9.58394 47.6207 9.48643C47.5445 9.34016 47.4773 9.19394 47.428 9.04327C47.3921 8.94132 47.307 8.86153 47.1949 8.84381L46.6661 8.75962C46.5361 8.73746 46.4375 8.62668 46.4375 8.49813V8.148V7.79792C46.4375 7.66937 46.5316 7.55419 46.6616 7.53203L47.1905 7.43896C47.298 7.4212 47.3877 7.34145 47.419 7.23949C47.4683 7.08883 47.5266 6.94701 47.5983 6.80518C47.6476 6.70771 47.6386 6.59244 47.5759 6.50381L47.2622 6.07393C47.186 5.96754 47.1994 5.82576 47.2846 5.72825L47.5356 5.48008L47.7865 5.2319C47.8806 5.13883 48.0285 5.12551 48.1361 5.20086L48.5708 5.50667C48.6605 5.56871 48.777 5.57754 48.8756 5.52439C49.019 5.45348 49.1624 5.39145 49.3148 5.34269C49.4179 5.30726 49.4985 5.22302 49.5165 5.11667L49.6016 4.59373C49.624 4.46523 49.7361 4.36771 49.8661 4.36771H50.2201H50.5742C50.7041 4.36771 50.8206 4.46078 50.8431 4.58934L50.9372 5.11223C50.9551 5.21863 51.0358 5.30726 51.1389 5.3383C51.2912 5.38705 51.4347 5.44469 51.5781 5.51556C51.6767 5.56431 51.7932 5.55543 51.8828 5.49345L52.3176 5.18315C52.4251 5.10784 52.5775 5.12112 52.6671 5.20975L52.9181 5.45797L53.1691 5.70614C53.2632 5.79921 53.2767 5.94543 53.2005 6.05178L52.8912 6.4817C52.8285 6.57033 52.824 6.68556 52.8733 6.78302C52.9405 6.91601 53.0033 7.0534 53.0481 7.19518C53.0839 7.29713 53.1691 7.37693 53.2811 7.39464L53.8144 7.47888C53.9444 7.50104 54.043 7.61178 54.043 7.74033V8.09041V8.44053C54.034 8.56904 53.9399 8.68427 53.8099 8.70647ZM51.3495 7.04452C50.7445 6.43294 49.754 6.42406 49.1355 7.02236C48.517 7.62061 48.5081 8.60008 49.1131 9.21165C49.7181 9.82323 50.7086 9.83211 51.3271 9.23381C51.9456 8.63551 51.9545 7.65609 51.3495 7.04452ZM29.4013 8.77592L28.8814 8.86455C28.7738 8.88227 28.6842 8.96206 28.6528 9.06841C28.608 9.21463 28.5498 9.3609 28.478 9.50272C28.4288 9.60024 28.4377 9.71546 28.5005 9.8041L28.8187 10.2384C28.8948 10.3448 28.8814 10.4954 28.7918 10.5841L28.5408 10.8323L28.2898 11.0804C28.1957 11.1735 28.0478 11.1868 27.9403 11.1115L27.51 10.8101C27.4203 10.7481 27.2993 10.7392 27.2052 10.7924C27.0663 10.8677 26.9184 10.9253 26.7705 10.9785C26.6675 11.014 26.5913 11.0982 26.5733 11.2046L26.4882 11.7319C26.4658 11.8604 26.3537 11.958 26.2237 11.958H25.8697H25.5156C25.3857 11.958 25.2691 11.8649 25.2467 11.7363L25.1616 11.2223C25.1436 11.1115 25.063 11.0272 24.9554 10.9918C24.8076 10.9475 24.6596 10.8899 24.5207 10.819C24.4221 10.7702 24.3056 10.7791 24.216 10.8411L23.7767 11.1558C23.6692 11.2312 23.5167 11.2178 23.4271 11.1292L23.1762 10.881L22.9252 10.6329C22.831 10.5397 22.8176 10.3936 22.8938 10.2872L23.1941 9.86173C23.2569 9.77306 23.2613 9.65339 23.212 9.55592C23.1358 9.40965 23.0686 9.26339 23.0193 9.11277C22.9835 9.01082 22.8983 8.93102 22.7863 8.91331L22.2574 8.82907C22.1274 8.80691 22.0288 8.69617 22.0288 8.56762V8.21749V7.86742C22.0288 7.73886 22.123 7.62364 22.2529 7.60148L22.7818 7.50841C22.8893 7.49069 22.979 7.41094 23.0103 7.30899C23.0597 7.15828 23.1179 7.0165 23.1896 6.87468C23.239 6.77716 23.2299 6.66194 23.1672 6.57331L22.8535 6.14343C22.7773 6.03704 22.7907 5.89526 22.8759 5.79775L23.1268 5.54952L23.3778 5.3014C23.472 5.20833 23.6198 5.195 23.7275 5.27036L24.1621 5.57612C24.2518 5.6382 24.3683 5.64704 24.4669 5.59389C24.6104 5.52293 24.7537 5.46094 24.9061 5.41219C25.0092 5.37675 25.0899 5.29252 25.1078 5.18617L25.193 4.66323C25.2154 4.53467 25.3274 4.43721 25.4573 4.43721H25.8114H26.1655C26.2955 4.43721 26.412 4.53028 26.4344 4.65878L26.5285 5.18173C26.5464 5.28812 26.6271 5.37675 26.7301 5.40779C26.8826 5.45655 27.0259 5.51409 27.1694 5.58505C27.268 5.63381 27.3845 5.62493 27.4741 5.5629L27.9088 5.25264C28.0165 5.17734 28.1688 5.19061 28.2584 5.27924L28.5095 5.52741L28.7604 5.77564C28.8545 5.86871 28.8679 6.01493 28.7918 6.12127L28.4825 6.55119C28.4198 6.63982 28.4153 6.75501 28.4646 6.85252C28.5318 6.98551 28.5946 7.1229 28.6394 7.26468C28.6752 7.36663 28.7604 7.44642 28.8724 7.46414L29.4058 7.54833C29.5357 7.57049 29.6343 7.68127 29.6343 7.80983V8.1599V8.51003C29.6254 8.63853 29.5313 8.75376 29.4013 8.77592ZM26.9408 7.11401C26.3358 6.50239 25.3453 6.49356 24.7269 7.09186C24.1083 7.69011 24.0994 8.66957 24.7045 9.28115C25.3095 9.89272 26.2999 9.90161 26.9184 9.30331C27.5369 8.70501 27.5459 7.72559 26.9408 7.11401ZM42.3481 1.33818L42.0821 2.48149C42.0246 2.72092 42.1113 2.9673 42.303 3.12694C42.569 3.34932 42.824 3.59579 43.0557 3.86683C43.2184 4.05113 43.4616 4.13782 43.7058 4.08193L44.8913 3.81534C45.1833 3.75189 45.483 3.90779 45.5945 4.17708L46.1986 5.64052C46.3165 5.91557 46.2134 6.22776 45.9547 6.38518L44.9499 7.00771C44.7384 7.13971 44.6267 7.37504 44.6473 7.61783C44.6778 7.97301 44.6782 8.32327 44.6544 8.66863C44.6329 8.91274 44.7491 9.14027 44.9578 9.26962L45.9892 9.91087C46.2409 10.0684 46.342 10.3796 46.2314 10.6506L46.0126 11.1698C44.1318 11.009 42.1977 10.904 40.2225 10.8587C41.3879 9.92934 41.8597 8.32762 41.2827 6.87907C40.5652 5.09286 38.5229 4.21937 36.7164 4.92297C34.9099 5.62653 34.0266 7.64617 34.7381 9.43257C34.9688 10.0117 35.3393 10.4949 35.7964 10.8595C33.8292 10.905 31.9037 11.0101 30.0305 11.1704L29.8219 10.665C29.7042 10.3901 29.8073 10.0777 30.0658 9.92036L31.0825 9.29159C31.2939 9.15954 31.4059 8.93003 31.3854 8.68739C31.3547 8.33216 31.3545 7.98184 31.384 7.63053C31.4054 7.38633 31.2891 7.1529 31.0803 7.02349L30.0611 6.38778C29.8095 6.23022 29.7085 5.91897 29.8248 5.64775L30.4344 4.20174C30.5448 3.93075 30.8399 3.78401 31.1362 3.84505L32.3106 4.11321C32.5527 4.17014 32.8019 4.08439 32.9574 3.89494C33.1879 3.62574 33.4376 3.37955 33.7116 3.15052C33.8983 2.9956 33.9855 2.74327 33.9292 2.50762L33.6602 1.35311C33.5959 1.06445 33.7536 0.768042 34.026 0.657821L35.506 0.0602305C35.784 -0.056179 36.0997 0.0457738 36.259 0.301553L36.895 1.30681C37.0284 1.51601 37.2664 1.62637 37.5122 1.61206C37.8535 1.58839 38.1897 1.58867 38.5269 1.61267C38.7739 1.63379 39.0099 1.51885 39.1407 1.31239L39.7891 0.29253C39.9485 0.0435061 40.2632 -0.056368 40.5376 0.0589076L41.9999 0.661506C42.2614 0.759349 42.4159 1.0508 42.3481 1.33818Z" fill="#353535"/>
<path fill-rule="evenodd" clip-rule="evenodd" d="M16.0723 35.579C16.0723 34.3768 17.0579 33.4022 18.2737 33.4022C19.4895 33.4022 20.4751 34.3768 20.4751 35.579C20.4751 36.7813 19.4895 37.756 18.2737 37.756C17.0579 37.756 16.0723 36.7813 16.0723 35.579ZM59.8864 35.579C59.8864 34.3768 58.9008 33.4022 57.6851 33.4022C56.4693 33.4022 55.4836 34.3768 55.4836 35.579C55.4836 36.7813 56.4693 37.756 57.6851 37.756C58.9008 37.756 59.8864 36.7813 59.8864 35.579ZM61.2665 27.5997C62.352 27.1522 65.6044 26.2716 68.7288 26.6612C75.9378 27.5602 76.0375 36.7492 73.2538 38.6966C72.9192 38.9305 72.3153 39.0423 70.9288 39.0422C69.2521 39.0421 74.2843 37.3021 73.3944 32.7022C72.5027 28.0929 67.6909 29.2019 68.01 29.2588C68.9095 29.4192 69.7589 29.8529 70.6763 30.6842C71.9787 31.8641 72.774 35.2029 70.6013 37.2307C68.6613 39.0412 66.78 38.8942 65.285 38.3509C62.8078 37.4507 60.6321 34.5489 60.693 35.1677C61.2155 40.4685 48.4157 41.2874 48.2864 38.2174C48.2321 36.9289 56.2543 29.6662 61.2665 27.5997ZM67.1749 30.0756C65.029 30.0756 63.2893 31.7959 63.2893 33.918C63.2893 36.0401 65.029 37.7603 67.1749 37.7603C69.3209 37.7603 71.0606 36.0401 71.0606 33.918C71.0606 31.7959 69.3209 30.0756 67.1749 30.0756ZM12.0355 24.7446C21.9373 27.2379 26.5231 35.1541 31.1193 37.7092C34.3174 39.4871 41.7343 39.4871 44.9324 37.7092C49.5286 35.1541 54.1143 27.2379 64.0162 24.7446C63.9166 24.7287 61.237 24.1917 52.7703 29.0467C50.2453 30.4947 48.6836 32.6312 45.044 35.1951C39.7785 38.9045 40.1001 36.702 40.392 29.2088C40.6065 23.7017 19.2911 26.1425 19.0587 26.1175C20.615 24.5268 60.8052 24.3771 59.923 24.3112C47.5008 23.3833 19.656 23.5277 12.0355 24.7446ZM5.29599 22.5972C4.0521 22.5972 3.08889 23.1941 3.08889 23.7576C3.08889 24.321 4.64984 25.2311 6.03891 25.0875C7.42803 24.944 7.82714 24.9848 8.09776 24.7672C8.36833 24.5496 6.53993 22.5972 5.29599 22.5972ZM70.091 22.5972C71.3349 22.5972 72.2981 23.1941 72.2981 23.7576C72.2981 24.321 70.7372 25.2311 69.3481 25.0875C67.9589 24.944 67.5598 24.9848 67.2892 24.7672C67.0186 24.5496 68.847 22.5972 70.091 22.5972ZM70.3057 33.996C70.3057 35.6447 68.9542 36.9812 67.2869 36.9812C66.5841 36.9812 66.9012 36.0715 68.2632 35.2986C68.5909 35.1126 66.7031 34.6526 66.915 34.3163C67.1142 34.0001 68.3421 34.3222 68.4292 33.996C68.5346 33.6016 67.3134 33.226 67.3134 32.8736C67.3134 32.1245 69.3447 33.5018 69.1255 32.9777C68.8624 32.3484 66.3773 31.0108 67.2869 31.0108C68.9542 31.0108 70.3057 32.3473 70.3057 33.996ZM59.0778 35.0196C59.2361 36.4809 58.4212 37.0348 57.6566 37.0348C55.6188 37.0348 58.9194 33.5582 59.0778 35.0196ZM19.8777 14.4703C16.7635 16.0941 13.9041 18.8433 10.1196 23.3439C28.3061 21.9 47.7455 21.9 65.9321 23.3439C62.1475 18.8433 59.2882 16.0941 56.174 14.4703C56.0694 14.4157 62.4039 19.6156 63.5011 22.3313C54.1797 20.7754 44.5753 20.5284 37.5283 20.5347C38.6829 12.187 38.8414 11.5732 36.8749 20.5245C34.5007 20.5351 32.3998 20.5718 30.658 20.5909C31.0936 17.9798 31.993 15.6163 32.3163 14.4988C31.6685 14.6453 30.7393 14.7035 30.2469 15.0859C29.6487 15.9082 29.2322 18.2289 28.4685 20.5344C26.8073 20.5241 25.8336 20.5545 24.1915 20.5423C24.3813 19.1344 25.5053 17.3181 26.8717 15.5532C25.7102 15.7165 18.6055 16.9112 14.6868 21.7318C20.519 10.4331 52.7421 13.2979 52.0248 13.1502C42.6352 11.217 24.7619 11.9234 19.8777 14.4703ZM8.78384 36.9032C10.4511 36.9032 11.8027 35.5667 11.8027 33.918C11.8027 32.2693 10.4511 30.9328 8.78384 30.9328C7.8742 30.9328 10.3593 32.2704 10.6224 32.8997C10.8416 33.4238 8.81025 32.0464 8.81025 32.7956C8.81025 33.148 10.0315 33.5236 9.92615 33.918C9.83903 34.2442 8.61116 33.9221 8.41188 34.2383C8.19999 34.5746 10.0878 35.0346 9.76009 35.2206C8.39809 35.9935 8.08103 36.9032 8.78384 36.9032ZM19.6949 34.9328C19.5365 33.4715 16.2359 36.948 18.2738 36.948C19.0383 36.948 19.8532 36.3942 19.6949 34.9328ZM14.6922 27.5997C13.6068 27.1522 10.3544 26.2716 7.22998 26.6612C0.0209556 27.5602 -0.0787765 36.7492 2.70499 38.6966C3.03957 38.9305 3.64349 39.0423 5.03001 39.0422C6.7067 39.0421 1.6745 37.3021 2.56439 32.7022C3.45607 28.0929 8.26788 29.2019 7.9488 29.2588C7.04927 29.4192 6.19982 29.8529 5.28244 30.6842C3.98015 31.8641 3.1848 35.2029 5.35751 37.2307C7.29749 39.0412 9.1788 38.8942 10.6737 38.3509C13.151 37.4507 15.3267 34.5489 15.2658 35.1677C14.7433 40.4685 27.543 41.2874 27.6724 38.2174C27.7266 36.9289 19.7045 29.6662 14.6922 27.5997ZM8.78384 30.0756C10.9298 30.0756 12.6695 31.7959 12.6695 33.918C12.6695 36.0401 10.9298 37.7603 8.78384 37.7603C6.63782 37.7603 4.89815 36.0401 4.89815 33.918C4.89815 31.7959 6.63782 30.0756 8.78384 30.0756Z" fill="#FF6857"/>
</g>
<defs>
<clipPath id="clip0">
<rect width="76" height="40" fill="white"/>
</clipPath>
</defs>
</svg>
