<svg width="148" height="32" viewBox="0 0 148 32" fill="none" xmlns="http://www.w3.org/2000/svg">
<path d="M47.8023 11.4053C48.6719 10.1241 48.663 9.54578 48.6008 8.59617C48.3574 4.8725 49.8012 1.10401 53.642 0.595509C52.1413 2.78268 49.5902 5.51608 53.7578 7.63141C58.8493 10.2157 59.6138 6.1846 60.7977 3.56607C62.1389 5.08703 62.1048 6.74715 61.2524 8.59738C59.5184 12.361 55.7002 9.28809 50.6422 13.5693C50.9813 13.8738 51.3261 14.1983 51.6785 14.5439C53.1312 13.3368 54.6585 13.0568 56.13 12.7874C58.3607 12.3789 60.467 11.9933 62.0353 8.58925C63.0101 6.47328 62.3353 3.98964 60.7592 2.32336C60.2788 3.18124 59.8012 4.04112 59.3178 4.89733C58.4457 6.45491 56.4059 7.04373 54.7869 6.20456L54.7866 6.20452C53.1677 5.36528 52.5556 3.40268 53.4279 1.84487L54.4552 0.00998437L54.2097 0.0347403C52.8605 0.170955 51.6092 0.64657 50.6068 1.39397C48.4501 3.00201 47.8553 5.79013 48.0191 8.29271C48.0779 9.19322 48.1202 9.84447 47.2857 11.0978C47.4586 11.1963 47.6307 11.2988 47.8023 11.4053ZM14.6997 11.4244C13.8171 10.1299 13.8256 9.55039 13.8881 8.59621C14.1316 4.8725 12.6878 1.10401 8.84691 0.595509C10.3476 2.78265 12.8987 5.51612 8.73111 7.63144C3.6396 10.2158 2.87513 6.1846 1.69117 3.56611C0.349999 5.08706 0.384105 6.74715 1.23656 8.59738C2.97313 12.3667 6.80035 9.27864 11.8699 13.5888C11.5308 13.8936 11.1863 14.2183 10.8343 14.5637C9.37446 13.3398 7.83849 13.0584 6.35892 12.7874C4.12816 12.379 2.02193 11.9933 0.453599 8.58925C-0.521259 6.47325 0.153637 3.98964 1.7297 2.32332C2.2101 3.18124 2.68774 4.04112 3.17109 4.89733C4.04324 6.45488 6.08296 7.04373 7.70199 6.20452H7.7023C9.32117 5.36528 9.93333 3.40272 9.06102 1.84487L8.03372 0.00998437L8.27919 0.0347403C9.6284 0.170955 10.8797 0.64657 11.8822 1.39397C14.0388 3.00201 14.6337 5.79013 14.4699 8.29275C14.4107 9.19745 14.3684 9.85063 15.2151 11.1156C15.0427 11.2144 14.8711 11.3173 14.6997 11.4244ZM44.2437 6.96523L43.8163 7.03613C43.7279 7.05026 43.6541 7.1141 43.6283 7.19918C43.5915 7.31619 43.5436 7.43317 43.4847 7.54663C43.4441 7.62464 43.4515 7.71682 43.5031 7.78773L43.7647 8.13518C43.8274 8.22029 43.8163 8.34082 43.7426 8.41173L43.5362 8.6103L43.3299 8.8088C43.2525 8.88326 43.1309 8.89392 43.0424 8.83364L42.6887 8.59254C42.615 8.54291 42.5155 8.53581 42.4381 8.57837C42.3239 8.63865 42.2023 8.68472 42.0807 8.72724C41.9959 8.75563 41.9333 8.82298 41.9185 8.90809L41.8485 9.33C41.8301 9.43281 41.738 9.51081 41.6311 9.51081H41.34H41.0489C40.942 9.51081 40.8462 9.43636 40.8278 9.33356L40.7578 8.92227C40.743 8.83364 40.6767 8.76625 40.5883 8.7379C40.4667 8.70245 40.345 8.65638 40.2308 8.59965C40.1498 8.56064 40.0539 8.56775 39.9802 8.61737L39.6191 8.86909C39.5307 8.92937 39.4054 8.91871 39.3317 8.84781L39.1253 8.64927L38.919 8.45073C38.8416 8.37624 38.8305 8.2593 38.8932 8.17418L39.1401 7.83384C39.1917 7.7629 39.1953 7.6672 39.1548 7.58919C39.0922 7.47217 39.0369 7.3552 38.9963 7.23467C38.9669 7.15311 38.8969 7.08927 38.8047 7.0751L38.3699 7.00775C38.263 6.99002 38.1819 6.90139 38.1819 6.79855V6.51845V6.23838C38.1819 6.13554 38.2593 6.0434 38.3662 6.02567L38.8011 5.95122C38.8895 5.937 38.9632 5.87321 38.989 5.79164C39.0295 5.67111 39.0774 5.55765 39.1364 5.44419C39.1769 5.36622 39.1695 5.274 39.118 5.2031L38.86 4.8592C38.7974 4.77408 38.8084 4.66066 38.8784 4.58265L39.0848 4.38411L39.2911 4.18557C39.3685 4.11111 39.4901 4.10046 39.5786 4.16074L39.936 4.40539C40.0097 4.45501 40.1055 4.46208 40.1866 4.41956C40.3045 4.36283 40.4224 4.31321 40.5477 4.2742C40.6325 4.24585 40.6988 4.17846 40.7136 4.09339L40.7836 3.67503C40.802 3.57223 40.8941 3.49422 41.001 3.49422H41.2921H41.5832C41.6901 3.49422 41.7858 3.56868 41.8043 3.67152L41.8817 4.08984C41.8964 4.17495 41.9628 4.24585 42.0475 4.27069C42.1728 4.30969 42.2907 4.3558 42.4087 4.41249C42.4897 4.4515 42.5855 4.44439 42.6592 4.3948L43.0167 4.14657C43.1051 4.08632 43.2304 4.09694 43.3041 4.16784L43.5105 4.36642L43.7168 4.56496C43.7942 4.63942 43.8052 4.75639 43.7426 4.84147L43.4883 5.18541C43.4368 5.25631 43.4331 5.34849 43.4736 5.42647C43.5289 5.53286 43.5805 5.64277 43.6173 5.75619C43.6468 5.83775 43.7168 5.90159 43.8089 5.91576L44.2474 5.98315C44.3543 6.00088 44.4354 6.08947 44.4354 6.19231V6.47237V6.75248C44.428 6.85528 44.3506 6.94746 44.2437 6.96523ZM42.2207 5.63566C41.7232 5.1464 40.9088 5.1393 40.4003 5.61794C39.8918 6.09654 39.8845 6.88011 40.3819 7.36937C40.8794 7.85863 41.6937 7.86574 42.2023 7.3871C42.7108 6.90846 42.7182 6.12492 42.2207 5.63566ZM24.1744 7.02078L23.7469 7.09169C23.6584 7.10586 23.5848 7.1697 23.559 7.25478C23.5221 7.37175 23.4742 7.48877 23.4153 7.60223C23.3748 7.68024 23.3821 7.77242 23.4337 7.84332L23.6954 8.19078C23.758 8.27589 23.7469 8.39638 23.6732 8.46732L23.4669 8.66586L23.2605 8.8644C23.1831 8.93886 23.0615 8.94952 22.9731 8.88923L22.6193 8.64814C22.5456 8.59851 22.4461 8.59141 22.3687 8.63396C22.2545 8.69421 22.1329 8.74032 22.0113 8.78284C21.9266 8.81122 21.8639 8.87857 21.8492 8.96369L21.7792 9.38556C21.7607 9.4884 21.6686 9.56641 21.5617 9.56641H21.2706H20.9795C20.8727 9.56641 20.7768 9.49195 20.7584 9.38911L20.6884 8.97786C20.6737 8.88923 20.6073 8.82184 20.5189 8.7935C20.3973 8.75805 20.2757 8.71194 20.1615 8.65524C20.0804 8.61624 19.9846 8.62334 19.9109 8.67293L19.5497 8.92469C19.4613 8.98497 19.336 8.97431 19.2623 8.90341L19.056 8.70483L18.8496 8.50633C18.7722 8.43183 18.7612 8.3149 18.8238 8.22978L19.0707 7.88943C19.1223 7.81849 19.126 7.72276 19.0854 7.64478C19.0228 7.52777 18.9675 7.41076 18.927 7.29027C18.8975 7.2087 18.8275 7.14487 18.7354 7.13069L18.3005 7.0633C18.1937 7.04558 18.1126 6.95699 18.1126 6.85415V6.57404V6.29398C18.1126 6.19114 18.19 6.09896 18.2968 6.08123L18.7317 6.00677C18.8201 5.9926 18.8938 5.9288 18.9196 5.84724C18.9602 5.72667 19.0081 5.61325 19.067 5.49979C19.1076 5.42178 19.1002 5.3296 19.0486 5.25869L18.7906 4.91479C18.728 4.82968 18.7391 4.71625 18.8091 4.63824L19.0154 4.43967L19.2218 4.24117C19.2992 4.16671 19.4208 4.15605 19.5092 4.21634L19.8667 4.46095C19.9403 4.51061 20.0361 4.51768 20.1172 4.47516C20.2352 4.41839 20.3531 4.3688 20.4784 4.3298C20.5631 4.30145 20.6295 4.23406 20.6442 4.14898L20.7142 3.73063C20.7326 3.62779 20.8247 3.54982 20.9316 3.54982H21.2227H21.5138C21.6207 3.54982 21.7165 3.62427 21.7349 3.72708L21.8123 4.14543C21.8271 4.23055 21.8934 4.30145 21.9781 4.32628C22.1034 4.36529 22.2213 4.41132 22.3393 4.46809C22.4203 4.50709 22.5162 4.49999 22.5899 4.45036L22.9473 4.20216C23.0358 4.14192 23.161 4.15254 23.2347 4.22344L23.4411 4.42198L23.6474 4.62056C23.7248 4.69501 23.7359 4.81199 23.6732 4.89707L23.419 5.241C23.3674 5.31191 23.3637 5.40405 23.4042 5.48206C23.4595 5.58846 23.5111 5.69836 23.5479 5.81179C23.5774 5.89335 23.6474 5.95719 23.7396 5.97136L24.1781 6.03871C24.2849 6.05644 24.366 6.14507 24.366 6.24791V6.52797V6.80807C24.3586 6.91088 24.2813 7.00306 24.1744 7.02078ZM22.1513 5.69126C21.6538 5.20196 20.8395 5.19489 20.331 5.67353C19.8224 6.15214 19.815 6.93571 20.3126 7.42497C20.81 7.91423 21.6244 7.92133 22.1329 7.44269C22.6414 6.96405 22.6488 6.18052 22.1513 5.69126ZM34.8195 1.0706L34.6009 1.98524C34.5536 2.17679 34.6249 2.37389 34.7825 2.5016C35.0012 2.6795 35.2108 2.87668 35.4014 3.09351C35.5351 3.24095 35.7351 3.31031 35.9358 3.2656L36.9106 3.05232C37.1507 3.00156 37.3971 3.12628 37.4888 3.34172L37.9855 4.51246C38.0824 4.73251 37.9977 4.98226 37.785 5.10819L36.9588 5.60622C36.7849 5.71182 36.6931 5.90008 36.71 6.09431C36.7351 6.37845 36.7354 6.65867 36.7158 6.93495C36.6982 7.13024 36.7937 7.31226 36.9653 7.41575L37.8133 7.92874C38.0203 8.05479 38.1034 8.30375 38.0125 8.52054L37.8326 8.93591C36.2861 8.80726 34.6959 8.72324 33.0718 8.68703C34.0301 7.94352 34.418 6.66215 33.9436 5.5033C33.3536 4.07434 31.6744 3.37554 30.1891 3.93843C28.7037 4.50127 27.9774 6.11699 28.5624 7.5461C28.7521 8.0094 29.0568 8.39597 29.4326 8.68767C27.8151 8.72403 26.2319 8.80812 24.6918 8.93636L24.5203 8.53207C24.4234 8.3121 24.5082 8.06223 24.7207 7.93634L25.5567 7.43332C25.7306 7.32768 25.8226 7.14407 25.8058 6.94996C25.7806 6.66577 25.7803 6.38552 25.8046 6.10448C25.8222 5.90911 25.7266 5.72236 25.5549 5.61884L24.7169 5.11027C24.51 4.98422 24.427 4.73523 24.5226 4.51824L25.0239 3.36144C25.1146 3.14465 25.3573 3.02726 25.6009 3.07609L26.5665 3.29062C26.7656 3.33616 26.9705 3.26756 27.0983 3.116C27.2879 2.90064 27.4931 2.70369 27.7184 2.52046C27.8719 2.39653 27.9436 2.19467 27.8973 2.00614L27.6762 1.08254C27.6233 0.85161 27.7529 0.614482 27.9769 0.526306L29.1938 0.0482332C29.4224 -0.0448944 29.682 0.0366679 29.8129 0.241292L30.3359 1.0455C30.4455 1.21286 30.6413 1.30115 30.8434 1.2897C31.124 1.27076 31.4004 1.27099 31.6777 1.29019C31.8808 1.30708 32.0748 1.21513 32.1824 1.04996L32.7155 0.234073C32.8466 0.0348537 33.1053 -0.0450456 33.3309 0.0471749L34.5332 0.529254C34.7483 0.607528 34.8753 0.840687 34.8195 1.0706Z" fill="#434242"/>
<path fill-rule="evenodd" clip-rule="evenodd" d="M13.2151 28.4633C13.2151 27.5016 14.0255 26.7219 15.0251 26.7219C16.0248 26.7219 16.8352 27.5016 16.8352 28.4633C16.8352 29.4252 16.0248 30.2049 15.0251 30.2049C14.0255 30.2049 13.2151 29.4252 13.2151 28.4633ZM49.24 28.4633C49.24 27.5016 48.4296 26.7219 47.43 26.7219C46.4304 26.7219 45.6199 27.5016 45.6199 28.4633C45.6199 29.4252 46.4304 30.2049 47.43 30.2049C48.4296 30.2049 49.24 29.4252 49.24 28.4633ZM50.3748 22.0799C51.2672 21.7219 53.9415 21.0174 56.5104 21.3291C62.4378 22.0483 62.5198 29.3995 60.2309 30.9574C59.9558 31.1446 59.4593 31.234 58.3193 31.2339C56.9407 31.2338 61.0782 29.8418 60.3466 26.1619C59.6134 22.4745 55.657 23.3617 55.9194 23.4072C56.659 23.5355 57.3574 23.8825 58.1117 24.5475C59.1825 25.4914 59.8364 28.1625 58.05 29.7847C56.4549 31.2331 54.908 31.1155 53.6789 30.6808C51.642 29.9607 49.8531 27.6393 49.9032 28.1343C50.3328 32.3749 39.8085 33.03 39.7022 30.5741C39.6576 29.5432 46.2536 23.7331 50.3748 22.0799ZM55.2328 24.0606C53.4683 24.0606 52.0379 25.4369 52.0379 27.1345C52.0379 28.8322 53.4683 30.2084 55.2328 30.2084C56.9973 30.2084 58.4277 28.8322 58.4277 27.1345C58.4277 25.4369 56.9973 24.0606 55.2328 24.0606ZM9.89592 19.7959C18.0374 21.7905 21.8079 28.1234 25.587 30.1675C28.2166 31.5898 34.3149 31.5898 36.9445 30.1675C40.7236 28.1234 44.494 21.7905 52.6356 19.7959C52.5537 19.7831 50.3505 19.3535 43.3889 23.2375C41.3128 24.3959 40.0288 26.1051 37.0362 28.1563C32.7068 31.1237 32.9713 29.3617 33.2112 23.3672C33.3876 18.9615 15.8616 20.9141 15.6706 20.8941C16.9502 19.6216 49.9954 19.5018 49.2701 19.4491C39.0563 18.7068 16.1617 18.8223 9.89592 19.7959ZM4.35454 18.0779C3.33179 18.0779 2.53982 18.5554 2.53982 19.0062C2.53982 19.457 3.82326 20.185 4.96538 20.0702C6.10755 19.9553 6.43571 19.988 6.65822 19.8139C6.88068 19.6398 5.37734 18.0779 4.35454 18.0779ZM57.6304 18.0779C58.6532 18.0779 59.4452 18.5554 59.4452 19.0062C59.4452 19.457 58.1617 20.185 57.0196 20.0702C55.8774 19.9553 55.5493 19.988 55.3268 19.8139C55.1043 19.6398 56.6076 18.0779 57.6304 18.0779ZM57.807 27.1969C57.807 28.5159 56.6957 29.5851 55.3249 29.5851C54.747 29.5851 55.0077 28.8574 56.1276 28.239C56.3971 28.0902 54.8448 27.7222 55.0191 27.4532C55.1829 27.2003 56.1925 27.4579 56.2641 27.1969C56.3507 26.8815 55.3466 26.5809 55.3466 26.299C55.3466 25.6997 57.0168 26.8016 56.8366 26.3823C56.6203 25.8789 54.5769 24.8088 55.3249 24.8088C56.6957 24.8088 57.807 25.878 57.807 27.1969ZM48.5751 28.0158C48.7053 29.1849 48.0353 29.628 47.4066 29.628C45.7311 29.628 48.4449 26.8467 48.5751 28.0158ZM16.3439 11.5764C13.7833 12.8754 11.4323 15.0748 8.32059 18.6752C23.274 17.5201 39.2575 17.5201 54.2109 18.6752C51.0992 15.0748 48.7482 12.8754 46.1876 11.5764C46.1016 11.5327 51.31 15.6927 52.2121 17.8652C44.5478 16.6205 36.6509 16.4229 30.8566 16.4279C31.806 9.74972 31.9363 9.25872 30.3195 16.4197C28.3673 16.4282 26.6399 16.4576 25.2078 16.4729C25.5659 14.384 26.3054 12.4932 26.5712 11.5992C26.0386 11.7164 25.2746 11.763 24.8697 12.0688C24.3779 12.7267 24.0354 14.5833 23.4075 16.4277C22.0416 16.4194 21.241 16.4438 19.8909 16.434C20.0469 15.3077 20.9711 13.8546 22.0945 12.4427C21.1395 12.5733 15.2979 13.5291 12.0759 17.3856C16.8713 8.3466 43.3657 10.6385 42.776 10.5203C35.0556 8.97374 20.3599 9.5389 16.3439 11.5764ZM7.22233 29.5227C8.59317 29.5227 9.70449 28.4535 9.70449 27.1345C9.70449 25.8156 8.59317 24.7464 7.22233 24.7464C6.4744 24.7464 8.51769 25.8165 8.73406 26.3199C8.91423 26.7392 7.24404 25.6373 7.24404 26.2366C7.24404 26.5185 8.24815 26.8191 8.16156 27.1345C8.08993 27.3955 7.08035 27.1379 6.9165 27.3907C6.74228 27.6598 8.29449 28.0278 8.02502 28.1766C6.90516 28.7949 6.64447 29.5227 7.22233 29.5227ZM16.1936 27.9464C16.0634 26.7773 13.3496 29.5586 15.0251 29.5586C15.6538 29.5586 16.3238 29.1155 16.1936 27.9464ZM12.0803 22.0799C11.1879 21.7219 8.51366 21.0174 5.94471 21.3291C0.0172898 22.0483 -0.0647121 29.3995 2.22416 30.9574C2.49926 31.1446 2.99582 31.234 4.13585 31.2339C5.51446 31.2338 1.37687 29.8418 2.10856 26.1619C2.84172 22.4745 6.7981 23.3617 6.53574 23.4072C5.79613 23.5355 5.09769 23.8825 4.3434 24.5475C3.27263 25.4914 2.61867 28.1625 4.40512 29.7847C6.00022 31.2331 7.54707 31.1155 8.77625 30.6808C10.8131 29.9607 12.602 27.6393 12.5519 28.1343C12.1223 32.3749 22.6466 33.03 22.7529 30.5741C22.7975 29.5432 16.2015 23.7331 12.0803 22.0799ZM7.22233 24.0606C8.98679 24.0606 10.4172 25.4369 10.4172 27.1345C10.4172 28.8322 8.98679 30.2084 7.22233 30.2084C5.45782 30.2084 4.02743 28.8322 4.02743 27.1345C4.02743 25.4369 5.45782 24.0606 7.22233 24.0606Z" fill="#FF6857"/>
<path fill-rule="evenodd" clip-rule="evenodd" d="M76.5254 12.5865V8.08035C76.5254 7.54354 76.3588 7.13161 76.0258 6.84448C75.6927 6.55742 75.2816 6.41384 74.7922 6.41384H70.8977L70.3879 8.94166H73.2221C73.3988 8.94166 73.4872 9.02905 73.4872 9.20381V14.7924H71.0421V17.133H73.4889V22.4593C73.4889 22.6342 73.4006 22.7215 73.2238 22.7215H70.3897L70.9198 25.2493H74.223C75.0794 25.2493 75.6775 25.087 76.0173 24.7625C76.3572 24.4379 76.5271 23.9012 76.5271 23.1522C76.5271 19.6303 76.5271 16.1084 76.5271 12.5865H76.5254ZM120.613 29.0546C120.229 29.0546 119.918 29.3549 119.918 29.7252C119.918 30.0954 120.229 30.3958 120.613 30.3958C120.997 30.3958 121.308 30.0954 121.308 29.7252C121.308 29.3549 120.997 29.0546 120.613 29.0546ZM70.3823 29.6414C70.3823 30.4829 70.8852 30.9053 71.571 30.9053C71.8442 30.9053 72.0438 30.8375 72.2268 30.7045C72.3416 30.6242 72.4181 30.5581 72.4181 30.4678C72.4181 30.376 72.3285 30.3047 72.2377 30.3047C72.1776 30.3047 72.112 30.3474 72.0465 30.4001C71.877 30.5373 71.7486 30.5799 71.571 30.5799C71.3086 30.5799 71.0983 30.4871 70.9562 30.3047C70.8305 30.1416 70.7813 29.9534 70.7813 29.6423C70.7813 29.3295 70.8305 29.1413 70.9562 28.9782C71.0983 28.7933 71.3086 28.703 71.571 28.703C71.7486 28.703 71.8689 28.7456 72.0465 28.8811C72.1366 28.9506 72.1776 28.9782 72.2377 28.9782C72.3285 28.9782 72.4181 28.9069 72.4181 28.815C72.4181 28.7247 72.3552 28.6736 72.2268 28.5808C72.0328 28.4403 71.8442 28.3776 71.571 28.3776C70.8852 28.3776 70.3823 28.7975 70.3823 29.6423V29.6414ZM72.9791 30.1751C72.9791 30.375 73.0556 30.5556 73.185 30.6786C73.3544 30.8375 73.5785 30.9053 73.9501 30.9053C74.2962 30.9053 74.5012 30.84 74.7197 30.6434C74.7197 30.7079 74.7181 30.7615 74.7553 30.8174C74.8237 30.9222 75.0151 30.922 75.084 30.8183C75.1141 30.7731 75.1196 30.738 75.1196 30.6502V29.2032C75.1196 28.6645 74.758 28.3776 74.0639 28.3776C73.7779 28.3776 73.5675 28.4253 73.3735 28.539C73.2429 28.6176 73.0147 28.7675 73.165 28.9305C73.2458 29.0068 73.3758 28.9736 73.4528 28.9104C73.6331 28.7598 73.7861 28.6921 74.0612 28.6921C74.5312 28.6921 74.7224 28.8853 74.7224 29.2608V29.4608H73.9091C73.3243 29.4608 72.9791 29.7418 72.9791 30.1759V30.1751ZM73.3708 30.1734C73.3708 29.8898 73.5675 29.7368 73.9528 29.7368H74.7224V30.0003C74.7224 30.211 74.676 30.3465 74.5831 30.4293C74.4164 30.5757 74.2142 30.5958 73.9911 30.5958C73.573 30.5958 73.3708 30.4527 73.3708 30.1726V30.1734ZM77.3858 30.4344C77.5059 30.4344 77.5716 30.3566 77.6262 30.2612L78.2875 29.0944V30.6502C78.2875 30.738 78.2929 30.7731 78.323 30.8183C78.392 30.9219 78.5819 30.9219 78.6509 30.8183C78.6809 30.7731 78.6864 30.738 78.6864 30.6502V28.6302C78.6864 28.5348 78.6619 28.4796 78.6181 28.4395C78.5826 28.4069 78.5334 28.3868 78.4733 28.3868C78.3503 28.3868 78.282 28.4671 78.2137 28.585L77.3858 30.0379L76.5578 28.585C76.4895 28.4671 76.4212 28.3868 76.2982 28.3868C76.2381 28.3868 76.1889 28.4069 76.1534 28.4395C76.1096 28.4796 76.0851 28.5348 76.0851 28.6302V30.6502C76.0851 30.738 76.0905 30.7731 76.1206 30.8183C76.1896 30.9219 76.3795 30.9219 76.4485 30.8183C76.4786 30.7731 76.484 30.738 76.484 30.6502V29.0944L77.1453 30.2612C77.1999 30.3566 77.2655 30.4344 77.3858 30.4344ZM80.6319 30.5799C80.4325 30.5799 80.2768 30.5222 80.1456 30.4017C79.957 30.2286 79.927 29.9275 79.927 29.6414C79.927 29.3554 79.957 29.0567 80.1456 28.8837C80.2768 28.7632 80.4325 28.703 80.6319 28.703C80.8315 28.703 80.9872 28.7632 81.1183 28.8837C81.3069 29.0567 81.337 29.3554 81.337 29.6414C81.337 29.9275 81.3069 30.2286 81.1183 30.4017C80.9872 30.5222 80.8315 30.5799 80.6319 30.5799ZM80.6319 28.3768C80.304 28.3768 80.0444 28.4872 79.8586 28.6578C79.58 28.9188 79.5281 29.26 79.5281 29.6414C79.5281 30.0203 79.58 30.3641 79.8586 30.6251C80.0444 30.7957 80.304 30.9061 80.6319 30.9061C80.9599 30.9061 81.2194 30.7957 81.4052 30.6251C81.684 30.3641 81.7359 30.0203 81.7359 29.6414C81.7359 29.26 81.684 28.9188 81.4052 28.6578C81.2194 28.4872 80.9599 28.3768 80.6319 28.3768ZM83.5393 30.5799C83.3399 30.5799 83.1841 30.5222 83.0529 30.4017C82.8644 30.2286 82.8344 29.9275 82.8344 29.6414C82.8344 29.3554 82.8644 29.0567 83.0529 28.8837C83.1841 28.7632 83.3399 28.703 83.5393 28.703C83.7388 28.703 83.8946 28.7632 84.0257 28.8837C84.2143 29.0567 84.2443 29.3554 84.2443 29.6414C84.2443 29.9275 84.2143 30.2286 84.0257 30.4017C83.8946 30.5222 83.7388 30.5799 83.5393 30.5799ZM83.5393 28.3768C83.2114 28.3768 82.9518 28.4872 82.766 28.6578C82.4874 28.9188 82.4354 29.26 82.4354 29.6414C82.4354 30.0203 82.4874 30.3641 82.766 30.6251C82.9518 30.7957 83.2114 30.9061 83.5393 30.9061C83.8672 30.9061 84.1268 30.7957 84.3126 30.6251C84.5913 30.3641 84.6433 30.0203 84.6433 29.6414C84.6433 29.26 84.5913 28.9188 84.3126 28.6578C84.1268 28.4872 83.8672 28.3768 83.5393 28.3768ZM85.381 29.4281C85.381 29.7444 85.4084 30.0404 85.4822 30.2437C85.6351 30.6728 85.9876 30.9061 86.4877 30.9061C86.7891 30.9061 87.0597 30.8057 87.2427 30.6351C87.4705 30.4218 87.5716 30.1357 87.5716 29.6439C87.5716 28.9465 87.3245 28.4069 86.5369 28.4069C86.1981 28.4069 85.8975 28.5399 85.7363 28.7732C85.739 28.3818 85.7663 28.0773 85.9931 27.8732C86.2391 27.6566 86.7428 27.6189 87.1389 27.6189C87.2373 27.6189 87.2783 27.6114 87.3165 27.5888C87.4231 27.5236 87.4231 27.378 87.3165 27.3128C87.2783 27.2902 87.2373 27.2827 87.1389 27.2827C86.6517 27.2827 86.0724 27.3555 85.7636 27.6114C85.3974 27.9134 85.381 28.2588 85.381 29.4281ZM87.1799 29.659C87.1799 30.0479 87.1171 30.2562 86.9723 30.3992C86.8493 30.5196 86.6708 30.5849 86.485 30.5849C86.2992 30.5849 86.1215 30.5222 85.9986 30.4017C85.8538 30.2587 85.7745 30.0479 85.7745 29.659C85.7745 29.2701 85.8538 29.0442 85.9986 28.9012C86.1215 28.7807 86.2992 28.718 86.485 28.718C86.6708 28.718 86.8493 28.7832 86.9723 28.9037C87.1171 29.0467 87.1799 29.2701 87.1799 29.659ZM88.2529 29.6414C88.2529 30.4829 88.7557 30.9053 89.4415 30.9053C89.7148 30.9053 89.9142 30.8375 90.0973 30.7045C90.2121 30.6242 90.2886 30.5581 90.2886 30.4678C90.2886 30.376 90.199 30.3047 90.1083 30.3047C90.0481 30.3047 89.9826 30.3474 89.917 30.4001C89.7476 30.5373 89.6192 30.5799 89.4415 30.5799C89.1792 30.5799 88.9688 30.4871 88.8268 30.3047C88.701 30.1416 88.6518 29.9534 88.6518 29.6423C88.6518 29.3295 88.701 29.1413 88.8268 28.9782C88.9688 28.7933 89.1792 28.703 89.4415 28.703C89.6192 28.703 89.7394 28.7456 89.917 28.8811C90.0072 28.9506 90.0481 28.9782 90.1083 28.9782C90.199 28.9782 90.2886 28.9069 90.2886 28.815C90.2886 28.7247 90.2258 28.6736 90.0973 28.5808C89.9033 28.4403 89.7148 28.3776 89.4415 28.3776C88.7557 28.3776 88.2529 28.7975 88.2529 29.6423V29.6414ZM91.745 28.7331H92.6795V30.6502C92.6795 30.738 92.6851 30.7731 92.7151 30.8183C92.7841 30.9219 92.974 30.9219 93.043 30.8183C93.073 30.7731 93.0785 30.738 93.0785 30.6502V28.6277C93.0785 28.5725 93.0785 28.5072 93.0238 28.457C92.9693 28.4069 92.8982 28.4069 92.8381 28.4069H91.6029C91.5429 28.4069 91.4718 28.4069 91.4172 28.457C91.3625 28.5072 91.3625 28.5725 91.3625 28.6277V29.4708C91.3625 30.3566 91.1139 30.5347 90.8679 30.5598C90.8078 30.5648 90.786 30.5673 90.7559 30.5849C90.6511 30.6437 90.6562 30.7874 90.7559 30.8484C90.7886 30.866 90.8296 30.876 90.8926 30.876C91.398 30.876 91.745 30.5799 91.745 29.5712V28.7331ZM94.7426 30.3866L94.0923 28.5625C94.0567 28.4646 94.0103 28.3868 93.8955 28.3868C93.819 28.3868 93.7398 28.4319 93.7152 28.4947C93.696 28.5448 93.7042 28.5976 93.7316 28.6729L94.554 30.8384L94.3846 31.3051C94.2999 31.5385 94.1742 31.6088 93.9775 31.6088C93.8668 31.6088 93.7698 31.6487 93.7698 31.7718C93.7698 31.915 93.8962 31.9349 94.0157 31.9349C94.3581 31.9349 94.5868 31.7802 94.7016 31.4707L95.7563 28.6729C95.7836 28.5976 95.7919 28.5448 95.7727 28.4947C95.7482 28.4319 95.6689 28.3868 95.5924 28.3868C95.4776 28.3868 95.4312 28.4646 95.3957 28.5625L94.7426 30.3866ZM97.68 29.4415H97.5134L96.6116 28.4947C96.5351 28.4144 96.4914 28.3868 96.4231 28.3868C96.3346 28.3868 96.2427 28.458 96.2427 28.5474C96.2427 28.5925 96.2591 28.6377 96.3384 28.7164L97.1882 29.5745L96.2454 30.5673C96.169 30.6476 96.1499 30.6903 96.1499 30.7355C96.1499 30.8249 96.2417 30.896 96.3302 30.896C96.3985 30.896 96.4422 30.8685 96.5187 30.7881L97.5106 29.751H97.68V30.6502C97.68 30.738 97.6855 30.7731 97.7155 30.8183C97.7845 30.9219 97.9744 30.9219 98.0434 30.8183C98.0735 30.7731 98.079 30.738 98.079 30.6502V29.751H98.2484L99.2403 30.7881C99.3168 30.8685 99.3605 30.896 99.4289 30.896C99.5173 30.896 99.6092 30.8249 99.6092 30.7355C99.6092 30.6903 99.5901 30.6476 99.5136 30.5673L98.5708 29.5745L99.4206 28.7164C99.4999 28.6377 99.5163 28.5925 99.5163 28.5474C99.5163 28.458 99.4244 28.3868 99.3359 28.3868C99.2676 28.3868 99.2239 28.4144 99.1475 28.4947L98.2457 29.4415H98.079V28.6302C98.079 28.5423 98.0735 28.5072 98.0434 28.4621C97.9726 28.3616 97.7843 28.3613 97.7155 28.4646C97.6855 28.5097 97.68 28.5448 97.68 28.6327V29.4415ZM102.057 28.974V30.6502C102.057 30.738 102.063 30.7731 102.093 30.8183C102.162 30.9219 102.352 30.922 102.421 30.8183C102.451 30.7731 102.456 30.738 102.456 30.6502V28.6302C102.456 28.488 102.394 28.3868 102.238 28.3868C102.14 28.3868 102.068 28.447 101.986 28.56L100.719 30.3064V28.6302C100.719 28.5423 100.713 28.5072 100.683 28.4621C100.612 28.3616 100.424 28.3613 100.355 28.4646C100.325 28.5097 100.32 28.5448 100.32 28.6327V30.6526C100.32 30.7948 100.382 30.896 100.538 30.896C100.637 30.896 100.708 30.8358 100.79 30.7229L102.057 28.974ZM104.735 30.876C105.238 30.876 105.539 30.6151 105.539 30.1935C105.539 29.8924 105.358 29.6967 105.069 29.5963C105.342 29.506 105.495 29.3202 105.495 29.0542C105.495 28.6628 105.178 28.4069 104.703 28.4069H103.686C103.626 28.4069 103.555 28.4069 103.5 28.457C103.446 28.5072 103.446 28.5725 103.446 28.6277V30.6551C103.446 30.7104 103.446 30.7756 103.5 30.8258C103.555 30.876 103.626 30.876 103.686 30.876H104.735ZM105.107 29.0844C105.107 29.3203 104.943 29.4557 104.632 29.4557H103.845V28.718H104.632C104.938 28.718 105.107 28.8485 105.107 29.0844ZM105.151 30.1584C105.151 30.4043 104.97 30.5648 104.664 30.5648H103.845V29.7519H104.664C104.97 29.7519 105.151 29.9124 105.151 30.1584ZM106.163 30.1751C106.163 30.375 106.239 30.5556 106.369 30.6786C106.538 30.8375 106.762 30.9053 107.134 30.9053C107.48 30.9053 107.685 30.84 107.903 30.6434C107.903 30.7078 107.902 30.7615 107.939 30.8174C108.007 30.9222 108.199 30.922 108.268 30.8183C108.298 30.7731 108.303 30.738 108.303 30.6502V29.2032C108.303 28.6645 107.942 28.3776 107.247 28.3776C106.961 28.3776 106.751 28.4253 106.557 28.539C106.426 28.6176 106.198 28.7674 106.348 28.9305C106.429 29.0068 106.559 28.9736 106.636 28.9104C106.817 28.7598 106.97 28.6921 107.245 28.6921C107.715 28.6921 107.906 28.8853 107.906 29.2608V29.4608H107.093C106.508 29.4608 106.163 29.7418 106.163 30.1759V30.1751ZM106.554 30.1734C106.554 29.8898 106.751 29.7368 107.136 29.7368H107.906V30.0003C107.906 30.211 107.86 30.3465 107.767 30.4293C107.6 30.5757 107.398 30.5958 107.175 30.5958C106.757 30.5958 106.554 30.4527 106.554 30.1726V30.1734ZM110.963 29.7619V30.6493C110.963 30.7372 110.968 30.7723 110.998 30.8174C111.067 30.9223 111.258 30.9222 111.326 30.8174C111.356 30.7723 111.362 30.7372 111.362 30.6493V28.6319C111.362 28.544 111.356 28.5097 111.326 28.4646C111.257 28.3609 111.067 28.3609 110.998 28.4646C110.968 28.5097 110.963 28.544 110.963 28.6319V29.4357H109.667V28.6319C109.667 28.544 109.662 28.5097 109.632 28.4646C109.563 28.3609 109.373 28.3609 109.304 28.4646C109.274 28.5097 109.269 28.544 109.269 28.6319V30.6493C109.269 30.7372 109.274 30.7723 109.304 30.8174C109.373 30.9223 109.564 30.9222 109.632 30.8174C109.662 30.7723 109.667 30.7372 109.667 30.6493V29.7619H110.963ZM114.091 28.974V30.6502C114.091 30.738 114.097 30.7731 114.127 30.8183C114.196 30.9219 114.386 30.922 114.455 30.8183C114.485 30.7731 114.49 30.738 114.49 30.6502V28.6302C114.49 28.488 114.428 28.3868 114.272 28.3868C114.173 28.3868 114.102 28.447 114.02 28.56L112.752 30.3064V28.6302C112.752 28.5423 112.747 28.5072 112.717 28.4621C112.646 28.3616 112.458 28.3613 112.389 28.4646C112.359 28.5097 112.354 28.5448 112.354 28.6327V30.6526C112.354 30.7948 112.416 30.896 112.572 30.896C112.671 30.896 112.742 30.8358 112.824 30.7229L114.091 28.974ZM117.309 29.7318C117.372 29.7318 117.432 29.7318 117.484 29.6841C117.536 29.6364 117.539 29.5686 117.539 29.5184C117.534 28.8326 117.117 28.3768 116.436 28.3768C115.76 28.3768 115.328 28.8251 115.328 29.6389C115.328 30.5146 115.793 30.9061 116.504 30.9061C116.779 30.9061 117.011 30.8509 117.172 30.7631C117.278 30.7028 117.452 30.5925 117.452 30.4821C117.452 30.3992 117.367 30.3231 117.281 30.3231C117.221 30.3231 117.18 30.3457 117.095 30.4118C116.935 30.5373 116.727 30.5899 116.521 30.5899C116.002 30.5899 115.725 30.2729 115.725 29.7318H117.309ZM115.725 29.4557C115.733 29.2809 115.749 29.1906 115.809 29.0559C115.908 28.8326 116.144 28.6879 116.436 28.6879C116.727 28.6879 116.962 28.8301 117.063 29.0559C117.123 29.1906 117.139 29.2809 117.147 29.4557H115.725ZM125.676 28.57C125.676 28.5097 125.648 28.4646 125.599 28.4345C125.561 28.4118 125.52 28.4069 125.432 28.4069H123.695C123.607 28.4069 123.566 28.4118 123.528 28.4345C123.425 28.4972 123.425 28.6427 123.528 28.7055C123.566 28.7281 123.607 28.7331 123.695 28.7331H124.364V30.6502C124.364 30.738 124.369 30.7731 124.4 30.8183C124.469 30.9219 124.658 30.922 124.727 30.8183C124.757 30.7731 124.763 30.738 124.763 30.6502V28.7331H125.432C125.52 28.7331 125.561 28.7281 125.599 28.7055C125.648 28.6754 125.676 28.6302 125.676 28.57ZM128.095 29.7318C128.158 29.7318 128.219 29.7318 128.27 29.6841C128.322 29.6364 128.325 29.5686 128.325 29.5184C128.32 28.8326 127.903 28.3768 127.222 28.3768C126.546 28.3768 126.114 28.8251 126.114 29.6389C126.114 30.5146 126.579 30.9061 127.29 30.9061C127.566 30.9061 127.797 30.8509 127.958 30.7631C128.065 30.7028 128.238 30.5925 128.238 30.4821C128.238 30.3992 128.153 30.3231 128.067 30.3231C128.007 30.3231 127.966 30.3457 127.882 30.4118C127.721 30.5373 127.514 30.5899 127.307 30.5899C126.789 30.5899 126.511 30.2729 126.511 29.7318H128.095ZM126.511 29.4557C126.519 29.2809 126.535 29.1906 126.595 29.0559C126.694 28.8326 126.931 28.6879 127.222 28.6879C127.514 28.6879 127.748 28.8301 127.849 29.0559C127.909 29.1906 127.925 29.2809 127.934 29.4557H126.511ZM129.752 29.9108L130.315 30.7555C130.378 30.8484 130.43 30.896 130.515 30.896C130.612 30.896 130.714 30.8207 130.714 30.7205C130.714 30.6778 130.692 30.6326 130.646 30.5673L130.001 29.6381L130.641 28.718C130.684 28.6527 130.709 28.6076 130.709 28.5625C130.709 28.4645 130.604 28.3868 130.509 28.3868C130.422 28.3868 130.373 28.4345 130.31 28.5273L129.752 29.3646L129.195 28.5273C129.132 28.4345 129.083 28.3868 128.996 28.3868C128.901 28.3868 128.796 28.4646 128.796 28.5625C128.796 28.6076 128.821 28.6527 128.864 28.718L129.501 29.6381L128.859 30.5673C128.812 30.6326 128.791 30.6778 128.791 30.7205C128.791 30.8206 128.893 30.896 128.99 30.896C129.075 30.896 129.127 30.8484 129.19 30.7555L129.752 29.9108ZM132.343 30.5799C132.143 30.5799 131.988 30.5222 131.856 30.4017C131.668 30.2286 131.638 29.9275 131.638 29.6414C131.638 29.3554 131.668 29.0567 131.856 28.8837C131.988 28.7632 132.143 28.703 132.343 28.703C132.542 28.703 132.698 28.7632 132.829 28.8837C133.018 29.0567 133.048 29.3554 133.048 29.6414C133.048 29.9275 133.018 30.2286 132.829 30.4017C132.698 30.5222 132.542 30.5799 132.343 30.5799ZM132.343 28.3768C132.015 28.3768 131.755 28.4872 131.57 28.6578C131.291 28.9188 131.239 29.26 131.239 29.6414C131.239 30.0203 131.291 30.3641 131.57 30.6251C131.755 30.7957 132.015 30.9061 132.343 30.9061C132.671 30.9061 132.93 30.7957 133.116 30.6251C133.395 30.3641 133.447 30.0203 133.447 29.6414C133.447 29.26 133.395 28.9188 133.116 28.6578C132.93 28.4872 132.671 28.3768 132.343 28.3768ZM134.141 29.6414C134.141 30.4829 134.644 30.9053 135.329 30.9053C135.603 30.9053 135.802 30.8375 135.985 30.7045C136.1 30.6242 136.177 30.5581 136.177 30.4678C136.177 30.376 136.087 30.3047 135.996 30.3047C135.936 30.3047 135.871 30.3474 135.805 30.4001C135.635 30.5373 135.507 30.5799 135.329 30.5799C135.067 30.5799 134.857 30.4871 134.715 30.3047C134.589 30.1416 134.54 29.9534 134.54 29.6423C134.54 29.3295 134.589 29.1413 134.715 28.9782C134.857 28.7933 135.067 28.703 135.329 28.703C135.507 28.703 135.627 28.7456 135.805 28.8811C135.895 28.9506 135.936 28.9782 135.996 28.9782C136.087 28.9782 136.177 28.9069 136.177 28.815C136.177 28.7247 136.114 28.6736 135.985 28.5808C135.791 28.4403 135.603 28.3776 135.329 28.3776C134.644 28.3776 134.141 28.7975 134.141 29.6423V29.6414ZM138.267 30.4344C138.387 30.4344 138.453 30.3566 138.507 30.2612L139.169 29.0944V30.6502C139.169 30.738 139.174 30.7731 139.204 30.8183C139.273 30.9219 139.463 30.9219 139.532 30.8183C139.562 30.7731 139.568 30.738 139.568 30.6502V28.6302C139.568 28.5348 139.543 28.4796 139.499 28.4395C139.464 28.4069 139.415 28.3868 139.354 28.3868C139.231 28.3868 139.163 28.4671 139.095 28.585L138.267 30.0379L137.439 28.585C137.371 28.4671 137.302 28.3868 137.179 28.3868C137.119 28.3868 137.07 28.4069 137.035 28.4395C136.991 28.4796 136.966 28.5348 136.966 28.6302V30.6502C136.966 30.738 136.972 30.7731 137.002 30.8183C137.071 30.9219 137.261 30.9219 137.33 30.8183C137.36 30.7731 137.365 30.738 137.365 30.6502V29.0944L138.026 30.2612C138.081 30.3566 138.147 30.4344 138.267 30.4344ZM141.513 30.5799C141.314 30.5799 141.158 30.5222 141.027 30.4017C140.838 30.2286 140.808 29.9275 140.808 29.6414C140.808 29.3554 140.838 29.0567 141.027 28.8837C141.158 28.7632 141.314 28.703 141.513 28.703C141.713 28.703 141.868 28.7632 141.999 28.8837C142.188 29.0567 142.218 29.3554 142.218 29.6414C142.218 29.9275 142.188 30.2286 141.999 30.4017C141.868 30.5222 141.713 30.5799 141.513 30.5799ZM141.513 28.3768C141.185 28.3768 140.926 28.4872 140.74 28.6578C140.461 28.9188 140.409 29.26 140.409 29.6414C140.409 30.0203 140.461 30.3641 140.74 30.6251C140.926 30.7957 141.185 30.9061 141.513 30.9061C141.841 30.9061 142.101 30.7957 142.286 30.6251C142.565 30.3641 142.617 30.0203 142.617 29.6414C142.617 29.26 142.565 28.9188 142.286 28.6578C142.101 28.4872 141.841 28.3768 141.513 28.3768ZM145.262 28.57C145.262 28.5097 145.235 28.4646 145.186 28.4345C145.147 28.4118 145.106 28.4069 145.019 28.4069H143.281C143.194 28.4069 143.153 28.4118 143.114 28.4345C143.012 28.4972 143.012 28.6427 143.114 28.7055C143.153 28.7281 143.194 28.7331 143.281 28.7331H143.95V30.6502C143.95 30.738 143.956 30.7731 143.986 30.8183C144.055 30.9219 144.245 30.9219 144.314 30.8183C144.344 30.7731 144.349 30.738 144.349 30.6502V28.7331H145.019C145.106 28.7331 145.147 28.7281 145.186 28.7055C145.235 28.6754 145.262 28.6302 145.262 28.57ZM148 29.6414C148 29.245 147.94 28.8435 147.667 28.5925C147.525 28.4621 147.289 28.3768 147.011 28.3768C146.71 28.3768 146.475 28.442 146.251 28.703C146.251 28.6232 146.262 28.5335 146.216 28.4646C146.147 28.3609 145.957 28.3609 145.888 28.4646C145.858 28.5097 145.852 28.5448 145.852 28.6327V31.7542C145.852 31.8421 145.858 31.8772 145.888 31.9223C145.957 32.026 146.147 32.026 146.216 31.9223C146.246 31.8772 146.251 31.8421 146.251 31.7542V30.5899C146.475 30.8459 146.716 30.9061 147.011 30.9061C147.289 30.9061 147.525 30.8208 147.667 30.6903C147.94 30.4394 148 30.0379 148 29.6414ZM146.251 29.6414C146.251 29.1596 146.339 28.703 146.926 28.703C147.514 28.703 147.601 29.1596 147.601 29.6414C147.601 30.1232 147.514 30.5799 146.926 30.5799C146.339 30.5799 146.251 30.1232 146.251 29.6414ZM137.534 25.2493V8.9414H139.512L138.778 6.41357H133.313L132.539 8.9414H134.517V25.2493H137.534ZM140.328 8.17397V23.3207C140.328 23.5828 140.362 23.8294 140.43 24.0603C140.579 24.5663 140.933 24.8968 141.429 25.0902C141.701 25.1963 142.041 25.2493 142.448 25.2493H145.874C146.282 25.2493 146.621 25.1963 146.893 25.0902C147.389 24.8968 147.744 24.5662 147.892 24.0603C147.96 23.8294 147.994 23.5828 147.994 23.3207V8.17397C147.994 7.63716 147.835 7.20966 147.515 6.89131C147.196 6.57303 146.689 6.41384 145.996 6.41384H142.326C141.633 6.41384 141.126 6.57303 140.807 6.89131C140.487 7.20966 140.328 7.63716 140.328 8.17397ZM143.305 9.05403C143.305 8.87923 143.393 8.79188 143.57 8.79188H144.732C144.909 8.79188 144.997 8.87923 144.997 9.05403V22.5904C144.997 22.6903 144.98 22.7621 144.946 22.8058C144.912 22.8495 144.834 22.8713 144.712 22.8713H143.59C143.468 22.8713 143.39 22.8495 143.356 22.8058C143.322 22.7621 143.305 22.6903 143.305 22.5904V9.05403ZM80.7682 14.8673H81.2168L82.7257 9.04398H85.7842L84.0102 15.298L85.7638 22.6192H82.5218L81.3596 17.0206H80.7682V22.6192H77.7504V9.04398H80.7682V14.8673ZM88.9039 22.6192C88.0475 22.6192 87.4493 22.4569 87.1095 22.1324C86.7697 21.8078 86.5998 21.2711 86.5998 20.5221V10.7104C86.5998 10.1737 86.7663 9.76171 87.0994 9.47462C87.4324 9.18756 87.8436 9.04398 88.333 9.04398H92.2274L92.7371 11.5718H89.903C89.7263 11.5718 89.6379 11.6592 89.6379 11.8339V19.8292C89.6379 20.004 89.7263 20.0914 89.903 20.0914H92.7371L92.2071 22.6192H88.9039ZM101.403 22.6192H98.3853V11.3845H96.7744V22.6192H93.7567V9.04398H101.403V22.6192ZM105.563 11.422V16.7585H107.031C107.153 16.7585 107.231 16.7366 107.265 16.6929C107.299 16.6493 107.316 16.5774 107.316 16.4776V11.6842C107.316 11.5093 107.228 11.422 107.051 11.422H105.563ZM108.438 9.04398C109.022 9.04398 109.461 9.1938 109.753 9.49336C110.045 9.79293 110.191 10.1924 110.191 10.6918V17.1891C110.191 17.4512 110.161 17.6915 110.099 17.91C109.962 18.4 109.59 18.6998 109.11 18.8649C108.839 18.9586 108.499 19.0054 108.091 19.0054H105.563V22.6192H102.626V9.04398H108.438ZM111.353 9.04398H117.103L117.613 11.5718H114.391V14.7924H116.838V17.133H114.391V20.0914H117.491L116.981 22.6192H111.353V9.04398ZM120.937 22.6192C120.08 22.6192 119.482 22.4569 119.142 22.1324C118.803 21.8078 118.633 21.2711 118.633 20.5221V10.7104C118.633 10.1737 118.799 9.76171 119.132 9.47462C119.465 9.18756 119.876 9.04398 120.366 9.04398H124.26L124.77 11.5718H121.936C121.759 11.5718 121.671 11.6592 121.671 11.8339V19.8292C121.671 20.004 121.759 20.0914 121.936 20.0914H124.77L124.24 22.6192H120.937ZM128.094 22.6192C127.237 22.6192 126.639 22.4569 126.299 22.1324C125.959 21.8078 125.79 21.2711 125.79 20.5221V10.7104C125.79 10.1737 125.956 9.76171 126.289 9.47462C126.622 9.18756 127.033 9.04398 127.523 9.04398H131.417L131.927 11.5718H129.093C128.916 11.5718 128.828 11.6592 128.828 11.8339V19.8292C128.828 20.004 128.916 20.0914 129.093 20.0914H131.927L131.397 22.6192H128.094Z" fill="#434242"/>
</svg>
