<svg width="18" height="24" viewBox="0 0 18 24" fill="none" xmlns="http://www.w3.org/2000/svg">
<path d="M9 0C4.34522 0 0.5625 3.78281 0.5625 8.4375C0.5625 10.0125 0.998531 11.5454 1.82817 12.8672L8.42803 23.6679C8.54063 23.8507 8.70938 23.9633 8.9063 23.9914C9.17339 24.0335 9.46884 23.9211 9.62348 23.6539L16.2422 12.7547C17.0296 11.461 17.4375 9.9563 17.4375 8.4375C17.4375 3.78281 13.6548 0 9 0ZM9 12.6562C6.63759 12.6562 4.78125 10.7437 4.78125 8.4375C4.78125 6.11714 6.67964 4.21875 9 4.21875C11.3204 4.21875 13.2188 6.11714 13.2188 8.4375C13.2188 10.7297 11.3906 12.6562 9 12.6562Z" fill="#FF8D3B"/>
<path d="M9 0V4.21875C11.3204 4.21875 13.2188 6.11714 13.2188 8.4375C13.2188 10.7297 11.3906 12.6562 9 12.6562V23.9996C9.23995 24.0052 9.4867 23.8901 9.62344 23.6539L16.2422 12.7547C17.0296 11.461 17.4375 9.9563 17.4375 8.4375C17.4375 3.78281 13.6548 0 9 0Z" fill="#FF6857"/>
</svg>
