<svg width="24" height="24" viewBox="0 0 24 24" fill="none" xmlns="http://www.w3.org/2000/svg">
<path d="M12.0469 0C5.45166 0 0 5.35781 0 11.9531C0 18.5484 5.45166 24 12.0469 24C18.6421 24 24 18.5484 24 11.9531C24 5.35781 18.6421 0 12.0469 0Z" fill="#FF8D3B"/>
<path d="M24 11.9531C24 18.5484 18.6211 24 12 24V0C18.6211 0 24 5.35781 24 11.9531Z" fill="#FF6857"/>
<path d="M20 11.9558C20 16.3448 16.4332 20 12.0442 20C7.65516 20 4 16.3448 4 11.9558C4 7.56685 7.65516 4 12.0442 4C16.4332 4 20 7.56685 20 11.9558Z" fill="white"/>
<path d="M20 11.9558C20 16.3448 16.4134 20 12 20V4C16.4134 4 20 7.56685 20 11.9558Z" fill="#E5E4FF"/>
<path d="M14.5747 15.761L11.8313 13.0544L11.2495 12.5025C10.9168 12.2029 10.9168 11.6984 11.2495 11.3988L14.5747 8.24544C15.3394 7.50445 16.52 8.60813 15.7384 9.34912L13.0117 11.9507L15.7384 14.6573C16.5366 15.3984 15.3227 16.4863 14.5747 15.761Z" fill="#8F8AFF"/>
<path d="M12.0459 3C7.12797 3 3 6.99485 3 11.9541C3 16.8719 7.08678 21 12.0459 21C16.9639 21 21 16.9132 21 11.9541C21 7.03622 17.0051 3 12.0459 3ZM17.8591 16.8949L17.4046 16.4265C16.757 15.7928 15.779 16.7571 16.4264 17.4046L16.8949 17.8592C15.7377 18.8235 14.3051 19.4434 12.7347 19.5811V18.9337C12.7347 18.479 12.3903 18.2449 12.0459 18.2449C11.7015 18.2449 11.3571 18.479 11.3571 18.9337V19.5811C9.78673 19.4434 8.26234 18.8234 7.10506 17.8591L7.57356 17.4046C8.20719 16.7571 7.24295 15.779 6.59541 16.4265L6.14086 16.8948C5.17662 15.7378 4.55663 14.2133 4.41892 12.6429H5.06633C5.97537 12.6429 5.97537 11.2653 5.06633 11.2653H4.41892C4.55663 9.6949 5.17662 8.26225 6.14086 7.10506L6.59541 7.57347C7.243 8.2071 8.22101 7.24276 7.57356 6.59536L7.10506 6.14072C8.26234 5.17658 9.78673 4.55663 11.3571 4.41892V5.06633C11.3571 5.52096 11.7015 5.7551 12.0459 5.7551C12.3903 5.7551 12.7347 5.52096 12.7347 5.06633V4.41892C14.3051 4.55663 15.7377 5.17658 16.8949 6.14077L16.4264 6.59541C15.779 7.24281 16.7708 8.2071 17.4046 7.57352L17.8591 7.1051C18.8234 8.26229 19.4434 9.6949 19.5811 11.2654H18.9337C18.0246 11.2654 18.0246 12.6429 18.9337 12.6429H19.5811C19.4434 14.2133 18.8234 15.7378 17.8591 16.8949Z" fill="#BAB6FF"/>
<path d="M21 11.9541C21 16.9132 16.9432 21 12 21V18.2449C12.3462 18.2449 12.6923 18.479 12.6923 18.9337V19.5811C14.2708 19.4434 15.7107 18.8234 16.8739 17.8591L16.403 17.4046C15.7523 16.7571 16.7353 15.7928 17.3862 16.4265L17.843 16.8948C18.8122 15.7378 19.4354 14.2133 19.5738 12.6429H18.9231C18.0094 12.6429 18.0094 11.2653 18.9231 11.2653H19.5738C19.4354 9.6949 18.8122 8.26225 17.843 7.10506L17.3862 7.57347C16.7491 8.2071 15.7522 7.24276 16.403 6.59536L16.8739 6.14072C15.7107 5.17658 14.2708 4.55663 12.6923 4.41892V5.06633C12.6923 5.52096 12.3462 5.7551 12 5.7551V3C16.9846 3 21 7.03622 21 11.9541Z" fill="#8F8AFF"/>
</svg>
