<svg width="50" height="50" viewBox="0 0 50 50" fill="none" xmlns="http://www.w3.org/2000/svg">
<path d="M4.79389 21.1793C4.01149 20.9733 3.54534 20.1722 3.75095 19.3898C4.73514 15.6476 6.71078 12.2155 9.46308 9.46318C10.0353 8.89098 10.9623 8.89098 11.5345 9.46318C12.1067 10.0354 12.1067 10.9624 11.5345 11.5346C9.14989 13.9207 7.43748 16.895 6.58336 20.1363C6.3789 20.9134 5.58391 21.3856 4.79389 21.1793Z" fill="#E5E4FF"/>
<path d="M11.1725 19.9329C10.4446 19.5812 10.1413 18.7042 10.4946 17.976C11.28 16.3566 12.3256 14.8876 13.6047 13.6059C14.1769 13.0337 15.105 13.0352 15.6772 13.6043C16.2494 14.1765 16.2494 15.1035 15.6788 15.6772C14.6305 16.7259 13.7733 17.9302 13.1298 19.255C12.7758 19.9848 11.8973 20.2854 11.1725 19.9329Z" fill="#E5E4FF"/>
<path d="M38.4656 11.5345C36.0795 9.14993 33.1052 7.43751 29.8638 6.5834C29.0814 6.37779 28.6149 5.57632 28.8209 4.79393C29.0284 4.01153 29.8337 3.55224 30.6104 3.75099C34.3526 4.73518 37.7847 6.71081 40.537 9.46312C41.1092 10.0353 41.1092 10.9623 40.537 11.5345C39.9648 12.1067 39.0378 12.1067 38.4656 11.5345Z" fill="#BAB6FF"/>
<path d="M38.4655 40.5369C37.8933 39.9647 37.8933 39.0377 38.4655 38.4655C40.8501 36.0794 42.5625 33.1051 43.4166 29.8637C43.6238 29.0813 44.4306 28.6205 45.2061 28.8208C45.9885 29.0268 46.4546 29.8279 46.249 30.6103C45.2648 34.3525 43.2892 37.7846 40.5369 40.5369C39.9647 41.1091 39.0377 41.1091 38.4655 40.5369Z" fill="#BAB6FF"/>
<path d="M34.323 15.6788C33.2743 14.6301 32.07 13.7734 30.7452 13.1294C30.017 12.7777 29.7137 11.9007 30.0673 11.1725C30.4206 10.4462 31.2945 10.1383 32.0243 10.4946C33.6436 11.2801 35.1127 12.3257 36.3944 13.6047C36.9666 14.1769 36.9666 15.1039 36.3959 15.6773C35.8241 16.2491 34.8967 16.2495 34.323 15.6788Z" fill="#BAB6FF"/>
<path d="M34.3229 36.3953C33.7507 35.8231 33.7507 34.8961 34.3214 34.3228C35.37 33.2741 36.2268 32.0694 36.8707 30.745C37.224 30.0167 38.0979 29.715 38.8277 30.0667C39.5555 30.4188 39.8588 31.2958 39.5056 32.0236C38.7201 33.643 37.6745 35.1124 36.3954 36.3941C35.824 36.9656 34.8966 36.9663 34.3229 36.3953Z" fill="#BAB6FF"/>
<path d="M30.7714 17.5293L29.16 19.9612H20.8398L19.2285 17.5293C16.3281 13.1641 16.3281 7.53899 19.2285 3.17383C20.5174 1.24016 22.6857 0 25.0001 0C27.3145 0 29.4827 1.24016 30.7714 3.17383C33.672 7.53899 33.672 13.1641 30.7714 17.5293Z" fill="#FF8D3B"/>
<path d="M29.1599 19.9612H25V0C27.3144 0 29.4827 1.24016 30.7713 3.17383C33.672 7.53899 33.672 13.1641 30.7713 17.5293L29.1599 19.9612Z" fill="#FF6857"/>
<path d="M46.8125 19.2265C42.4607 16.3254 36.8359 16.3254 32.4845 19.2265L30.0469 20.8516V29.1485L32.4845 30.7736C34.6604 32.2243 37.1552 32.9495 39.6485 32.9495C42.1418 32.9495 44.6366 32.2243 46.8125 30.7736C48.748 29.4831 50 27.3259 50 25C50 22.6742 48.748 20.517 46.8125 19.2265Z" fill="#FF6857"/>
<path d="M17.5156 19.2265C13.1638 16.3254 7.53899 16.3254 3.18756 19.2265C1.25198 20.517 0 22.6742 0 25C0 27.3259 1.25198 29.4831 3.18756 30.7736C5.36346 32.2243 7.85828 32.9495 10.3516 32.9495C12.8448 32.9495 15.3397 32.2239 17.5156 30.7736L19.9532 29.1485V20.8516L17.5156 19.2265Z" fill="#FF8D3B"/>
<path d="M19.3897 46.249C15.6475 45.2648 12.2154 43.2891 9.46309 40.5368C8.89088 39.9646 8.89088 39.0377 9.46309 38.4655C10.0353 37.8932 10.9623 37.8932 11.5345 38.4655C13.9206 40.85 16.8949 42.5624 20.1362 43.4166C20.9186 43.6222 21.3852 44.4236 21.1792 45.206C20.9743 45.9827 20.1797 46.4553 19.3897 46.249Z" fill="#E5E4FF"/>
<path d="M17.976 39.5054C16.3566 38.72 14.8876 37.6743 13.6059 36.3953C13.0337 35.8231 13.0337 34.8961 13.6043 34.3227C14.1765 33.7505 15.105 33.7517 15.6772 34.3212C16.7259 35.3695 17.9302 36.2267 19.255 36.8702C19.9833 37.2223 20.2865 38.0993 19.9329 38.8271C19.5793 39.5573 18.7008 39.8579 17.976 39.5054Z" fill="#E5E4FF"/>
<path d="M30.7713 46.8262C29.4826 48.7599 27.3144 50 25 50C22.6856 50 20.5173 48.7599 19.2287 46.8262C16.328 42.461 16.328 36.8359 19.2287 32.4707L20.8401 30.0388H29.1603L30.7716 32.4707C33.6719 36.8359 33.6719 42.461 30.7713 46.8262Z" fill="#FF8D3B"/>
<path d="M30.7713 32.4707C33.672 36.8359 33.672 42.461 30.7713 46.8262C29.4827 48.7599 27.3144 50 25 50V30.0388H29.1599L30.7713 32.4707Z" fill="#FF6857"/>
<path d="M26.4648 25C26.4648 25.8091 25.8091 26.4648 25 26.4648C24.1909 26.4648 23.5352 25.8091 23.5352 25C23.5352 24.1909 24.1909 23.5352 25 23.5352C25.8091 23.5352 26.4648 24.1909 26.4648 25Z" fill="black"/>
<path d="M25 17.6758C20.9572 17.6758 17.6758 20.9572 17.6758 25C17.6758 29.0428 20.9572 32.3242 25 32.3242C29.0428 32.3242 32.3242 29.0428 32.3242 25C32.3242 20.9572 29.0428 17.6758 25 17.6758Z" fill="#FF6857"/>
<path d="M32.3242 25C32.3242 29.0428 29.0428 32.3242 25 32.3242V17.6758C29.0428 17.6758 32.3242 20.9572 32.3242 25Z" fill="#E71700"/>
<path d="M29.3945 25C29.3945 27.4319 27.4319 29.3945 25 29.3945C22.5681 29.3945 20.6055 27.4319 20.6055 25C20.6055 22.5681 22.5681 20.6055 25 20.6055C27.4319 20.6055 29.3945 22.5681 29.3945 25Z" fill="#E5E4FF"/>
<path d="M29.3945 25C29.3945 27.4319 27.4319 29.3945 25 29.3945V20.6055C27.4319 20.6055 29.3945 22.5681 29.3945 25Z" fill="#FF8D3B"/>
<path d="M41.6993 35.0655C40.2311 35.0655 39.2541 35.5771 38.8246 35.7067L30.9818 27.8419C31.0561 27.5899 31.6011 26.5498 31.6011 24.9672C31.6011 21.3185 28.6159 18.3333 24.9672 18.3333C23.9942 18.3333 23.0433 18.5544 22.1147 18.9967L26.5373 23.3972V26.5373H23.3971L18.9966 22.1147C18.5544 23.0434 18.3333 23.9943 18.3333 24.9672C18.3333 28.616 21.3184 31.6012 24.9672 31.6012C26.5135 31.6012 27.4736 31.0905 27.8419 30.9819L35.7066 38.8247C35.583 39.234 35.0654 40.2159 35.0654 41.6994C35.0654 45.3482 38.0506 48.3333 41.6993 48.3333C45.3481 48.3333 48.3332 45.3482 48.3332 41.6994C48.3332 38.0507 45.3481 35.0655 41.6993 35.0655ZM41.6993 45.0164C39.8639 45.0164 38.3824 43.5349 38.3824 41.6994C38.3824 39.864 39.8639 38.3825 41.6993 38.3825C43.5348 38.3825 45.0163 39.864 45.0163 41.6994C45.0163 43.5349 43.5348 45.0164 41.6993 45.0164Z" fill="#353535"/>
<path d="M24.9672 26.5373V31.6011C21.3184 31.6011 18.3333 28.6159 18.3333 24.9672C18.3333 23.9942 18.5544 23.0434 18.9966 22.1147L23.3971 26.5373H24.9672Z" fill="#646464"/>
</svg>
