<svg width="50" height="50" viewBox="0 0 50 50" fill="none" xmlns="http://www.w3.org/2000/svg">
<path fill-rule="evenodd" clip-rule="evenodd" d="M38.9648 10.4871L30.1601 1.49105H11.973L2.97437 10.7173L38.9648 10.4871Z" fill="#EDF3F6"/>
<path fill-rule="evenodd" clip-rule="evenodd" d="M24.9954 10.5764L38.9648 10.4871L30.1601 1.49105H24.9954V10.5764Z" fill="#E1EDF0"/>
<path d="M42.0896 8.84692H39.4273L31.198 0.438767C30.923 0.157853 30.5496 0 30.1602 0H11.973C11.5827 0 11.2085 0.158549 10.9335 0.440557L2.07598 9.52217C0.830762 10.3121 0 11.7172 0 13.3165V18.6915C0 21.156 1.97148 23.161 4.39482 23.161H48.5352C49.3441 23.161 50 22.4934 50 21.67V16.8989C50 12.459 46.4514 8.84692 42.0896 8.84692ZM35.2919 8.84692H21.2401V2.98211H29.5518L35.2919 8.84692ZM12.5829 2.98211H18.3104V8.84692H6.86279L12.5829 2.98211Z" fill="#FF6857"/>
<path d="M42.0895 8.84692H39.4273L31.1979 0.438767C30.9229 0.157853 30.5496 0 30.1601 0H24.9954V2.98211H29.5517L35.2918 8.84692H24.9954V23.161H48.5351C49.3441 23.161 50 22.4934 50 21.67V16.8989C50 12.459 46.4513 8.84692 42.0895 8.84692Z" fill="#E71700"/>
<path d="M38.3019 46.7199C38.0533 46.7199 37.8015 46.6554 37.5708 46.5199L10.9563 30.8791C10.2557 30.4674 10.0156 29.5554 10.4201 28.8423C10.8245 28.1292 11.7204 27.8848 12.4211 28.2966L39.0357 43.9374C39.7363 44.3491 39.9764 45.261 39.5718 45.9741C39.3005 46.4525 38.8081 46.7199 38.3019 46.7199Z" fill="#BAB6FF"/>
<path d="M9.96885 27.8897C6.84131 27.8897 4.29688 25.2997 4.29688 22.1162C4.29688 18.9328 6.84131 16.3429 9.96885 16.3429C13.0964 16.3429 15.6408 18.9328 15.6408 22.1162C15.6407 25.2997 13.0963 27.8897 9.96885 27.8897Z" fill="#646464"/>
<path d="M39.2168 27.8897C36.0894 27.8897 33.5449 25.2997 33.5449 22.1162C33.5449 18.9328 36.0894 16.3429 39.2168 16.3429C42.3443 16.3429 44.8888 18.9328 44.8888 22.1162C44.8888 25.2997 42.3443 27.8897 39.2168 27.8897Z" fill="#353535"/>
<path d="M11.4664 46.9566C10.9601 46.9566 10.4678 46.6892 10.1965 46.2109C9.792 45.4978 10.032 44.5859 10.7326 44.1741L37.3471 28.5334C38.0478 28.1216 38.9436 28.3659 39.3481 29.0791C39.7526 29.7922 39.5126 30.7041 38.8119 31.1159L12.1974 46.7566C11.9668 46.8922 11.7149 46.9566 11.4664 46.9566Z" fill="#E5E4FF"/>
<path d="M46.6758 30.8482H3.31641C2.50742 30.8482 1.85156 30.1806 1.85156 29.3572C1.85156 28.5337 2.50742 27.8661 3.31641 27.8661H46.6758C47.4848 27.8661 48.1406 28.5337 48.1406 29.3572C48.1406 30.1806 47.4848 30.8482 46.6758 30.8482Z" fill="#646464"/>
<path d="M46.6797 50H3.31226C2.50327 50 1.84741 49.3324 1.84741 48.509V45.5268C1.84741 44.7034 2.50327 44.0358 3.31226 44.0358H46.6797C47.4887 44.0358 48.1446 44.7034 48.1446 45.5268V48.509C48.1446 49.3324 47.4887 50 46.6797 50Z" fill="#646464"/>
<path d="M9.96899 25.0983C8.35356 25.0983 7.03931 23.7605 7.03931 22.1162C7.03931 20.4719 8.35356 19.1341 9.96899 19.1341C11.5844 19.1341 12.8987 20.4719 12.8987 22.1162C12.8987 23.7605 11.5844 25.0983 9.96899 25.0983Z" fill="#949494"/>
<path d="M39.2168 25.0983C37.6014 25.0983 36.2871 23.7605 36.2871 22.1162C36.2871 20.4719 37.6014 19.1341 39.2168 19.1341C40.8322 19.1341 42.1465 20.4719 42.1465 22.1162C42.1465 23.7605 40.8322 25.0983 39.2168 25.0983Z" fill="#646464"/>
<path d="M39.5717 28.8423C39.1671 28.1291 38.2714 27.8849 37.5708 28.2966L24.9954 35.6869V39.1303L39.0356 30.8792C39.7362 30.4674 39.9762 29.5554 39.5717 28.8423Z" fill="#8F8AFF"/>
<path d="M39.0356 43.9374L24.9954 35.6863V39.1297L37.5708 46.52C37.8014 46.6556 38.0533 46.72 38.3018 46.72C38.8081 46.72 39.3004 46.4526 39.5717 45.9742C39.9762 45.261 39.7362 44.3491 39.0356 43.9374Z" fill="#BAB6FF"/>
<path d="M46.6756 27.8661H24.9954V30.8482H46.6756C47.4846 30.8482 48.1405 30.1806 48.1405 29.3572C48.1405 28.5337 47.4846 27.8661 46.6756 27.8661Z" fill="#353535"/>
<path d="M46.6796 44.0358H24.9954V50H46.6796C47.4886 50 48.1445 49.3324 48.1445 48.509V45.5268C48.1445 44.7034 47.4886 44.0358 46.6796 44.0358Z" fill="#353535"/>
</svg>
