<svg width="50" height="50" viewBox="0 0 50 50" fill="none" xmlns="http://www.w3.org/2000/svg">
<path d="M39.1197 34.8895C37.4475 34.8895 36.3348 35.4721 35.8457 35.6197L26.9136 26.6626C26.9982 26.3756 27.6189 25.191 27.6189 23.3887C27.6189 19.2332 24.2191 15.8334 20.0636 15.8334C18.9555 15.8334 17.8726 16.0851 16.8149 16.5889L21.8518 21.6006V25.1768H18.2755L13.2638 20.14C12.7601 21.1976 12.5083 22.2806 12.5083 23.3887C12.5083 27.5442 15.9081 30.944 20.0636 30.944C21.8247 30.944 22.9181 30.3624 23.3375 30.2387L32.2947 39.1708C32.1539 39.6369 31.5644 40.7552 31.5644 42.4448C31.5644 46.6003 34.9642 50.0001 39.1197 50.0001C43.2752 50.0001 46.675 46.6003 46.675 42.4448C46.675 38.2893 43.2752 34.8895 39.1197 34.8895ZM39.1197 46.2224C37.0293 46.2224 35.342 44.5351 35.342 42.4448C35.342 40.3544 37.0293 38.6671 39.1197 38.6671C41.2101 38.6671 42.8973 40.3544 42.8973 42.4448C42.8973 44.5351 41.2101 46.2224 39.1197 46.2224Z" fill="#646464"/>
<path fill-rule="evenodd" clip-rule="evenodd" d="M25.5103 32.4051V18.1655C26.8147 19.5248 27.6191 21.3673 27.6191 23.3886C27.6191 24.8851 27.1912 25.9557 26.9976 26.4403C26.958 26.5393 26.9282 26.6139 26.9139 26.6626L35.846 35.6197C35.9429 35.5904 36.0644 35.5441 36.2099 35.4885C36.7983 35.2639 37.7793 34.8894 39.1199 34.8894C43.2754 34.8894 46.6752 38.2892 46.6752 42.4447C46.6752 46.6002 43.2754 50 39.1199 50C34.9644 50 31.5646 46.6002 31.5646 42.4447C31.5646 41.0865 31.9456 40.0975 32.1681 39.5196C32.2224 39.3787 32.2673 39.2622 32.2949 39.1708L25.5103 32.4051ZM35.3423 42.4447C35.3423 44.5351 37.0296 46.2224 39.1199 46.2224C41.2103 46.2224 42.8976 44.5351 42.8976 42.4447C42.8976 40.3543 41.2103 38.6671 39.1199 38.6671C37.0296 38.6671 35.3423 40.3543 35.3423 42.4447Z" fill="#353535"/>
<path fill-rule="evenodd" clip-rule="evenodd" d="M38.9464 19.4917H36.1441C35.6283 19.4917 35.21 19.0762 35.21 18.5637C35.21 18.0513 35.6283 17.6358 36.1441 17.6358H37.9898L37.9862 17.5662C37.9516 17.0688 37.8984 16.5687 37.8283 16.0759C37.8283 16.0652 37.8256 16.0541 37.8229 16.0431C37.8214 16.037 37.82 16.0308 37.819 16.0249C37.776 15.7465 37.7321 15.4802 37.6723 15.212C37.524 14.4739 37.3211 13.7476 37.0654 13.0392L35.3642 13.7385C35.2508 13.7854 35.1293 13.8097 35.0065 13.8099C34.5606 13.8102 34.1768 13.4975 34.0897 13.0632C34.0027 12.6288 34.2368 12.1939 34.6487 12.0246L36.3448 11.3268C36.3315 11.3004 36.3183 11.274 36.3052 11.2477C36.1973 11.0321 36.0916 10.8211 35.9772 10.616C35.35 9.46594 34.5924 8.39899 33.7234 7.43382L32.4272 8.72207C32.2518 8.89633 32.0139 8.99415 31.7659 8.99395C31.3877 8.99425 31.0467 8.76802 30.902 8.42092C30.7574 8.07382 30.8377 7.67434 31.1054 7.40904L32.4024 6.12122C31.4328 5.25918 30.361 4.50747 29.2058 3.88471C28.962 3.75016 28.7294 3.62953 28.4894 3.51911L28.4833 3.51624L27.7811 5.20146C27.6367 5.54849 27.296 5.77486 26.918 5.77492C26.7953 5.77466 26.6738 5.75071 26.5603 5.7044C26.3313 5.61019 26.1494 5.42946 26.0546 5.202C25.9599 4.97454 25.96 4.71898 26.0549 4.49159L26.7591 2.80308C26.051 2.55079 25.3253 2.35032 24.5876 2.20329C24.2971 2.13834 24.0271 2.09565 23.7469 2.05297L23.6881 2.04183C23.1958 1.97317 22.6923 1.92027 22.1823 1.88501C22.1656 1.88415 22.149 1.88331 22.1323 1.8825V3.71676C22.1323 4.22925 21.7749 4.58343 21.259 4.58343C20.7431 4.58343 20.2641 4.22925 20.2641 3.71676V1.88135L20.1905 1.88501C19.6935 1.91935 19.191 1.97224 18.6959 2.04091C18.6772 2.04555 18.6576 2.04926 18.6389 2.05204C18.3587 2.09473 18.0925 2.13741 17.8234 2.19773C17.0803 2.34461 16.3492 2.5458 15.636 2.79962L16.341 4.49159C16.436 4.71898 16.4361 4.97454 16.3413 5.202C16.2465 5.42946 16.0646 5.61019 15.8357 5.7044C15.7225 5.75059 15.6013 5.77454 15.4789 5.77492C15.1009 5.77486 14.7601 5.54849 14.6158 5.20146L13.9114 3.51118C13.6466 3.63721 13.4273 3.74845 13.1959 3.87636C12.0372 4.49981 10.9623 5.2529 9.98995 6.1169L11.2913 7.40904C11.559 7.67434 11.6393 8.07382 11.4947 8.42092C11.3501 8.76802 11.0091 8.99425 10.6309 8.99395C10.3828 8.99415 10.1449 8.89633 9.96954 8.72207L8.66863 7.42915C7.80125 8.39193 7.0448 9.45606 6.41799 10.603C6.28347 10.8452 6.16204 11.0762 6.04995 11.3156L6.04576 11.3244L7.74716 12.0246C8.15908 12.1939 8.39313 12.6288 8.30609 13.0632C8.2191 13.4973 7.83517 13.8099 7.38966 13.8099C7.26713 13.8099 7.14579 13.7859 7.03256 13.7394L5.32866 13.0384C5.07523 13.7408 4.8739 14.4608 4.72632 15.1925C4.66186 15.4783 4.61796 15.7493 4.57499 16.023C4.57499 16.0367 4.57164 16.0503 4.56839 16.0635L4.56565 16.075C4.4959 16.5699 4.44328 17.0707 4.40778 17.5773L4.4046 17.6358H6.25277C6.76866 17.6358 7.18687 18.0513 7.18687 18.5637C7.18687 19.0762 6.76866 19.4917 6.25277 19.4917H3.45044C3.36896 19.4917 3.28992 19.4813 3.21458 19.4618C2.80918 19.3605 2.50903 18.996 2.50903 18.5619C2.50903 18.1907 2.51931 17.8195 2.53893 17.4623C2.57816 16.8879 2.63701 16.3376 2.71454 15.792C2.71454 15.7691 2.71959 15.7468 2.72451 15.7252C2.72557 15.7205 2.72662 15.7159 2.72761 15.7113C2.77619 15.4023 2.82756 15.1016 2.89482 14.8019C3.067 13.9434 3.30719 13.0997 3.61315 12.2788C3.64619 12.1796 3.68501 12.0767 3.72655 11.972C3.77022 11.8569 3.81668 11.7429 3.86589 11.6301C3.87792 11.6008 3.8899 11.5714 3.90179 11.542C3.91723 11.4958 3.93564 11.4505 3.9569 11.4066C4.05685 11.144 4.20724 10.8266 4.3567 10.5185C4.48094 10.2513 4.62292 9.98125 4.77331 9.71122C5.61066 8.17999 6.65594 6.78158 7.87311 5.55178C7.9351 5.46422 8.01193 5.38793 8.10007 5.32636C9.34018 4.11564 10.7505 3.07625 12.2947 2.24412C12.5544 2.10029 12.8272 1.96018 13.1084 1.83026C13.3477 1.71549 13.6021 1.59713 13.8638 1.48815C13.977 1.41004 14.1065 1.35772 14.2425 1.3351C14.385 1.27426 14.5291 1.21749 14.6748 1.16485C14.7488 1.13745 14.8235 1.11108 14.899 1.08606C15.7226 0.786944 16.5679 0.550869 17.4277 0.379901C17.7079 0.315873 18.0096 0.26762 18.3216 0.218439C18.3484 0.212871 18.3764 0.208232 18.4057 0.204521C18.9506 0.127811 19.5054 0.0696609 20.0703 0.0300689C20.8117 -0.0098297 21.5548 -0.0098297 22.2962 0.0300689C22.8754 0.0699702 23.4303 0.128429 23.9776 0.205448C24.0065 0.208886 24.0352 0.213843 24.0636 0.220296C24.3746 0.268548 24.6754 0.317729 24.9771 0.385468C25.8398 0.558107 26.688 0.796044 27.5142 1.09719C27.7194 1.16462 27.9372 1.25427 28.158 1.34511C28.1924 1.35929 28.2269 1.37349 28.2615 1.38764C28.2839 1.39425 28.3061 1.40199 28.3278 1.41084C28.6575 1.53982 28.9817 1.68922 29.289 1.83676C29.558 1.9611 29.8308 2.10122 30.1026 2.25155C33.2819 3.96778 35.8922 6.56277 37.6175 9.72236C37.7623 9.98218 37.9043 10.2522 38.0341 10.5315C38.1779 10.8275 38.3283 11.1449 38.4572 11.4734C38.4647 11.4919 38.4722 11.5133 38.4797 11.5355C38.5927 11.8028 38.6964 12.0515 38.7832 12.3085C39.0858 13.1262 39.3238 13.966 39.495 14.8204C39.5586 15.0988 39.609 15.4041 39.6576 15.714C39.6632 15.7391 39.6669 15.766 39.6707 15.7929C39.7479 16.3348 39.8064 16.886 39.8463 17.4465C39.8618 17.6986 39.8721 17.95 39.8772 18.201C39.8796 18.322 39.8808 18.443 39.8808 18.5637C39.8808 19.0762 39.4623 19.4917 38.9464 19.4917Z" fill="#E71700"/>
<path d="M31.9033 13.191L27.9053 18.9999L27.896 18.9906C27.1648 17.5312 25.9743 16.3485 24.5052 15.6222L24.4958 15.6129L30.3434 11.6413C30.7888 11.3343 31.3916 11.388 31.775 11.7688C32.1584 12.1497 32.2124 12.7485 31.9033 13.191Z" fill="#E71700"/>
<path d="M21.259 2.00975e-05V4.58334C20.7431 4.58334 20.2641 4.22916 20.2641 3.71668V1.88126L20.1905 1.88492C19.6935 1.91926 19.191 1.97215 18.6959 2.04082C18.6772 2.04546 18.6576 2.04917 18.6389 2.05195C18.3587 2.09464 18.0925 2.13732 17.8234 2.19764C17.0803 2.34452 16.3492 2.54571 15.636 2.79953L16.341 4.4915C16.436 4.71889 16.4361 4.97445 16.3413 5.20191C16.2465 5.42937 16.0646 5.6101 15.8357 5.70431C15.7225 5.75051 15.6013 5.77446 15.4789 5.77484C15.1009 5.77478 14.7601 5.5484 14.6157 5.20137L13.9114 3.51109C13.6466 3.63712 13.4273 3.74836 13.1959 3.87627C12.0372 4.49972 10.9623 5.25281 9.98995 6.11681L11.2913 7.40895C11.559 7.67425 11.6393 8.07373 11.4947 8.42083C11.3501 8.76793 11.0091 8.99416 10.6309 8.99387C10.3828 8.99406 10.1449 8.89624 9.96954 8.72198L8.66863 7.42906C7.80125 8.39184 7.0448 9.45597 6.41799 10.6029C6.28347 10.8451 6.16204 11.0761 6.04995 11.3155L6.04576 11.3243L7.74716 12.0245C8.15908 12.1938 8.39313 12.6287 8.30609 13.0631C8.2191 13.4972 7.83517 13.8098 7.38966 13.8098C7.26713 13.8098 7.14579 13.7859 7.03256 13.7393L5.32866 13.0383C5.07523 13.7407 4.8739 14.4607 4.72632 15.1925C4.66186 15.4783 4.61796 15.7492 4.57499 16.023C4.57499 16.0366 4.57164 16.0502 4.56839 16.0634L4.56565 16.0749C4.4959 16.5698 4.44328 17.0706 4.40778 17.5772L4.4046 17.6357H6.25277C6.76866 17.6357 7.18687 18.0512 7.18687 18.5636C7.18687 19.0761 6.76866 19.4916 6.25277 19.4916H3.45044C3.36896 19.4916 3.28992 19.4812 3.21458 19.4617C2.80918 19.3605 2.50903 18.9959 2.50903 18.5618C2.50903 18.1906 2.51931 17.8194 2.53893 17.4622C2.57816 16.8878 2.63701 16.3375 2.71454 15.7919C2.71454 15.769 2.71959 15.7467 2.72451 15.7251L2.72761 15.7112C2.77619 15.4022 2.82756 15.1015 2.89482 14.8018C3.067 13.9433 3.30719 13.0996 3.61315 12.2787C3.64619 12.1795 3.68501 12.0767 3.72655 11.9719C3.77022 11.8568 3.81668 11.7429 3.86589 11.63L3.90179 11.542C3.91723 11.4957 3.93564 11.4504 3.9569 11.4065C4.05685 11.1439 4.20724 10.8265 4.3567 10.5184C4.48094 10.2512 4.62292 9.98116 4.77331 9.71113C5.61066 8.1799 6.65594 6.78149 7.87311 5.55169C7.9351 5.46414 8.01193 5.38784 8.10007 5.32627C9.34018 4.11555 10.7505 3.07616 12.2947 2.24403C12.5544 2.1002 12.8272 1.96009 13.1084 1.83018C13.3477 1.7154 13.6021 1.59704 13.8638 1.48806C13.977 1.40995 14.1065 1.35763 14.2425 1.33501C14.385 1.27417 14.5291 1.2174 14.6748 1.16476C14.7488 1.13736 14.8235 1.11099 14.899 1.08597C15.7226 0.786855 16.5679 0.55078 17.4277 0.379811C17.7079 0.315783 18.0096 0.26753 18.3216 0.218349C18.3484 0.212782 18.3764 0.208143 18.4057 0.204431C18.9506 0.127722 19.5054 0.0695712 20.0703 0.0299792C20.8117 -0.00991939 20.3249 -6.68736e-06 21.259 2.00975e-05Z" fill="#FF6857"/>
<path d="M3.16358 37.25L3.14994 37.2361L6.53633 33.7963L7.49996 34.7778L5.58178 36.7315C6.43632 37.0648 7.04544 37.9028 7.04544 38.8889C7.04544 40.1667 6.02727 41.2037 4.77272 41.2037C4.45001 41.2037 4.14089 41.1343 3.86364 41.0093V47.6852C3.8636 48.1945 4.27269 48.6111 4.77268 48.6111C5.27266 48.6111 5.68176 48.1945 5.68176 47.6852V43.5185C5.68176 42.4954 6.49538 41.6667 7.49996 41.6667H8.40904V35.1852C8.40908 34.162 9.2227 33.3333 10.2272 33.3333H15.6818C16.6864 33.3333 17.5 34.162 17.5 35.1852V50H8.40908V43.0556H7.04544V47.6852C7.04544 48.963 6.02727 50 4.77272 50C3.51817 50 2.5 48.963 2.5 47.6852V38.8889C2.49996 38.25 2.75449 37.6713 3.16358 37.25ZM10.2272 39.8148H15.6818V35.1852H10.2272V39.8148ZM4.77268 39.8148C5.27266 39.8148 5.68176 39.3981 5.68176 38.8889C5.68176 38.3797 5.27266 37.963 4.77268 37.963C4.27269 37.963 3.8636 38.3797 3.8636 38.8889C3.8636 39.3981 4.27269 39.8148 4.77268 39.8148Z" fill="#FF8D3B"/>
</svg>
