<svg width="50" height="50" viewBox="0 0 50 50" fill="none" xmlns="http://www.w3.org/2000/svg">
<path d="M34.879 11.1309C32.979 8.52108 30.7752 5.37353 28.1152 1.53529C27.4314 0.460788 26.2152 0 24.999 0C23.7838 0 22.5676 0.460788 21.8838 1.53529C19.2228 5.37353 17.02 8.52108 15.12 11.1309C8.65901 20.1897 6 24.2069 6 30.8088C6 41.402 14.5114 50 25 50C35.4876 50 44 41.402 44 30.8088C43.999 24.2069 41.339 20.1897 34.879 11.1309Z" fill="#FF8D3B"/>
<path d="M28.1161 1.53529C30.7759 5.37353 32.9796 8.52108 34.8795 11.1309C41.3391 20.1897 43.999 24.2069 44 30.8088C44 41.402 35.4881 50 25.0011 50L25.0009 45.6173C25 27.0102 25 25.623 25 0C26.2162 0 27.4323 0.460788 28.1161 1.53529Z" fill="#FF6857"/>
</svg>
