<svg width="50" height="50" viewBox="0 0 50 50" fill="none" xmlns="http://www.w3.org/2000/svg">
<path d="M11.7151 34.2809L15.771 38.2311L21.4294 32.5733L17.4261 28.5704L11.7151 34.2809Z" fill="#353535"/>
<path d="M1.27472 48.7255C2.97423 50.4248 5.72941 50.4248 7.42893 48.7255L16.8292 39.3259C17.6214 38.5338 17.6214 37.2495 16.8292 36.4573L13.5431 33.1714C12.751 32.3795 11.4668 32.3795 10.6747 33.1714L1.27462 42.5709C-0.424891 44.2704 -0.42489 47.026 1.27472 48.7255Z" fill="#FF6857"/>
<path d="M31.3262 37.3453C41.6395 37.3453 50 28.9852 50 18.6726C50 8.35998 41.6395 -6.10352e-05 31.3262 -6.10352e-05C21.0129 -6.10352e-05 12.6523 8.35998 12.6523 18.6726C12.6523 28.9852 21.0129 37.3453 31.3262 37.3453Z" fill="#646464"/>
<path d="M31.3259 37.3453C41.6392 37.3453 49.9998 28.9853 49.9998 18.6726C49.9998 8.35998 41.6392 -6.10352e-05 31.3259 -6.10352e-05L31.3259 18.6726L31.3259 37.3453Z" fill="#949494"/>
<path d="M31.3262 32.4262C38.9225 32.4262 45.0806 26.2685 45.0806 18.6727C45.0806 11.0768 38.9225 4.91913 31.3262 4.91913C23.7298 4.91913 17.5718 11.0768 17.5718 18.6727C17.5718 26.2685 23.7298 32.4262 31.3262 32.4262Z" fill="#BAB6FF"/>
<path d="M31.3259 32.4262C38.9223 32.4262 45.0803 26.2685 45.0803 18.6727C45.0803 11.0768 38.9223 4.91913 31.3259 4.91913L31.3259 18.6727L31.3259 32.4262Z" fill="#E5E4FF"/>
</svg>
