<svg width="50" height="50" viewBox="0 0 50 50" fill="none" xmlns="http://www.w3.org/2000/svg">
<g clip-path="url(#clip0)">
<path d="M26.4667 2.93387C13.5189 2.93387 2.93384 13.4209 2.93384 26.3691C2.93384 39.3173 13.5189 50 26.4667 50C39.4149 50 50 39.3173 50 26.3691C50 13.4209 39.4149 2.93387 26.4667 2.93387ZM26.4667 35.1574C21.6041 35.1574 17.6784 31.2321 17.6784 26.3691C17.6784 21.5061 21.6041 17.5808 26.4667 17.5808C31.3297 17.5808 35.255 21.5061 35.255 26.3691C35.255 31.2321 31.3297 35.1574 26.4667 35.1574Z" fill="#E5E4FF"/>
<path d="M50 26.3691C50 39.3173 39.415 50 26.4668 50V35.1574C31.3298 35.1574 35.2551 31.2321 35.2551 26.3691C35.2551 21.5061 31.3298 17.5808 26.4668 17.5808V2.93387C39.415 2.93387 50 13.4209 50 26.3691Z" fill="#BAB6FF"/>
<path d="M26.4667 8.79251C16.7705 8.79251 8.79248 16.6729 8.79248 26.3691C8.79248 36.0657 16.7705 44.0434 26.4667 44.0434C36.1633 44.0434 44.0433 36.0657 44.0433 26.3691C44.0433 16.6729 36.1633 8.79251 26.4667 8.79251ZM26.4667 32.2281C23.2445 32.2281 20.6081 29.5914 20.6081 26.3691C20.6081 23.1468 23.2445 20.5105 26.4667 20.5105C29.689 20.5105 32.3257 23.1468 32.3257 26.3691C32.3257 29.5914 29.689 32.2281 26.4667 32.2281Z" fill="#BAB6FF"/>
<path d="M44.0434 26.3691C44.0434 36.0657 36.1634 44.0434 26.4668 44.0434V32.2281C29.6891 32.2281 32.3258 29.5914 32.3258 26.3691C32.3258 23.1468 29.6891 20.5105 26.4668 20.5105V8.79251C36.1634 8.79251 44.0434 16.6729 44.0434 26.3691Z" fill="#8F8AFF"/>
<path d="M43.3661 36.7322C41.8979 36.7322 40.9208 37.2437 40.4914 37.3734L32.6486 29.5086C32.7229 29.2566 33.2678 28.2165 33.2678 26.6339C33.2678 22.9852 30.2826 20 26.6339 20C25.6609 20 24.7101 20.2211 23.7814 20.6634L28.204 25.0639V28.204H25.0639L20.6634 23.7814C20.2211 24.7101 20 25.6609 20 26.6339C20 30.2826 22.9852 33.2678 26.6339 33.2678C28.1803 33.2678 29.1403 32.7571 29.5086 32.6486L37.3734 40.4914C37.2498 40.9006 36.7322 41.8826 36.7322 43.3661C36.7322 47.0148 39.7174 50 43.3661 50C47.0148 50 50 47.0148 50 43.3661C50 39.7174 47.0148 36.7322 43.3661 36.7322ZM43.3661 46.683C41.5306 46.683 40.0491 45.2015 40.0491 43.3661C40.0491 41.5306 41.5306 40.0491 43.3661 40.0491C45.2015 40.0491 46.683 41.5306 46.683 43.3661C46.683 45.2015 45.2015 46.683 43.3661 46.683Z" fill="#353535"/>
<path d="M26.6339 28.204V33.2678C22.9852 33.2678 20 30.2826 20 26.6339C20 25.6609 20.2211 24.7101 20.6634 23.7814L25.0639 28.204H26.6339Z" fill="#646464"/>
<path d="M7.74205 26.37H1.46992C0.660442 26.37 0.00507737 25.715 0.00507737 24.9055C0.00507737 20.8143 1.00224 16.8123 2.89891 13.2608L1.28415 11.6456C-0.426746 9.93626 -0.426746 7.15268 1.28415 5.44331L5.44331 1.28415C7.1542 -0.426746 9.93473 -0.426746 11.6456 1.28415L13.2608 2.89891C16.8123 1.00224 20.9119 0.00507737 25.0032 0.00507737C25.8126 0.00507737 26.4676 0.660442 26.4676 1.46992V7.7348C26.4676 9.58722 25.2946 11.2508 23.5498 11.873L21.5471 12.5871C17.3761 14.0744 14.0428 17.3215 12.5711 21.4952L11.886 23.438C11.2664 25.1916 9.60171 26.37 7.74205 26.37Z" fill="#FF6857"/>
</g>
<defs>
<clipPath id="clip0">
<rect width="50" height="50" fill="white"/>
</clipPath>
</defs>
</svg>
