<svg width="50" height="50" viewBox="0 0 50 50" fill="none" xmlns="http://www.w3.org/2000/svg">
<path d="M19.1406 24.9023V32.2266L13.2812 35.1562L7.42188 32.2266V24.9023C7.42188 24.0818 8.06618 23.4375 8.88672 23.4375H17.6758C18.4963 23.4375 19.1406 24.0818 19.1406 24.9023Z" fill="#BAB6FF"/>
<path d="M19.1406 24.9023V32.2266L13.2812 35.1562V23.4375H17.6758C18.4963 23.4375 19.1406 24.0818 19.1406 24.9023Z" fill="#8F8AFF"/>
<path d="M38.1836 4.39453V13.1836C38.1836 14.0038 37.5393 14.6484 36.7188 14.6484C35.8982 14.6484 35.2539 14.0038 35.2539 13.1836V4.39453C35.2539 3.57399 34.6096 2.92969 33.7891 2.92969H16.2109C15.3904 2.92969 14.7461 3.57399 14.7461 4.39453V7.32422C14.7461 8.14438 14.1018 8.78906 13.2812 8.78906C12.4607 8.78906 11.8164 8.14438 11.8164 7.32422V4.39453C11.8164 1.96266 13.7791 0 16.2109 0H33.7891C34.9316 0 35.957 0.439453 36.7188 1.1425C37.627 1.93367 38.1836 3.10555 38.1836 4.39453Z" fill="#646464"/>
<path d="M36.7188 14.6484V1.1425C37.627 1.93367 38.1836 3.10555 38.1836 4.39453V13.1836C38.1836 14.0038 37.5393 14.6484 36.7188 14.6484Z" fill="#353535"/>
<path d="M19.1406 5.85938H7.42188C4.99001 5.85938 3.02734 7.82204 3.02734 10.2539V24.9023C3.02734 25.7225 3.67165 26.3672 4.49219 26.3672H22.0703C22.8909 26.3672 23.5352 25.7225 23.5352 24.9023V10.2539C23.5352 7.82204 21.5725 5.85938 19.1406 5.85938ZM17.6758 19.043C17.6758 19.8631 17.0315 20.5078 16.2109 20.5078H10.3516C9.53102 20.5078 8.88672 19.8631 8.88672 19.043V13.1836C8.88672 12.3631 9.53102 11.7188 10.3516 11.7188H16.2109C17.0315 11.7188 17.6758 12.3631 17.6758 13.1836V19.043Z" fill="#949494"/>
<path d="M23.5352 10.2539V24.9023C23.5352 25.7225 22.8909 26.3672 22.0703 26.3672H13.2812V20.5078H16.2109C17.0315 20.5078 17.6758 19.8631 17.6758 19.043V13.1836C17.6758 12.3631 17.0315 11.7188 16.2109 11.7188H13.2812V5.85938H19.1406C21.5725 5.85938 23.5352 7.82204 23.5352 10.2539Z" fill="#646464"/>
<path d="M19.1406 32.2266V42.5781C19.1406 42.9005 19.0235 43.2911 18.8477 43.5547L14.4531 49.4141C14.1895 49.7948 13.7501 50 13.2812 50C12.8124 50 12.373 49.7948 12.1094 49.4141L7.71484 43.5547C7.53899 43.2911 7.42188 42.9005 7.42188 42.5781V32.2266H19.1406Z" fill="#E5E4FF"/>
<path d="M13.2812 32.2266H19.1406V42.5781C19.1406 42.9005 19.0235 43.2911 18.8477 43.5547L14.4531 49.4141C14.1895 49.7948 13.7501 50 13.2812 50V32.2266Z" fill="#BAB6FF"/>
<path d="M46.122 27.6997L39.463 37.6997C38.798 38.6328 37.7324 39.1667 36.6667 39.1667C36.0008 39.1667 35.4017 38.9661 34.8017 38.6328C33.2705 37.5668 32.8708 35.5 33.8696 33.9661L36.6667 29.8333L37.1324 29.1667H30.0078C28.8095 29.1667 27.6771 28.5 27.078 27.4332C26.478 26.3003 26.5447 25.033 27.2115 23.9661L33.8705 13.9661C34.5355 13.033 35.6011 12.5 36.6667 12.5C37.3326 12.5 37.9318 12.6328 38.5318 13.033C40.063 14.0998 40.4627 16.1667 39.4639 17.6997L36.6667 21.8333L36.2003 22.5H43.3257C44.524 22.5 45.6564 23.1667 46.2555 24.2335C46.8555 25.3663 46.7887 26.6337 46.122 27.6997Z" fill="#FF8D3B"/>
<path d="M39.5834 17.5L36.6667 21.8367V12.5C37.3304 12.5 37.9275 12.6304 38.5254 13.0235C40.0514 14.0713 40.5797 15.9944 39.5834 17.5Z" fill="#FF6857"/>
<path d="M46.122 27.6997L39.463 37.6997C38.798 38.6328 37.7324 39.1667 36.6667 39.1667V29.8333L37.1332 29.1667H36.6667V22.5H43.3257C44.524 22.5 45.6564 23.1667 46.2555 24.2335C46.8555 25.3663 46.7887 26.6337 46.122 27.6997Z" fill="#FF6857"/>
</svg>
