<svg width="50" height="50" viewBox="0 0 50 50" fill="none" xmlns="http://www.w3.org/2000/svg">
<g clip-path="url(#clip0)">
<path d="M45.6046 37.1924H39.7372C37.3142 37.1924 35.343 35.2212 35.343 32.7983V22.5453C35.343 20.1225 37.3142 18.1512 39.7372 18.1512H45.6046C48.0275 18.1512 49.9988 20.1225 49.9988 22.5453V32.7983C49.9987 35.2212 48.0275 37.1924 45.6046 37.1924Z" fill="#808080"/>
<path fill-rule="evenodd" clip-rule="evenodd" d="M3.42212 16.937C10.6126 16.937 17.8075 16.937 24.998 16.937C32.1884 16.937 39.3875 16.937 46.5824 16.937C45.2228 14.3593 43.8647 11.7828 42.508 9.20242C41.7083 7.68126 40.9075 6.15718 40.1058 4.6328C39.0526 2.63024 37.1458 1.46472 34.9227 1.46472C31.6118 1.46472 28.3027 1.46472 24.9936 1.46472C21.6889 1.46472 18.3817 1.46472 15.0758 1.46472C12.854 1.46472 10.9483 2.62868 9.8945 4.62938C9.09174 6.15337 8.28947 7.67755 7.48778 9.20242C6.13399 11.7774 4.77737 14.3593 3.42212 16.937Z" fill="#E5E4FF"/>
<path fill-rule="evenodd" clip-rule="evenodd" d="M24.9999 16.937C32.1897 16.937 39.388 16.937 46.5821 16.937C45.2226 14.3593 43.8644 11.7828 42.5078 9.20242C41.7081 7.68126 40.9072 6.15718 40.1056 4.6328C39.0523 2.63024 37.1456 1.46472 34.9224 1.46472C31.6137 1.46472 28.3068 1.46472 24.9998 1.46472V16.937H24.9999Z" fill="#BAB6FF"/>
<path d="M46.5825 18.4017H3.4222C2.90925 18.4017 2.43361 18.1334 2.1685 17.6943C1.90329 17.2552 1.88708 16.7094 2.12573 16.2554C2.12573 16.2554 7.79574 5.4711 8.5987 3.94672C9.90044 1.47546 12.3218 0 15.076 0H34.9228C37.679 0 40.1012 1.47702 41.4024 3.95092C41.4024 3.95092 46.5188 13.6764 47.8781 16.2536C48.1175 16.7076 48.1019 17.2539 47.8368 17.6934C47.5716 18.133 47.0957 18.4017 46.5825 18.4017ZM5.84679 15.4723H44.1542C43.1725 13.6102 38.8095 5.31457 38.8095 5.31457C38.0123 3.79879 36.5956 2.92943 34.9227 2.92943H15.0759C13.4042 2.92943 11.988 3.79781 11.1905 5.31194C10.3879 6.83563 5.84679 15.4723 5.84679 15.4723Z" fill="#FF6857"/>
<path d="M47.878 16.2537C46.5187 13.6766 41.4023 3.95105 41.4023 3.95105C40.1011 1.47714 37.6789 0.00012207 34.9228 0.00012207H25V2.92955H34.9227C36.5956 2.92955 38.0122 3.79891 38.8094 5.31469C38.8094 5.31469 43.1724 13.6104 44.1541 15.4724H25V18.4018H46.5823C47.0955 18.4018 47.5715 18.1331 47.8366 17.6936C48.1017 17.2539 48.1174 16.7077 47.878 16.2537Z" fill="#E71700"/>
<path d="M10.2616 37.1924H4.39414C1.97121 37.1924 0 35.2212 0 32.7983V22.5453C0 20.1225 1.97121 18.1512 4.39414 18.1512H10.2616C12.6845 18.1512 14.6557 20.1225 14.6557 22.5453V32.7983C14.6557 35.2212 12.6845 37.1924 10.2616 37.1924Z" fill="#353535"/>
<path d="M42.6729 30.8454H7.32446C5.3716 30.8454 3.53309 30.0818 2.14747 28.6951C0.761947 27.3085 -0.00038867 25.4694 0.000978398 23.5166L0.00439607 18.7366C0.00654432 15.6741 1.77358 13.0678 4.616 11.9347C9.25154 10.0869 16.8737 8.9837 25.0053 8.9837C27.018 8.9837 38.6038 9.45769 45.082 11.7101C48.0719 12.7497 50.0023 15.4653 50.0001 18.6285L49.9966 23.5271C49.9937 27.5623 46.7083 30.8454 42.6729 30.8454Z" fill="#FF6857"/>
<path d="M28.8105 16.9794H21.194C18.771 16.9794 16.7998 18.9506 16.7998 21.3735V30.8453H33.2046V21.3735C33.2046 18.9506 31.2334 16.9794 28.8105 16.9794Z" fill="#E71700"/>
<path d="M10.9902 24.0086C11.2416 23.7541 11.3812 23.4093 11.3781 23.0509C11.3632 21.3508 10.7056 19.6709 9.57387 18.4418C8.32915 17.0899 6.59288 16.3455 4.68455 16.3455H0.389518C0.138564 17.0945 0.00498154 17.8982 0.00439565 18.7365L0.000977985 23.5166C0.00078269 23.8164 0.0207028 24.113 0.0559536 24.4063H10.0394C10.3965 24.4063 10.7388 24.2631 10.9902 24.0086Z" fill="#FF8D3B"/>
<path d="M49.9965 23.527L50 18.6284C50.0003 18.2143 49.9666 17.8082 49.9027 17.4123C49.8384 17.0466 49.7491 16.6901 49.6337 16.3455H45.3386C43.4304 16.3455 41.694 17.0899 40.4493 18.4418C39.3177 19.6709 38.66 21.3509 38.6451 23.0509C38.6419 23.4093 38.7816 23.7541 39.0329 24.0086C39.2844 24.2631 39.6266 24.4063 39.9837 24.4063H49.9411C49.9762 24.1177 49.9963 23.8247 49.9965 23.527Z" fill="#CCCCCC"/>
<path d="M48.3332 10H23.3333V46.6667H48.3332V10Z" fill="#E5E4FF"/>
<path d="M48.3333 10H35.8333V46.6667H48.3333V10Z" fill="#BAB6FF"/>
<path d="M29.645 23.2002C29.2638 23.2002 28.8827 23.0573 28.592 22.7712L27.1029 21.3065C26.5214 20.7344 26.5214 19.8071 27.1029 19.2351C27.6844 18.663 28.6273 18.663 29.2088 19.2351L29.6451 19.664L31.4091 17.929C31.9905 17.357 32.9334 17.357 33.515 17.929C34.0965 18.501 34.0965 19.4284 33.515 20.0004L30.6981 22.7712C30.4072 23.0573 30.0261 23.2002 29.645 23.2002Z" fill="#FF8D3B"/>
<path d="M43.202 21.8148H39.6717C38.8493 21.8148 38.1826 21.159 38.1826 20.3501C38.1826 19.5412 38.8493 18.8854 39.6717 18.8854H43.202C44.0244 18.8854 44.6911 19.5412 44.6911 20.3501C44.6911 21.1591 44.0244 21.8148 43.202 21.8148Z" fill="#8F8AFF"/>
<path d="M29.645 31.5336C29.2638 31.5336 28.8827 31.3906 28.592 31.1045L27.1029 29.6398C26.5214 29.0678 26.5214 28.1404 27.1029 27.5684C27.6844 26.9963 28.6273 26.9963 29.2088 27.5684L29.6451 27.9973L31.4091 26.2623C31.9905 25.6903 32.9334 25.6903 33.515 26.2623C34.0965 26.8344 34.0965 27.7617 33.515 28.3337L30.6981 31.1045C30.4072 31.3906 30.0261 31.5336 29.645 31.5336Z" fill="#FF8D3B"/>
<path d="M29.645 39.8669C29.2638 39.8669 28.8827 39.724 28.592 39.4379L27.1029 37.9731C26.5214 37.4011 26.5214 36.4738 27.1029 35.9017C27.6844 35.3297 28.6273 35.3297 29.2088 35.9017L29.6451 36.3307L31.4091 34.5957C31.9905 34.0237 32.9334 34.0237 33.515 34.5957C34.0965 35.1677 34.0965 36.0951 33.515 36.6671L30.6981 39.4379C30.4072 39.724 30.0261 39.8669 29.645 39.8669Z" fill="#FF8D3B"/>
<path d="M43.202 30.1482H39.6717C38.8493 30.1482 38.1826 29.4924 38.1826 28.6835C38.1826 27.8746 38.8493 27.2188 39.6717 27.2188H43.202C44.0244 27.2188 44.6911 27.8746 44.6911 28.6835C44.6911 29.4924 44.0244 30.1482 43.202 30.1482Z" fill="#8F8AFF"/>
<path d="M43.202 38.4815H39.6717C38.8493 38.4815 38.1826 37.8257 38.1826 37.0168C38.1826 36.2079 38.8493 35.5521 39.6717 35.5521H43.202C44.0244 35.5521 44.6911 36.2079 44.6911 37.0168C44.6911 37.8257 44.0244 38.4815 43.202 38.4815Z" fill="#8F8AFF"/>
<path d="M48.5244 50H23.1424C22.3275 50 21.6667 49.1596 21.6667 48.1231V10.2102C21.6667 9.17365 22.3275 8.33331 23.1424 8.33331H48.5244C49.3394 8.33331 50.0001 9.17365 50.0001 10.2102V48.1231C50.0001 49.1596 49.3395 50 48.5244 50ZM24.6181 46.2462H47.0487V12.0871H24.6181V46.2462Z" fill="#646464"/>
<path d="M48.5242 8.33331H35.8333V12.0871H47.0485V46.2462H35.8333V50H48.5242C49.3392 50 49.9999 49.1596 49.9999 48.1231V10.2102C49.9999 9.17365 49.3393 8.33331 48.5242 8.33331Z" fill="#353535"/>
<path d="M42.6742 13.0936H29.1988C28.3899 13.0936 27.7341 12.4378 27.7341 11.6289V7.6253C27.7341 6.81639 28.3899 6.16058 29.1988 6.16058H42.6742C43.4831 6.16058 44.1389 6.81639 44.1389 7.6253V11.6289C44.1389 12.4378 43.4832 13.0936 42.6742 13.0936Z" fill="#949494"/>
<path d="M42.6742 6.16058H35.9365V13.0936H42.6742C43.4831 13.0936 44.1389 12.4378 44.1389 11.6289V7.6253C44.1389 6.81639 43.4832 6.16058 42.6742 6.16058Z" fill="#646464"/>
</g>
<defs>
<clipPath id="clip0">
<rect width="50" height="50" fill="white"/>
</clipPath>
</defs>
</svg>
