<svg width="120" height="108" viewBox="0 0 120 108" fill="none" xmlns="http://www.w3.org/2000/svg">
<path d="M91.8076 22.7372C93.477 20.181 93.4599 19.0271 93.3406 17.1325C92.8733 9.70327 95.6448 2.1846 103.018 1.17008C100.137 5.5338 95.2398 10.9874 103.24 15.2077C113.014 20.3638 114.481 12.3211 116.754 7.09682C119.328 10.1313 119.263 13.4435 117.626 17.1349C114.298 24.6439 106.969 18.513 97.2592 27.0548C97.9101 27.6621 98.5719 28.3096 99.2484 28.9992C102.037 26.5908 104.969 26.0322 107.794 25.4946C112.076 24.6798 116.119 23.9104 119.129 17.1188C121.001 12.8971 119.705 7.9419 116.68 4.61743C115.758 6.32899 114.841 8.04458 113.913 9.75288C112.239 12.8604 108.323 14.0352 105.215 12.361L105.215 12.3609C102.107 10.6865 100.932 6.77084 102.607 3.66272L104.579 0.00192262L104.107 0.0513163C101.517 0.323088 99.1154 1.27198 97.1911 2.76315C93.0513 5.9714 91.9094 11.5341 92.2238 16.5271C92.3368 18.3238 92.418 19.6231 90.816 22.1238C91.1479 22.3203 91.4783 22.5246 91.8076 22.7372ZM77.6453 103.313C77.052 103.313 76.5708 103.791 76.5708 104.38C76.5708 104.969 77.052 105.447 77.6453 105.447C78.2385 105.447 78.7197 104.969 78.7197 104.38C78.7197 103.791 78.2385 103.313 77.6453 103.313ZM0 104.247C0 105.586 0.77726 106.258 1.83742 106.258C2.25978 106.258 2.56819 106.15 2.85116 105.939C3.02854 105.811 3.14681 105.706 3.14681 105.562C3.14681 105.416 3.00827 105.302 2.86803 105.302C2.77512 105.302 2.67371 105.37 2.57237 105.454C2.31052 105.672 2.11195 105.74 1.83742 105.74C1.43185 105.74 1.10672 105.593 0.887032 105.302C0.692788 105.043 0.616678 104.743 0.616678 104.248C0.616678 103.751 0.692788 103.451 0.887032 103.192C1.10672 102.898 1.43185 102.754 1.83742 102.754C2.11195 102.754 2.29784 102.822 2.57237 103.037C2.71177 103.148 2.77512 103.192 2.86803 103.192C3.00834 103.192 3.14681 103.078 3.14681 102.932C3.14681 102.788 3.04966 102.707 2.85116 102.56C2.55125 102.336 2.25978 102.236 1.83742 102.236C0.77726 102.236 0 102.904 0 104.248V104.247ZM4.01407 105.096C4.01407 105.414 4.13235 105.702 4.33233 105.897C4.59411 106.15 4.94051 106.258 5.51495 106.258C6.04992 106.258 6.36676 106.154 6.70465 105.841C6.70465 105.944 6.7021 106.029 6.75964 106.118C6.86538 106.285 7.16117 106.285 7.26775 106.12C7.31424 106.048 7.32275 105.992 7.32275 105.852V103.55C7.32275 102.693 6.76382 102.236 5.69091 102.236C5.24878 102.236 4.92364 102.312 4.62367 102.493C4.42184 102.618 4.06914 102.856 4.30129 103.116C4.42623 103.237 4.62721 103.184 4.74626 103.084C5.02491 102.844 5.26146 102.737 5.68673 102.737C6.41318 102.737 6.70883 103.044 6.70883 103.641V103.96H5.45152C4.5477 103.96 4.01407 104.407 4.01407 105.097V105.096ZM4.61948 105.093C4.61948 104.642 4.92364 104.399 5.51913 104.399H6.70883V104.818C6.70883 105.153 6.63704 105.369 6.49347 105.501C6.2358 105.734 5.92328 105.766 5.5783 105.766C4.932 105.766 4.61948 105.538 4.61948 105.092V105.093ZM10.8257 105.509C11.0115 105.509 11.113 105.385 11.1974 105.233L12.2195 103.377V105.852C12.2195 105.992 12.228 106.048 12.2745 106.12C12.3811 106.284 12.6746 106.284 12.7813 106.12C12.8277 106.048 12.8362 105.992 12.8362 105.852V102.638C12.8362 102.486 12.7982 102.399 12.7306 102.335C12.6757 102.283 12.5997 102.251 12.5068 102.251C12.3167 102.251 12.2111 102.379 12.1055 102.566L10.8257 104.878L9.54589 102.566C9.44023 102.379 9.33471 102.251 9.14465 102.251C9.05167 102.251 8.9757 102.283 8.92078 102.335C8.8531 102.399 8.81512 102.486 8.81512 102.638V105.852C8.81512 105.992 8.82355 106.048 8.87004 106.12C8.97676 106.284 9.27022 106.284 9.37694 106.12C9.42336 106.048 9.4318 105.992 9.4318 105.852V103.377L10.454 105.233C10.5384 105.385 10.6399 105.509 10.8257 105.509ZM15.8435 105.74C15.5352 105.74 15.2945 105.648 15.0917 105.457C14.8003 105.181 14.7538 104.702 14.7538 104.247C14.7538 103.792 14.8003 103.317 15.0917 103.041C15.2945 102.85 15.5352 102.754 15.8435 102.754C16.152 102.754 16.3926 102.85 16.5954 103.041C16.8868 103.317 16.9333 103.792 16.9333 104.247C16.9333 104.702 16.8868 105.181 16.5954 105.457C16.3926 105.648 16.152 105.74 15.8435 105.74ZM15.8435 102.235C15.3366 102.235 14.9354 102.411 14.6482 102.682C14.2174 103.097 14.1372 103.64 14.1372 104.247C14.1372 104.85 14.2174 105.397 14.6482 105.812C14.9354 106.084 15.3366 106.259 15.8435 106.259C16.3504 106.259 16.7516 106.084 17.0389 105.812C17.4697 105.397 17.55 104.85 17.55 104.247C17.55 103.64 17.4697 103.097 17.0389 102.682C16.7516 102.411 16.3504 102.235 15.8435 102.235ZM20.3377 105.74C20.0293 105.74 19.7886 105.648 19.5859 105.457C19.2944 105.181 19.248 104.702 19.248 104.247C19.248 103.792 19.2944 103.317 19.5859 103.041C19.7886 102.85 20.0293 102.754 20.3377 102.754C20.6461 102.754 20.8868 102.85 21.0895 103.041C21.381 103.317 21.4275 103.792 21.4275 104.247C21.4275 104.702 21.381 105.181 21.0895 105.457C20.8868 105.648 20.6461 105.74 20.3377 105.74ZM20.3377 102.235C19.8308 102.235 19.4295 102.411 19.1424 102.682C18.7116 103.097 18.6313 103.64 18.6313 104.247C18.6313 104.85 18.7116 105.397 19.1424 105.812C19.4295 106.084 19.8308 106.259 20.3377 106.259C20.8445 106.259 21.2458 106.084 21.533 105.812C21.9638 105.397 22.0441 104.85 22.0441 104.247C22.0441 103.64 21.9638 103.097 21.533 102.682C21.2458 102.411 20.8445 102.235 20.3377 102.235ZM23.1845 103.908C23.1845 104.411 23.2267 104.882 23.3408 105.205C23.5773 105.888 24.1222 106.259 24.8952 106.259C25.3612 106.259 25.7794 106.1 26.0623 105.828C26.4144 105.489 26.5706 105.034 26.5706 104.251C26.5706 103.141 26.1887 102.283 24.9712 102.283C24.4475 102.283 23.9828 102.494 23.7337 102.866C23.7379 102.243 23.7801 101.758 24.1307 101.434C24.5108 101.089 25.2895 101.029 25.9019 101.029C26.054 101.029 26.1173 101.017 26.1764 100.981C26.3412 100.877 26.3412 100.646 26.1764 100.542C26.1173 100.506 26.054 100.494 25.9019 100.494C25.1486 100.494 24.2532 100.61 23.7759 101.017C23.2099 101.498 23.1845 102.047 23.1845 103.908ZM25.9652 104.275C25.9652 104.894 25.8681 105.225 25.6442 105.453C25.4541 105.644 25.1782 105.748 24.891 105.748C24.6038 105.748 24.3292 105.648 24.1392 105.457C23.9153 105.229 23.7928 104.894 23.7928 104.275C23.7928 103.656 23.9153 103.297 24.1392 103.069C24.3292 102.878 24.6038 102.778 24.891 102.778C25.1782 102.778 25.4541 102.882 25.6442 103.073C25.8681 103.301 25.9652 103.656 25.9652 104.275ZM27.6238 104.247C27.6238 105.586 28.401 106.258 29.4611 106.258C29.8836 106.258 30.1918 106.15 30.4749 105.939C30.6523 105.811 30.7705 105.706 30.7705 105.562C30.7705 105.416 30.632 105.302 30.4917 105.302C30.3988 105.302 30.2975 105.37 30.1961 105.454C29.9342 105.672 29.7357 105.74 29.4611 105.74C29.0556 105.74 28.7304 105.593 28.5108 105.302C28.3165 105.043 28.2404 104.743 28.2404 104.248C28.2404 103.751 28.3165 103.451 28.5108 103.192C28.7304 102.898 29.0556 102.754 29.4611 102.754C29.7357 102.754 29.9216 102.822 30.1961 103.037C30.3355 103.148 30.3988 103.192 30.4917 103.192C30.6321 103.192 30.7705 103.078 30.7705 102.932C30.7705 102.788 30.6734 102.707 30.4749 102.56C30.1749 102.336 29.8836 102.236 29.4611 102.236C28.401 102.236 27.6238 102.904 27.6238 104.248V104.247ZM33.0218 102.802H34.4663V105.852C34.4663 105.992 34.4748 106.048 34.5213 106.12C34.628 106.284 34.9215 106.284 35.0282 106.12C35.0746 106.048 35.083 105.992 35.083 105.852V102.634C35.083 102.546 35.083 102.443 34.9985 102.363C34.9141 102.283 34.8043 102.283 34.7114 102.283H32.8022C32.7093 102.283 32.5994 102.283 32.515 102.363C32.4304 102.443 32.4304 102.546 32.4304 102.634V103.976C32.4304 105.385 32.0461 105.668 31.666 105.708C31.573 105.716 31.5393 105.72 31.4928 105.748C31.3308 105.842 31.3387 106.07 31.4928 106.167C31.5435 106.195 31.6068 106.211 31.704 106.211C32.4854 106.211 33.0218 105.74 33.0218 104.135V102.802ZM37.6553 105.433L36.6501 102.53C36.5951 102.375 36.5234 102.251 36.3459 102.251C36.2276 102.251 36.1053 102.323 36.0671 102.423C36.0376 102.502 36.0503 102.586 36.0926 102.706L37.3638 106.151L37.102 106.894C36.971 107.265 36.7768 107.377 36.4727 107.377C36.3015 107.377 36.1516 107.441 36.1516 107.637C36.1516 107.865 36.3471 107.896 36.5318 107.896C37.061 107.896 37.4146 107.65 37.592 107.158L39.2224 102.706C39.2645 102.586 39.2773 102.502 39.2477 102.423C39.2097 102.323 39.0872 102.251 38.9689 102.251C38.7915 102.251 38.7197 102.375 38.6649 102.53L37.6553 105.433ZM42.1959 103.929H41.9383L40.5444 102.423C40.4261 102.295 40.3586 102.251 40.2531 102.251C40.1163 102.251 39.9742 102.364 39.9742 102.506C39.9742 102.578 39.9996 102.65 40.1221 102.775L41.4357 104.141L39.9784 105.72C39.8602 105.848 39.8306 105.916 39.8306 105.988C39.8306 106.13 39.9726 106.243 40.1095 106.243C40.215 106.243 40.2825 106.199 40.4008 106.072L41.934 104.421H42.1959V105.852C42.1959 105.992 42.2044 106.048 42.2509 106.12C42.3575 106.284 42.651 106.284 42.7577 106.12C42.8042 106.048 42.8127 105.992 42.8127 105.852V104.421H43.0745L44.6078 106.072C44.726 106.199 44.7936 106.243 44.8993 106.243C45.036 106.243 45.178 106.13 45.178 105.988C45.178 105.916 45.1484 105.848 45.0302 105.72L43.5729 104.141L44.8865 102.775C45.009 102.65 45.0344 102.578 45.0344 102.506C45.0344 102.364 44.8923 102.251 44.7555 102.251C44.65 102.251 44.5824 102.295 44.4642 102.423L43.0703 103.929H42.8127V102.638C42.8127 102.498 42.8042 102.443 42.7577 102.371C42.6482 102.211 42.3571 102.21 42.2509 102.375C42.2044 102.446 42.1959 102.502 42.1959 102.642V103.929ZM48.9625 103.185V105.852C48.9625 105.992 48.971 106.048 49.0174 106.12C49.124 106.284 49.4177 106.285 49.5242 106.12C49.5707 106.048 49.5792 105.992 49.5792 105.852V102.638C49.5792 102.412 49.4829 102.251 49.2412 102.251C49.0893 102.251 48.9794 102.347 48.8527 102.526L46.8928 105.305V102.638C46.8928 102.498 46.8844 102.443 46.8379 102.371C46.7284 102.211 46.4374 102.21 46.331 102.375C46.2846 102.446 46.2762 102.502 46.2762 102.642V105.856C46.2762 106.082 46.3724 106.243 46.6141 106.243C46.7662 106.243 46.8759 106.147 47.0026 105.968L48.9625 103.185ZM53.1019 106.211C53.8791 106.211 54.3436 105.796 54.3436 105.125C54.3436 104.646 54.065 104.335 53.6172 104.175C54.0396 104.032 54.2761 103.736 54.2761 103.313C54.2761 102.69 53.7861 102.283 53.0512 102.283H51.48C51.387 102.283 51.2771 102.283 51.1927 102.363C51.1083 102.443 51.1083 102.546 51.1083 102.634V105.86C51.1083 105.948 51.1083 106.052 51.1927 106.132C51.2771 106.211 51.387 106.211 51.48 106.211H53.1019ZM53.6763 103.361C53.6763 103.736 53.4228 103.952 52.9414 103.952H51.7249V102.778H52.9414C53.4145 102.778 53.6763 102.985 53.6763 103.361ZM53.7439 105.07C53.7439 105.461 53.4651 105.716 52.992 105.716H51.7249V104.423H52.992C53.4651 104.423 53.7439 104.678 53.7439 105.07ZM55.3081 105.096C55.3081 105.414 55.4264 105.702 55.6264 105.897C55.8883 106.15 56.2345 106.258 56.809 106.258C57.3439 106.258 57.6608 106.154 57.9987 105.841C57.9987 105.944 57.9961 106.029 58.0537 106.118C58.1595 106.285 58.4551 106.285 58.5618 106.12C58.6083 106.048 58.6168 105.992 58.6168 105.852V103.55C58.6168 102.693 58.0578 102.236 56.985 102.236C56.5429 102.236 56.2177 102.312 55.9178 102.493C55.7159 102.618 55.3632 102.856 55.5953 103.116C55.7202 103.237 55.9212 103.184 56.0403 103.084C56.319 102.844 56.5555 102.737 56.9807 102.737C57.7072 102.737 58.0029 103.044 58.0029 103.641V103.96H56.7456C55.8418 103.96 55.3081 104.407 55.3081 105.097V105.096ZM55.9135 105.093C55.9135 104.642 56.2177 104.399 56.8132 104.399H58.0029V104.818C58.0029 105.153 57.9311 105.369 57.7875 105.501C57.5298 105.734 57.2173 105.766 56.8724 105.766C56.2261 105.766 55.9135 105.538 55.9135 105.092V105.093ZM62.7279 104.439V105.851C62.7279 105.99 62.7364 106.046 62.7829 106.118C62.8889 106.285 63.1839 106.285 63.2898 106.118C63.3362 106.046 63.3446 105.99 63.3446 105.851V102.641C63.3446 102.501 63.3362 102.446 63.2898 102.375C63.1831 102.21 62.8896 102.21 62.7829 102.375C62.7364 102.446 62.7279 102.501 62.7279 102.641V103.92H60.7258V102.641C60.7258 102.501 60.7174 102.446 60.671 102.375C60.5643 102.21 60.2708 102.21 60.1641 102.375C60.1176 102.446 60.1091 102.501 60.1091 102.641V105.851C60.1091 105.99 60.1176 106.046 60.1641 106.118C60.2701 106.285 60.5651 106.285 60.671 106.118C60.7174 106.046 60.7258 105.99 60.7258 105.851V104.439H62.7279ZM67.5643 103.185V105.852C67.5643 105.992 67.5727 106.048 67.6191 106.12C67.7258 106.284 68.0194 106.285 68.1259 106.12C68.1724 106.048 68.1809 105.992 68.1809 105.852V102.638C68.1809 102.412 68.0847 102.251 67.843 102.251C67.691 102.251 67.5811 102.347 67.4545 102.526L65.4945 105.305V102.638C65.4945 102.498 65.4862 102.443 65.4397 102.371C65.3301 102.211 65.0391 102.21 64.9328 102.375C64.8864 102.446 64.8779 102.502 64.8779 102.642V105.856C64.8779 106.082 64.9742 106.243 65.2158 106.243C65.3678 106.243 65.4777 106.147 65.6044 105.968L67.5643 103.185ZM72.5371 104.391C72.6357 104.391 72.7286 104.391 72.8089 104.315C72.8891 104.239 72.8933 104.131 72.8933 104.051C72.8848 102.96 72.2414 102.235 71.1883 102.235C70.1436 102.235 69.4749 102.948 69.4749 104.243C69.4749 105.636 70.1943 106.259 71.2938 106.259C71.7191 106.259 72.0767 106.171 72.3259 106.032C72.4907 105.936 72.7581 105.76 72.7581 105.585C72.7581 105.453 72.6272 105.332 72.4948 105.332C72.4019 105.332 72.3386 105.368 72.2077 105.473C71.9598 105.672 71.6388 105.756 71.3192 105.756C70.518 105.756 70.0886 105.252 70.0886 104.391H72.5371ZM70.0886 103.952C70.1013 103.673 70.1267 103.53 70.2197 103.315C70.3717 102.96 70.7377 102.73 71.1883 102.73C71.6389 102.73 72.0007 102.956 72.157 103.315C72.2499 103.53 72.2752 103.673 72.2878 103.952H70.0886ZM85.4706 102.542C85.4706 102.446 85.4284 102.375 85.3523 102.327C85.2932 102.291 85.2299 102.283 85.0946 102.283H82.4084C82.2731 102.283 82.2099 102.291 82.1507 102.327C81.9922 102.427 81.9922 102.658 82.1507 102.758C82.2099 102.794 82.2731 102.802 82.4084 102.802H83.4432V105.852C83.4432 105.992 83.4517 106.048 83.4981 106.12C83.6048 106.284 83.8983 106.285 84.0049 106.12C84.0514 106.048 84.0599 105.992 84.0599 105.852V102.802H85.0946C85.2299 102.802 85.2932 102.794 85.3523 102.758C85.4284 102.71 85.4706 102.638 85.4706 102.542ZM89.2101 104.391C89.3086 104.391 89.4015 104.391 89.4818 104.315C89.562 104.239 89.5662 104.131 89.5662 104.051C89.5579 102.96 88.9143 102.235 87.8612 102.235C86.8165 102.235 86.1478 102.948 86.1478 104.243C86.1478 105.636 86.8673 106.259 87.9669 106.259C88.3921 106.259 88.7496 106.171 88.9989 106.032C89.1636 105.936 89.4312 105.76 89.4312 105.585C89.4312 105.453 89.3002 105.332 89.1678 105.332C89.0749 105.332 89.0116 105.368 88.8806 105.473C88.6328 105.672 88.3118 105.756 87.9922 105.756C87.1911 105.756 86.7617 105.252 86.7617 104.391H89.2101ZM86.7617 103.952C86.7744 103.673 86.7997 103.53 86.8926 103.315C87.0447 102.96 87.4108 102.73 87.8612 102.73C88.3118 102.73 88.6736 102.956 88.8299 103.315C88.9228 103.53 88.9482 103.673 88.9608 103.952H86.7617ZM91.7725 104.676L92.6426 106.02C92.7398 106.167 92.82 106.243 92.9509 106.243C93.1014 106.243 93.2593 106.123 93.2593 105.964C93.2593 105.896 93.2255 105.824 93.1537 105.72L92.1569 104.242L93.1452 102.778C93.2129 102.674 93.2508 102.602 93.2508 102.53C93.2508 102.375 93.0893 102.251 92.9425 102.251C92.8073 102.251 92.7313 102.327 92.6342 102.474L91.7725 103.807L90.9108 102.474C90.8137 102.327 90.7376 102.251 90.6025 102.251C90.4557 102.251 90.2941 102.375 90.2941 102.53C90.2941 102.602 90.3321 102.674 90.3997 102.778L91.3839 104.242L90.3913 105.72C90.3195 105.824 90.2857 105.896 90.2857 105.964C90.2857 106.123 90.4436 106.243 90.5941 106.243C90.725 106.243 90.8053 106.167 90.9024 106.02L91.7725 104.676ZM95.7766 105.74C95.4682 105.74 95.2276 105.648 95.0248 105.457C94.7334 105.181 94.6869 104.702 94.6869 104.247C94.6869 103.792 94.7334 103.317 95.0248 103.041C95.2276 102.85 95.4682 102.754 95.7766 102.754C96.085 102.754 96.3257 102.85 96.5285 103.041C96.8199 103.317 96.8664 103.792 96.8664 104.247C96.8664 104.702 96.8199 105.181 96.5285 105.457C96.3257 105.648 96.085 105.74 95.7766 105.74ZM95.7766 102.235C95.2697 102.235 94.8684 102.411 94.5813 102.682C94.1505 103.097 94.0702 103.64 94.0702 104.247C94.0702 104.85 94.1505 105.397 94.5813 105.812C94.8684 106.084 95.2697 106.259 95.7766 106.259C96.2834 106.259 96.6847 106.084 96.972 105.812C97.4028 105.397 97.483 104.85 97.483 104.247C97.483 103.64 97.4028 103.097 96.972 102.682C96.6847 102.411 96.2834 102.235 95.7766 102.235ZM98.5559 104.247C98.5559 105.586 99.3331 106.258 100.393 106.258C100.816 106.258 101.124 106.15 101.407 105.939C101.584 105.811 101.703 105.706 101.703 105.562C101.703 105.416 101.564 105.302 101.424 105.302C101.331 105.302 101.23 105.37 101.128 105.454C100.866 105.672 100.668 105.74 100.393 105.74C99.9877 105.74 99.6625 105.593 99.4428 105.302C99.2486 105.043 99.1726 104.743 99.1726 104.248C99.1726 103.751 99.2486 103.451 99.4428 103.192C99.6625 102.898 99.9877 102.754 100.393 102.754C100.668 102.754 100.854 102.822 101.128 103.037C101.268 103.148 101.331 103.192 101.424 103.192C101.564 103.192 101.703 103.078 101.703 102.932C101.703 102.788 101.606 102.707 101.407 102.56C101.107 102.336 100.816 102.236 100.393 102.236C99.3331 102.236 98.5559 102.904 98.5559 104.248V104.247ZM104.934 105.509C105.12 105.509 105.221 105.385 105.306 105.233L106.328 103.377V105.852C106.328 105.992 106.336 106.048 106.383 106.12C106.489 106.284 106.783 106.284 106.889 106.12C106.936 106.048 106.944 105.992 106.944 105.852V102.638C106.944 102.486 106.906 102.399 106.839 102.335C106.784 102.283 106.708 102.251 106.615 102.251C106.425 102.251 106.319 102.379 106.214 102.566L104.934 104.878L103.654 102.566C103.548 102.379 103.443 102.251 103.253 102.251C103.16 102.251 103.084 102.283 103.029 102.335C102.961 102.399 102.923 102.486 102.923 102.638V105.852C102.923 105.992 102.932 106.048 102.978 106.12C103.085 106.284 103.379 106.284 103.485 106.12C103.532 106.048 103.54 105.992 103.54 105.852V103.377L104.562 105.233C104.647 105.385 104.748 105.509 104.934 105.509ZM109.952 105.74C109.643 105.74 109.403 105.648 109.2 105.457C108.908 105.181 108.862 104.702 108.862 104.247C108.862 103.792 108.908 103.317 109.2 103.041C109.403 102.85 109.643 102.754 109.952 102.754C110.26 102.754 110.501 102.85 110.704 103.041C110.995 103.317 111.041 103.792 111.041 104.247C111.041 104.702 110.995 105.181 110.704 105.457C110.501 105.648 110.26 105.74 109.952 105.74ZM109.952 102.235C109.445 102.235 109.044 102.411 108.756 102.682C108.326 103.097 108.245 103.64 108.245 104.247C108.245 104.85 108.326 105.397 108.756 105.812C109.044 106.084 109.445 106.259 109.952 106.259C110.459 106.259 110.86 106.084 111.147 105.812C111.578 105.397 111.658 104.85 111.658 104.247C111.658 103.64 111.578 103.097 111.147 102.682C110.86 102.411 110.459 102.235 109.952 102.235ZM115.747 102.542C115.747 102.446 115.705 102.375 115.628 102.327C115.569 102.291 115.506 102.283 115.371 102.283H112.684C112.549 102.283 112.486 102.291 112.427 102.327C112.268 102.426 112.268 102.658 112.427 102.758C112.486 102.794 112.549 102.802 112.684 102.802H113.719V105.852C113.719 105.992 113.728 106.048 113.774 106.12C113.881 106.284 114.174 106.284 114.281 106.12C114.328 106.048 114.336 105.992 114.336 105.852V102.802H115.371C115.506 102.802 115.569 102.794 115.628 102.758C115.705 102.71 115.747 102.638 115.747 102.542ZM119.979 104.247C119.979 103.616 119.886 102.977 119.464 102.578C119.244 102.371 118.881 102.235 118.45 102.235C117.985 102.235 117.622 102.339 117.276 102.754C117.276 102.627 117.292 102.484 117.221 102.375C117.114 102.21 116.821 102.21 116.714 102.375C116.668 102.446 116.659 102.502 116.659 102.642V107.609C116.659 107.748 116.668 107.804 116.714 107.876C116.821 108.041 117.114 108.041 117.221 107.876C117.267 107.804 117.276 107.748 117.276 107.609V105.756C117.622 106.163 117.994 106.259 118.45 106.259C118.881 106.259 119.244 106.123 119.464 105.916C119.886 105.517 119.979 104.878 119.979 104.247ZM117.276 104.247C117.276 103.48 117.411 102.754 118.319 102.754C119.227 102.754 119.362 103.48 119.362 104.247C119.362 105.014 119.227 105.74 118.319 105.74C117.411 105.74 117.276 105.014 117.276 104.247ZM9.49572 77.1115V69.9419C9.49572 69.0878 9.23826 68.4324 8.72349 67.9756C8.20864 67.5189 7.57312 67.2904 6.81662 67.2904H0.796607L0.00864568 71.3123H4.38966C4.66285 71.3123 4.79941 71.4514 4.79941 71.7294V80.6212H1.01991V84.3452H4.80211V92.8199C4.80211 93.098 4.66555 93.237 4.39236 93.237H0.0113386L0.830764 97.2589H5.93682C7.2606 97.2589 8.18512 97.0007 8.71045 96.4844C9.23571 95.9679 9.49841 95.114 9.49841 93.9223C9.49841 88.3187 9.49841 82.7151 9.49841 77.1115H9.49572ZM103.801 97.2589V71.3119H106.859L105.724 67.29H97.277L96.0793 71.3119H99.1366V97.2589H103.801ZM108.119 70.0909V94.1904C108.119 94.6074 108.172 94.9997 108.277 95.3671C108.507 96.1721 109.055 96.698 109.821 97.0057C110.242 97.1745 110.767 97.2589 111.397 97.2589H116.692C117.323 97.2589 117.848 97.1745 118.268 97.0057C119.034 96.698 119.583 96.172 119.813 95.3671C119.918 94.9997 119.97 94.6074 119.97 94.1904V70.0909C119.97 69.2368 119.723 68.5566 119.23 68.0501C118.736 67.5437 117.953 67.2904 116.882 67.2904H111.208C110.136 67.2904 109.354 67.5437 108.86 68.0501C108.366 68.5566 108.119 69.2368 108.119 70.0909ZM112.721 71.4911C112.721 71.213 112.858 71.074 113.131 71.074H114.927C115.201 71.074 115.337 71.213 115.337 71.4911V93.0284C115.337 93.1873 115.311 93.3016 115.258 93.3711C115.206 93.4406 115.085 93.4754 114.896 93.4754H113.162C112.973 93.4754 112.852 93.4406 112.8 93.3711C112.747 93.3016 112.721 93.1873 112.721 93.0284V71.4911ZM16.0542 80.7404H16.7476L19.08 71.4751H23.8077L21.0656 81.4256L23.7762 93.0742H18.7648L16.9683 84.1664H16.0542V93.0742H11.3894V71.4751H16.0542V80.7404ZM28.63 93.0742C27.3062 93.0742 26.3816 92.816 25.8564 92.2997C25.3311 91.7832 25.0684 90.9292 25.0684 89.7376V74.1265C25.0684 73.2725 25.3259 72.6171 25.8406 72.1603C26.3554 71.7036 26.9911 71.4751 27.7475 71.4751H33.7675L34.5554 75.497H30.1744C29.9013 75.497 29.7647 75.6361 29.7647 75.9141V88.6352C29.7647 88.9133 29.9013 89.0523 30.1744 89.0523H34.5554L33.7361 93.0742H28.63ZM47.9508 93.0742H43.2861V75.1991H40.7961V93.0742H36.1314V71.4751H47.9508V93.0742ZM54.3805 75.2587V83.7494H56.6499C56.839 83.7494 56.9598 83.7146 57.0124 83.6451C57.0649 83.5756 57.0912 83.4613 57.0912 83.3025V75.6758C57.0912 75.3977 56.9545 75.2587 56.6814 75.2587H54.3805ZM58.8246 71.4751C59.7282 71.4751 60.4058 71.7135 60.8576 72.1901C61.3092 72.6668 61.5352 73.3024 61.5352 74.0969V84.4345C61.5352 84.8516 61.488 85.234 61.3934 85.5816C61.1813 86.3612 60.6061 86.8382 59.8647 87.1009C59.4445 87.2499 58.9192 87.3244 58.2889 87.3244H54.3805V93.0742H49.8419V71.4751H58.8246ZM63.3317 71.4751H72.2199L73.0079 75.497H68.028V80.6212H71.8103V84.3452H68.028V89.0523H72.8188L72.0308 93.0742H63.3317V71.4751ZM78.1454 93.0742C76.8216 93.0742 75.897 92.816 75.3717 92.2997C74.8465 91.7832 74.5838 90.9292 74.5838 89.7376V74.1265C74.5838 73.2725 74.8412 72.6171 75.356 72.1603C75.8708 71.7036 76.5064 71.4751 77.2629 71.4751H83.2828L84.0708 75.497H79.6897C79.4166 75.497 79.28 75.6361 79.28 75.9141V88.6352C79.28 88.9133 79.4166 89.0523 79.6897 89.0523H84.0708L83.2514 93.0742H78.1454ZM89.2084 93.0742C87.8845 93.0742 86.96 92.816 86.4347 92.2997C85.9094 91.7832 85.6468 90.9292 85.6468 89.7376V74.1265C85.6468 73.2725 85.9041 72.6171 86.419 72.1603C86.9338 71.7036 87.5694 71.4751 88.3258 71.4751H94.3458L95.1338 75.497H90.7527C90.4796 75.497 90.343 75.6361 90.343 75.9141V88.6352C90.343 88.9133 90.4796 89.0523 90.7527 89.0523H95.1338L94.3143 93.0742H89.2084ZM28.2641 22.7752C26.5699 20.1927 26.5862 19.0363 26.7061 17.1326C27.1735 9.70327 24.402 2.1846 17.0291 1.17008C19.9098 5.53373 24.8069 10.9874 16.8068 15.2078C7.03319 20.3639 5.56569 12.3211 3.29294 7.09689C0.718442 10.1314 0.783922 13.4435 2.42029 17.1349C5.75384 24.6553 13.1005 18.4941 22.832 27.0936C22.1812 27.7017 21.5198 28.3494 20.844 29.0386C18.0418 26.5968 15.0934 26.0353 12.2531 25.4947C7.97103 24.6798 3.9279 23.9103 0.917292 17.1188C-0.954001 12.897 0.341504 7.9419 3.36692 4.61736C4.28911 6.32899 5.20597 8.04458 6.13382 9.75288C7.80797 12.8604 11.7234 14.0352 14.8313 12.3609H14.8319C17.9395 10.6865 19.1146 6.77091 17.4401 3.66272L15.4681 0.00192262L15.9393 0.0513163C18.5292 0.323088 20.9313 1.27198 22.8556 2.76315C26.9954 5.9714 28.1374 11.5341 27.8229 16.5272C27.7093 18.3322 27.6282 19.6354 29.2536 22.1591C28.9226 22.3563 28.593 22.5616 28.2641 22.7752ZM84.9767 13.8786L84.1562 14.02C83.9864 14.0483 83.8449 14.1756 83.7954 14.3454C83.7247 14.5788 83.6327 14.8122 83.5196 15.0386C83.4418 15.1942 83.4559 15.3782 83.5549 15.5196L84.0572 16.2128C84.1774 16.3826 84.1562 16.6231 84.0147 16.7646L83.6186 17.1607L83.2225 17.5568C83.0739 17.7053 82.8405 17.7266 82.6707 17.6063L81.9916 17.1253C81.8502 17.0263 81.6592 17.0121 81.5107 17.097C81.2914 17.2173 81.058 17.3093 80.8245 17.3941C80.6618 17.4507 80.5416 17.5851 80.5133 17.7549L80.3789 18.5966C80.3435 18.8018 80.1667 18.9574 79.9615 18.9574H79.4027H78.8439C78.6387 18.9574 78.4548 18.8089 78.4195 18.6037L78.285 17.7831C78.2568 17.6063 78.1294 17.4719 77.9597 17.4153C77.7263 17.3446 77.4928 17.2526 77.2736 17.1395C77.1179 17.0617 76.934 17.0758 76.7925 17.1748L76.0993 17.6771C75.9295 17.7973 75.689 17.7761 75.5475 17.6346L75.1514 17.2385L74.7553 16.8424C74.6068 16.6938 74.5855 16.4604 74.7058 16.2906L75.1797 15.6116C75.2787 15.4701 75.2858 15.2791 75.208 15.1235C75.0878 14.89 74.9817 14.6566 74.9039 14.4162C74.8472 14.2534 74.7129 14.1261 74.536 14.0978L73.7013 13.9634C73.4962 13.928 73.3406 13.7512 73.3406 13.5461V12.9872V12.4284C73.3406 12.2233 73.4891 12.0394 73.6943 12.004L74.529 11.8555C74.6987 11.8271 74.8402 11.6999 74.8897 11.5371C74.9675 11.2966 75.0595 11.0703 75.1727 10.8439C75.2505 10.6883 75.2363 10.5043 75.1373 10.3629L74.6422 9.67677C74.5219 9.50698 74.5431 9.28063 74.6775 9.12501L75.0737 8.72887L75.4697 8.3328C75.6183 8.18426 75.8517 8.163 76.0215 8.28326L76.7076 8.77131C76.8491 8.87039 77.033 8.88449 77.1887 8.79966C77.415 8.68642 77.6414 8.58742 77.8819 8.50961C78.0446 8.45306 78.1719 8.31862 78.2002 8.1489L78.3346 7.31417C78.3699 7.10908 78.5468 6.95346 78.752 6.95346H79.3108H79.8695C80.0747 6.95346 80.2586 7.10199 80.2939 7.30715L80.4426 8.14181C80.4708 8.31161 80.5982 8.45306 80.7609 8.50259C81.0013 8.5804 81.2277 8.67239 81.4541 8.78556C81.6097 8.86337 81.7936 8.8492 81.9351 8.7502L82.6212 8.25498C82.791 8.1348 83.0315 8.15598 83.173 8.29743L83.5691 8.69357L83.9652 9.08972C84.1138 9.23825 84.135 9.47168 84.0147 9.64141L83.5266 10.3276C83.4277 10.4691 83.4206 10.653 83.4984 10.8086C83.6045 11.0208 83.7035 11.2401 83.7743 11.4664C83.8308 11.6291 83.9652 11.7565 84.1421 11.7848L84.9838 11.9192C85.189 11.9545 85.3446 12.1314 85.3446 12.3365V12.8953V13.4541C85.3304 13.6592 85.1819 13.8431 84.9767 13.8786ZM81.0933 11.2259C80.1383 10.2498 78.5751 10.2356 77.5989 11.1905C76.6227 12.1455 76.6086 13.7088 77.5635 14.6849C78.5185 15.6611 80.0818 15.6752 81.058 14.7203C82.0341 13.7653 82.0482 12.2021 81.0933 11.2259ZM46.4517 13.9894L45.6311 14.1309C45.4613 14.1592 45.3199 14.2865 45.2703 14.4563C45.1996 14.6897 45.1077 14.9231 44.9945 15.1495C44.9167 15.3051 44.9308 15.4891 45.0299 15.6305L45.5321 16.3237C45.6523 16.4935 45.6311 16.734 45.4896 16.8755L45.0935 17.2716L44.6974 17.6677C44.5488 17.8162 44.3154 17.8375 44.1457 17.7172L43.4666 17.2362C43.3251 17.1372 43.1341 17.123 42.9856 17.2079C42.7663 17.3282 42.5328 17.4202 42.2994 17.505C42.1368 17.5616 42.0165 17.696 41.9881 17.8658L41.8538 18.7075C41.8184 18.9127 41.6415 19.0683 41.4365 19.0683H40.8776H40.3188C40.1137 19.0683 39.9298 18.9198 39.8943 18.7146L39.76 17.894C39.7317 17.7172 39.6044 17.5828 39.4346 17.5262C39.2012 17.4555 38.9678 17.3635 38.7484 17.2504C38.5928 17.1726 38.4089 17.1867 38.2675 17.2857L37.5742 17.788C37.4045 17.9082 37.1639 17.887 37.0225 17.7455L36.6263 17.3494L36.2302 16.9533C36.0817 16.8047 36.0605 16.5713 36.1807 16.4015L36.6546 15.7225C36.7537 15.581 36.7608 15.39 36.683 15.2344C36.5627 15.0009 36.4565 14.7675 36.3787 14.5271C36.3222 14.3643 36.1877 14.237 36.0109 14.2087L35.1762 14.0743C34.9711 14.0389 34.8155 13.8621 34.8155 13.657V13.0981V12.5393C34.8155 12.3342 34.964 12.1503 35.1692 12.1149L36.0039 11.9663C36.1736 11.938 36.3151 11.8108 36.3646 11.6481C36.4424 11.4075 36.5344 11.1812 36.6476 10.9548C36.7254 10.7992 36.7112 10.6152 36.6122 10.4738L36.117 9.78768C35.9968 9.61788 36.018 9.39153 36.1525 9.23591L36.5485 8.83977L36.9447 8.4437C37.0932 8.29517 37.3266 8.27391 37.4964 8.39417L38.1826 8.88222C38.324 8.98129 38.5079 8.99539 38.6635 8.91057C38.8899 8.79732 39.1163 8.69832 39.3568 8.62051C39.5195 8.56396 39.6468 8.42953 39.6751 8.2598L39.8095 7.42507C39.8449 7.21991 40.0217 7.06436 40.2268 7.06436H40.7856H41.3445C41.5496 7.06436 41.7335 7.2129 41.7689 7.41806L41.9174 8.25272C41.9458 8.42251 42.073 8.56396 42.2358 8.6135C42.4763 8.69131 42.7026 8.78322 42.929 8.89646C43.0846 8.97428 43.2686 8.9601 43.41 8.8611L44.0961 8.36589C44.2659 8.2457 44.5065 8.26689 44.6479 8.40834L45.044 8.80448L45.4401 9.20062C45.5886 9.34916 45.6099 9.58259 45.4896 9.75231L45.0016 10.4385C44.9025 10.58 44.8954 10.7639 44.9732 10.9195C45.0794 11.1317 45.1784 11.351 45.2491 11.5773C45.3058 11.74 45.4401 11.8674 45.617 11.8957L46.4587 12.0301C46.6639 12.0655 46.8195 12.2423 46.8195 12.4474V13.0062V13.5651C46.8054 13.7701 46.6568 13.954 46.4517 13.9894ZM42.5682 11.3368C41.6133 10.3606 40.05 10.3465 39.0738 11.3014C38.0977 12.2564 38.0835 13.8197 39.0385 14.7959C39.9934 15.772 41.5566 15.7861 42.5328 14.8312C43.509 13.8762 43.5232 12.313 42.5682 11.3368ZM66.886 2.11798L66.4663 3.94278C66.3755 4.32497 66.5124 4.7182 66.815 4.97303C67.2348 5.32793 67.6372 5.72138 68.003 6.15395C68.2597 6.44811 68.6436 6.58651 69.0289 6.49729L70.9001 6.07181C71.3609 5.97047 71.834 6.21936 72.01 6.64916L72.9635 8.98498C73.1495 9.42399 72.9869 9.92232 72.5785 10.1735L70.9926 11.1672C70.6588 11.3778 70.4825 11.7535 70.5151 12.141C70.5632 12.7079 70.5637 13.267 70.5262 13.8182C70.4923 14.2078 70.6756 14.571 71.005 14.7774L72.633 15.8009C73.0302 16.0524 73.1898 16.5491 73.0153 16.9816L72.6699 17.8104C69.7013 17.5537 66.6487 17.3861 63.5311 17.3138C65.3706 15.8304 66.1153 13.2739 65.2046 10.9619C64.0721 8.11084 60.8486 6.71669 57.9974 7.83971C55.1461 8.96265 53.7519 12.1862 54.8749 15.0375C55.239 15.9619 55.8239 16.7331 56.5453 17.3151C53.4405 17.3876 50.4012 17.5554 47.4448 17.8113L47.1156 17.0047C46.9297 16.5658 47.0924 16.0673 47.5005 15.8161L49.1052 14.8125C49.4389 14.6017 49.6156 14.2354 49.5832 13.8481C49.5349 13.2812 49.5344 12.722 49.5811 12.1613C49.6148 11.7715 49.4312 11.3989 49.1018 11.1924L47.4932 10.1777C47.096 9.92622 46.9365 9.42945 47.1201 8.99653L48.0823 6.68856C48.2565 6.25599 48.7223 6.02178 49.19 6.11922L51.0435 6.54718C51.4258 6.6381 51.819 6.50119 52.0644 6.19888C52.4283 5.76914 52.8223 5.37626 53.2548 5.01066C53.5494 4.76341 53.687 4.36061 53.5982 3.98452L53.1737 2.14179C53.0722 1.68109 53.321 1.20799 53.7509 1.03203L56.0869 0.0781745C56.5257 -0.107565 57.0241 0.055143 57.2754 0.463402L58.2792 2.06788C58.4898 2.4018 58.8655 2.57797 59.2534 2.55509C59.7921 2.51731 60.3228 2.51774 60.8549 2.55608C61.2448 2.58981 61.6173 2.40634 61.8237 2.07681L62.8472 0.449017C63.0988 0.0515288 63.5955 -0.10792 64.0285 0.0761194L66.3364 1.03791C66.7492 1.1941 66.9931 1.65927 66.886 2.11798Z" fill="#434242"/>
<path fill-rule="evenodd" clip-rule="evenodd" d="M25.4143 56.7695C25.4143 54.8506 26.9699 53.295 28.8888 53.295C30.8078 53.295 32.3634 54.8506 32.3634 56.7695C32.3634 58.6885 30.8078 60.2442 28.8888 60.2442C26.9699 60.2442 25.4143 58.6885 25.4143 56.7695ZM94.5677 56.7695C94.5677 54.8506 93.0121 53.295 91.0932 53.295C89.1742 53.295 87.6185 54.8506 87.6185 56.7695C87.6185 58.6885 89.1742 60.2442 91.0932 60.2442C93.0121 60.2442 94.5677 58.6885 94.5677 56.7695ZM96.7459 44.0337C98.4591 43.3194 103.592 41.9138 108.524 42.5357C119.902 43.9706 120.06 58.6373 115.666 61.7455C115.138 62.1189 114.184 62.2973 111.996 62.2971C109.35 62.2969 117.292 59.5197 115.888 52.1778C114.48 44.8209 106.886 46.591 107.389 46.6818C108.809 46.9378 110.15 47.6301 111.598 48.9568C113.653 50.8401 114.908 56.1693 111.479 59.4058C108.417 62.2957 105.448 62.0609 103.088 61.1938C99.1785 59.7569 95.7445 55.1253 95.8407 56.1131C96.6652 64.5737 76.4631 65.8807 76.2589 60.9808C76.1732 58.9241 88.8349 47.3321 96.7459 44.0337ZM106.071 47.9855C102.684 47.9855 99.9385 50.7313 99.9385 54.1184C99.9385 57.5054 102.684 60.2512 106.071 60.2512C109.458 60.2512 112.204 57.5054 112.204 54.1184C112.204 50.7313 109.458 47.9855 106.071 47.9855ZM19.0428 39.4766C34.6713 43.4562 41.909 56.0913 49.1635 60.1695C54.2111 63.0072 65.9175 63.0072 70.9651 60.1695C78.2195 56.0913 85.4573 43.4562 101.086 39.4766C100.928 39.4512 96.6992 38.5941 83.3359 46.3433C79.3506 48.6544 76.8858 52.0644 71.1413 56.1568C62.8306 62.0773 63.3382 58.5619 63.7988 46.602C64.1375 37.812 30.4945 41.7077 30.1278 41.6678C32.5841 39.129 96.0177 38.8901 94.6254 38.7849C75.019 37.3038 31.0706 37.5342 19.0428 39.4766ZM8.40564 36.0491C6.44229 36.0491 4.92207 37.0018 4.92207 37.9012C4.92207 38.8006 7.38573 40.2531 9.57819 40.0239C11.7706 39.7948 12.4006 39.86 12.8277 39.5126C13.2548 39.1653 10.3689 36.0491 8.40564 36.0491ZM110.674 36.0491C112.637 36.0491 114.157 37.0018 114.157 37.9012C114.157 38.8006 111.694 40.2531 109.501 40.0239C107.309 39.7948 106.679 39.86 106.252 39.5126C105.825 39.1653 108.71 36.0491 110.674 36.0491ZM111.013 54.2429C111.013 56.8743 108.88 59.0076 106.248 59.0076C105.139 59.0076 105.639 57.5556 107.789 56.3219C108.306 56.025 105.327 55.2908 105.661 54.7541C105.976 54.2495 107.914 54.7635 108.051 54.2429C108.217 53.6134 106.29 53.0138 106.29 52.4514C106.29 51.2557 109.496 53.4541 109.15 52.6176C108.735 51.6132 104.812 49.4782 106.248 49.4782C108.88 49.4782 111.013 51.6114 111.013 54.2429ZM93.2913 55.8766C93.5412 58.2091 92.255 59.0931 91.0482 59.0931C87.8318 59.0931 93.0414 53.5441 93.2913 55.8766ZM31.4204 23.0776C26.5051 25.6694 21.9921 30.0575 16.0189 37.2408C44.7234 34.9363 75.4052 34.9363 104.11 37.2408C98.1365 30.0575 93.6235 25.6694 88.7082 23.0776C88.543 22.9905 98.5411 31.2901 100.273 35.6247C85.5606 33.1413 70.4016 32.7471 59.279 32.7571C61.1014 19.4332 61.3515 18.4536 58.2478 32.7408C54.5004 32.7578 51.1844 32.8162 48.4355 32.8468C49.1229 28.6791 50.5425 24.9069 51.0527 23.1231C50.0303 23.357 48.5637 23.4499 47.7865 24.0602C46.8423 25.3727 46.185 29.0768 44.9796 32.7567C42.3576 32.7402 40.8208 32.7887 38.2291 32.7692C38.5287 30.5221 40.3027 27.623 42.4593 24.8061C40.626 25.0667 29.4125 26.9736 23.2275 34.6678C32.4327 16.6338 83.2914 21.2064 82.1593 20.9707C67.3394 17.885 39.1294 19.0126 31.4204 23.0776ZM13.9106 58.883C16.5421 58.883 18.6754 56.7498 18.6754 54.1184C18.6754 51.4869 16.5421 49.3536 13.9106 49.3536C12.4748 49.3536 16.3972 51.4887 16.8126 52.493C17.1584 53.3295 13.9523 51.1311 13.9523 52.3269C13.9523 52.8893 15.8798 53.4889 15.7136 54.1184C15.576 54.639 13.638 54.1249 13.3235 54.6295C12.9891 55.1663 15.9688 55.9005 15.4514 56.1974C13.3018 57.4311 12.8013 58.883 13.9106 58.883ZM31.1319 55.7382C30.882 53.4057 25.6725 58.9546 28.8889 58.9546C30.0957 58.9546 31.3818 58.0706 31.1319 55.7382ZM23.236 44.0337C21.5228 43.3194 16.3894 41.9138 11.4581 42.5357C0.0798522 43.9706 -0.0775416 58.6373 4.31616 61.7455C4.84419 62.1189 5.79748 62.2973 7.98583 62.2971C10.6322 62.2969 2.68971 59.5197 4.09421 52.1778C5.50161 44.8209 13.0962 46.591 12.5926 46.6818C11.1728 46.9378 9.83217 47.6301 8.38424 48.9568C6.32876 50.8401 5.07344 56.1693 8.50273 59.4058C11.5646 62.2957 14.534 62.0609 16.8935 61.1938C20.8034 59.7569 24.2375 55.1253 24.1413 56.1131C23.3167 64.5737 43.5189 65.8807 43.7231 60.9808C43.8087 58.9241 31.1471 47.3321 23.236 44.0337ZM13.9106 47.9855C17.2976 47.9855 20.0435 50.7313 20.0435 54.1184C20.0435 57.5054 17.2976 60.2512 13.9106 60.2512C10.5235 60.2512 7.77769 57.5054 7.77769 54.1184C7.77769 50.7313 10.5235 47.9855 13.9106 47.9855Z" fill="#FF6857"/>
</svg>
